<?xml version="1.0" encoding="utf-8" standalone="no"?>
<!DOCTYPE svg PUBLIC "-//W3C//DTD SVG 1.1//EN"
  "http://www.w3.org/Graphics/SVG/1.1/DTD/svg11.dtd">
<svg xmlns:xlink="http://www.w3.org/1999/xlink" width="522.369438pt" height="341.47275pt" viewBox="0 0 522.369438 341.47275" xmlns="http://www.w3.org/2000/svg" version="1.1">
 <metadata>
  <rdf:RDF xmlns:dc="http://purl.org/dc/elements/1.1/" xmlns:cc="http://creativecommons.org/ns#" xmlns:rdf="http://www.w3.org/1999/02/22-rdf-syntax-ns#">
   <cc:Work>
    <dc:type rdf:resource="http://purl.org/dc/dcmitype/StillImage"/>
    <dc:date>2023-05-12T11:51:23.447752</dc:date>
    <dc:format>image/svg+xml</dc:format>
    <dc:creator>
     <cc:Agent>
      <dc:title>Matplotlib v3.5.2, https://matplotlib.org/</dc:title>
     </cc:Agent>
    </dc:creator>
   </cc:Work>
  </rdf:RDF>
 </metadata>
 <defs>
  <style type="text/css">*{stroke-linejoin: round; stroke-linecap: butt}</style>
 </defs>
 <g id="figure_1">
  <g id="patch_1">
   <path d="M 0 341.47275 
L 522.369438 341.47275 
L 522.369438 0 
L 0 0 
z
" style="fill: #ffffff"/>
  </g>
  <g id="axes_1">
   <g id="patch_2">
    <path d="M 53.70375 275.6195 
L 388.50375 275.6195 
L 388.50375 58.1795 
L 53.70375 58.1795 
z
" style="fill: #eaeaf2"/>
   </g>
   <g id="matplotlib.axis_1">
    <g id="xtick_1">
     <g id="line2d_1">
      <path d="M 57.640868 275.6195 
L 57.640868 58.1795 
" clip-path="url(#p21c7ae51b2)" style="fill: none; stroke: #ffffff; stroke-linecap: round"/>
     </g>
     <g id="text_1">
      <!-- −6 -->
      <g style="fill: #262626" transform="translate(49.334618 295.60075)scale(0.15 -0.15)">
       <defs>
        <path id="Cambria-2212" d="M 397 1613 
L 397 2047 
L 3147 2047 
L 3147 1613 
L 397 1613 
z
" transform="scale(0.015625)"/>
        <path id="Cambria-36" d="M 2847 4144 
L 2847 3991 
Q 2366 3991 1994 3784 
Q 1622 3578 1376 3178 
Q 1131 2778 1031 2228 
L 1063 2216 
Q 1325 2403 1579 2490 
Q 1834 2578 2131 2578 
Q 2484 2578 2732 2423 
Q 2981 2269 3106 1989 
Q 3231 1709 3231 1334 
Q 3231 928 3075 617 
Q 2919 306 2592 128 
Q 2266 -50 1788 -50 
Q 1103 -50 754 375 
Q 406 800 406 1628 
Q 406 2184 581 2668 
Q 756 3153 1078 3514 
Q 1400 3875 1825 4083 
Q 2250 4291 2719 4316 
L 2847 4144 
z
M 1916 2250 
Q 1763 2250 1620 2215 
Q 1478 2181 1353 2115 
Q 1228 2050 1109 1950 
Q 1072 1916 1053 1878 
Q 1022 1819 1012 1731 
Q 1003 1644 1003 1438 
Q 1003 841 1203 528 
Q 1403 216 1809 216 
Q 2044 216 2203 297 
Q 2363 378 2461 520 
Q 2559 663 2601 855 
Q 2644 1047 2644 1272 
Q 2644 1734 2453 1992 
Q 2263 2250 1916 2250 
z
" transform="scale(0.015625)"/>
       </defs>
       <use xlink:href="#Cambria-2212"/>
       <use xlink:href="#Cambria-36" x="55.371094"/>
      </g>
     </g>
    </g>
    <g id="xtick_2">
     <g id="line2d_2">
      <path d="M 112.128496 275.6195 
L 112.128496 58.1795 
" clip-path="url(#p21c7ae51b2)" style="fill: none; stroke: #ffffff; stroke-linecap: round"/>
     </g>
     <g id="text_2">
      <!-- −4 -->
      <g style="fill: #262626" transform="translate(103.822246 295.60075)scale(0.15 -0.15)">
       <defs>
        <path id="Cambria-34" d="M 1613 153 
Q 1806 203 1872 264 
Q 1938 325 1958 437 
Q 1978 550 1978 781 
L 1978 1294 
L 241 1294 
L 241 1528 
L 2069 4288 
L 2516 4288 
L 2516 1597 
L 2581 1597 
Q 2763 1597 2841 1623 
Q 2919 1650 2970 1717 
Q 3022 1784 3066 1938 
L 3303 1938 
L 3266 1294 
L 2516 1294 
L 2516 781 
Q 2516 572 2530 475 
Q 2544 378 2576 322 
Q 2609 266 2673 228 
Q 2738 191 2881 153 
L 2881 0 
L 1613 0 
L 1613 153 
z
M 756 1597 
L 1978 1597 
L 1978 2375 
Q 1978 2669 1987 3033 
Q 1997 3397 2009 3581 
L 1978 3581 
L 756 1641 
L 756 1597 
z
" transform="scale(0.015625)"/>
       </defs>
       <use xlink:href="#Cambria-2212"/>
       <use xlink:href="#Cambria-34" x="55.371094"/>
      </g>
     </g>
    </g>
    <g id="xtick_3">
     <g id="line2d_3">
      <path d="M 166.616123 275.6195 
L 166.616123 58.1795 
" clip-path="url(#p21c7ae51b2)" style="fill: none; stroke: #ffffff; stroke-linecap: round"/>
     </g>
     <g id="text_3">
      <!-- −2 -->
      <g style="fill: #262626" transform="translate(158.309873 295.60075)scale(0.15 -0.15)">
       <defs>
        <path id="Cambria-32" d="M 2194 500 
Q 2347 500 2440 519 
Q 2534 538 2590 581 
Q 2647 625 2680 695 
Q 2713 766 2763 913 
L 3028 913 
L 2975 0 
L 403 0 
L 403 150 
Q 538 478 766 822 
Q 994 1166 1413 1631 
Q 1775 2031 1934 2238 
Q 2109 2463 2195 2627 
Q 2281 2791 2318 2936 
Q 2356 3081 2356 3228 
Q 2356 3463 2281 3642 
Q 2206 3822 2051 3925 
Q 1897 4028 1663 4028 
Q 1078 4028 875 3378 
L 497 3378 
L 497 3978 
Q 875 4156 1204 4236 
Q 1534 4316 1797 4316 
Q 2378 4316 2675 4061 
Q 2972 3806 2972 3322 
Q 2972 3156 2939 3017 
Q 2906 2878 2836 2742 
Q 2766 2606 2647 2450 
Q 2528 2294 2384 2133 
Q 2241 1972 1888 1597 
Q 1294 969 1016 500 
L 2194 500 
z
" transform="scale(0.015625)"/>
       </defs>
       <use xlink:href="#Cambria-2212"/>
       <use xlink:href="#Cambria-32" x="55.371094"/>
      </g>
     </g>
    </g>
    <g id="xtick_4">
     <g id="line2d_4">
      <path d="M 221.10375 275.6195 
L 221.10375 58.1795 
" clip-path="url(#p21c7ae51b2)" style="fill: none; stroke: #ffffff; stroke-linecap: round"/>
     </g>
     <g id="text_4">
      <!-- 0 -->
      <g style="fill: #262626" transform="translate(216.950625 295.60075)scale(0.15 -0.15)">
       <defs>
        <path id="Cambria-30" d="M 1738 -50 
Q 1063 -50 733 481 
Q 403 1013 403 2094 
Q 403 2669 504 3087 
Q 606 3506 789 3779 
Q 972 4053 1228 4184 
Q 1484 4316 1788 4316 
Q 2472 4316 2806 3787 
Q 3141 3259 3141 2191 
Q 3141 1084 2783 517 
Q 2425 -50 1738 -50 
z
M 1013 2188 
Q 1013 1169 1202 692 
Q 1391 216 1788 216 
Q 2166 216 2348 664 
Q 2531 1113 2531 2053 
Q 2531 2772 2437 3217 
Q 2344 3663 2176 3856 
Q 2009 4050 1772 4050 
Q 1556 4050 1411 3922 
Q 1266 3794 1177 3553 
Q 1088 3313 1050 2967 
Q 1013 2622 1013 2188 
z
" transform="scale(0.015625)"/>
       </defs>
       <use xlink:href="#Cambria-30"/>
      </g>
     </g>
    </g>
    <g id="xtick_5">
     <g id="line2d_5">
      <path d="M 275.591377 275.6195 
L 275.591377 58.1795 
" clip-path="url(#p21c7ae51b2)" style="fill: none; stroke: #ffffff; stroke-linecap: round"/>
     </g>
     <g id="text_5">
      <!-- 2 -->
      <g style="fill: #262626" transform="translate(271.438252 295.60075)scale(0.15 -0.15)">
       <use xlink:href="#Cambria-32"/>
      </g>
     </g>
    </g>
    <g id="xtick_6">
     <g id="line2d_6">
      <path d="M 330.079004 275.6195 
L 330.079004 58.1795 
" clip-path="url(#p21c7ae51b2)" style="fill: none; stroke: #ffffff; stroke-linecap: round"/>
     </g>
     <g id="text_6">
      <!-- 4 -->
      <g style="fill: #262626" transform="translate(325.925879 295.60075)scale(0.15 -0.15)">
       <use xlink:href="#Cambria-34"/>
      </g>
     </g>
    </g>
    <g id="xtick_7">
     <g id="line2d_7">
      <path d="M 384.566632 275.6195 
L 384.566632 58.1795 
" clip-path="url(#p21c7ae51b2)" style="fill: none; stroke: #ffffff; stroke-linecap: round"/>
     </g>
     <g id="text_7">
      <!-- 6 -->
      <g style="fill: #262626" transform="translate(380.413507 295.60075)scale(0.15 -0.15)">
       <use xlink:href="#Cambria-36"/>
      </g>
     </g>
    </g>
    <g id="text_8">
     <!-- Average annual change  -->
     <g style="fill: #262626" transform="translate(140.64875 313.93075)scale(0.16 -0.16)">
      <defs>
       <path id="Cambria-41" d="M 2488 0 
L 2488 153 
Q 2644 184 2720 221 
Q 2797 259 2834 326 
Q 2872 394 2872 506 
Q 2872 613 2847 736 
Q 2822 859 2775 1013 
L 2659 1416 
L 1203 1416 
L 1097 1109 
Q 1016 878 991 759 
Q 966 641 966 544 
Q 966 356 1061 268 
Q 1156 181 1353 153 
L 1353 0 
L 19 0 
L 19 153 
Q 194 181 323 356 
Q 453 531 575 856 
L 1878 4316 
L 2372 4316 
L 3434 831 
Q 3509 588 3567 459 
Q 3625 331 3706 259 
Q 3788 188 3928 153 
L 3928 0 
L 2488 0 
z
M 1288 1688 
L 2594 1688 
L 2000 3703 
L 1288 1688 
z
" transform="scale(0.015625)"/>
       <path id="Cambria-76" d="M 1334 2988 
L 1334 2834 
Q 1191 2800 1131 2769 
Q 1072 2738 1042 2688 
Q 1013 2638 1013 2553 
Q 1013 2469 1033 2376 
Q 1053 2284 1097 2163 
L 1641 581 
L 2278 2097 
Q 2341 2247 2366 2344 
Q 2391 2441 2391 2525 
Q 2391 2656 2320 2725 
Q 2250 2794 2063 2834 
L 2063 2988 
L 3231 2988 
L 3231 2834 
Q 3109 2809 3043 2757 
Q 2978 2706 2912 2595 
Q 2847 2484 2756 2284 
L 1703 -31 
L 1334 -31 
L 488 2303 
Q 400 2544 348 2633 
Q 297 2722 236 2765 
Q 175 2809 59 2834 
L 59 2988 
L 1334 2988 
z
" transform="scale(0.015625)"/>
       <path id="Cambria-65" d="M 2800 531 
Q 2600 322 2433 203 
Q 2266 84 2066 17 
Q 1866 -50 1625 -50 
Q 981 -50 653 336 
Q 325 722 325 1475 
Q 325 1941 492 2297 
Q 659 2653 968 2847 
Q 1278 3041 1681 3041 
Q 1997 3041 2219 2941 
Q 2441 2841 2573 2667 
Q 2706 2494 2779 2230 
Q 2853 1966 2863 1541 
L 894 1541 
L 894 1484 
Q 894 1116 976 864 
Q 1059 613 1248 470 
Q 1438 328 1741 328 
Q 1997 328 2201 423 
Q 2406 519 2609 734 
L 2800 531 
z
M 2275 1800 
Q 2256 2138 2190 2352 
Q 2125 2566 1994 2680 
Q 1863 2794 1650 2794 
Q 1328 2794 1136 2536 
Q 944 2278 909 1800 
L 2275 1800 
z
" transform="scale(0.015625)"/>
       <path id="Cambria-72" d="M 1147 2469 
L 1191 2459 
Q 1363 2669 1509 2789 
Q 1656 2909 1826 2975 
Q 1997 3041 2213 3041 
Q 2394 3041 2541 3022 
L 2541 2303 
L 2188 2303 
Q 2113 2472 2028 2548 
Q 1944 2625 1797 2625 
Q 1684 2625 1573 2559 
Q 1463 2494 1359 2369 
Q 1256 2244 1217 2134 
Q 1178 2025 1178 1875 
L 1178 781 
Q 1178 497 1212 389 
Q 1247 281 1326 231 
Q 1406 181 1566 153 
L 1566 0 
L 306 0 
L 306 153 
Q 425 191 476 219 
Q 528 247 565 297 
Q 603 347 622 450 
Q 641 553 641 772 
L 641 2134 
Q 641 2334 634 2456 
Q 628 2578 590 2651 
Q 553 2725 476 2761 
Q 400 2797 259 2822 
L 259 2984 
L 991 3016 
L 1181 3016 
L 1147 2469 
z
" transform="scale(0.015625)"/>
       <path id="Cambria-61" d="M 2109 447 
L 2063 459 
Q 1791 181 1552 65 
Q 1313 -50 1044 -50 
Q 806 -50 625 42 
Q 444 134 347 301 
Q 250 469 250 688 
Q 250 1144 701 1392 
Q 1153 1641 2056 1681 
L 2056 1884 
Q 2056 2209 1993 2396 
Q 1931 2584 1797 2671 
Q 1663 2759 1438 2759 
Q 1194 2759 1045 2631 
Q 897 2503 822 2247 
L 413 2247 
L 413 2653 
Q 713 2809 913 2882 
Q 1113 2956 1313 2998 
Q 1513 3041 1719 3041 
Q 2028 3041 2215 2942 
Q 2403 2844 2497 2641 
Q 2591 2438 2591 2028 
L 2591 941 
Q 2591 709 2594 614 
Q 2597 519 2612 437 
Q 2628 356 2659 307 
Q 2691 259 2752 225 
Q 2813 191 2950 153 
L 2950 0 
L 2094 0 
L 2109 447 
z
M 2056 1425 
Q 1422 1419 1106 1256 
Q 791 1094 791 766 
Q 791 588 862 484 
Q 934 381 1043 342 
Q 1153 303 1303 303 
Q 1516 303 1689 406 
Q 1863 509 1959 668 
Q 2056 828 2056 984 
L 2056 1425 
z
" transform="scale(0.015625)"/>
       <path id="Cambria-67" d="M 3106 2672 
L 2528 2694 
L 2500 2659 
Q 2597 2563 2653 2395 
Q 2709 2228 2709 2034 
Q 2709 1525 2395 1248 
Q 2081 972 1503 972 
Q 1244 972 1056 1038 
Q 819 856 819 681 
Q 819 566 864 506 
Q 909 447 1014 422 
Q 1119 397 1331 397 
L 2081 397 
Q 2413 397 2622 294 
Q 2831 191 2920 17 
Q 3009 -156 3009 -388 
Q 3009 -681 2840 -911 
Q 2672 -1141 2353 -1269 
Q 2034 -1397 1609 -1397 
Q 1294 -1397 1033 -1359 
Q 772 -1322 586 -1233 
Q 400 -1144 298 -998 
Q 197 -853 197 -634 
Q 197 -438 328 -277 
Q 459 -116 700 6 
Q 553 66 468 181 
Q 384 297 384 453 
Q 384 631 484 779 
Q 584 928 838 1119 
Q 613 1250 495 1475 
Q 378 1700 378 1988 
Q 378 2256 467 2454 
Q 556 2653 714 2783 
Q 872 2913 1087 2977 
Q 1303 3041 1553 3041 
Q 1778 3041 2000 2988 
L 3106 2988 
L 3106 2672 
z
M 938 2038 
Q 938 1647 1097 1434 
Q 1256 1222 1556 1222 
Q 1716 1222 1828 1283 
Q 1941 1344 2011 1450 
Q 2081 1556 2114 1695 
Q 2147 1834 2147 1988 
Q 2147 2263 2069 2447 
Q 1991 2631 1856 2717 
Q 1722 2803 1547 2803 
Q 1250 2803 1094 2606 
Q 938 2409 938 2038 
z
M 1016 -50 
Q 856 -169 776 -301 
Q 697 -434 697 -603 
Q 697 -884 920 -1017 
Q 1144 -1150 1603 -1150 
Q 1884 -1150 2086 -1075 
Q 2288 -1000 2394 -859 
Q 2500 -719 2500 -531 
Q 2500 -444 2478 -361 
Q 2456 -278 2395 -212 
Q 2334 -147 2221 -108 
Q 2109 -69 1928 -69 
L 1463 -69 
Q 1209 -69 1016 -50 
z
" transform="scale(0.015625)"/>
       <path id="Cambria-20" transform="scale(0.015625)"/>
       <path id="Cambria-6e" d="M 3347 0 
L 2116 0 
L 2116 153 
Q 2238 191 2291 219 
Q 2344 247 2380 297 
Q 2416 347 2436 451 
Q 2456 556 2456 769 
L 2456 1588 
Q 2456 1806 2443 1984 
Q 2431 2163 2401 2277 
Q 2372 2391 2330 2455 
Q 2288 2519 2230 2564 
Q 2172 2609 2097 2636 
Q 2022 2663 1900 2663 
Q 1778 2663 1668 2614 
Q 1559 2566 1428 2447 
Q 1297 2328 1237 2212 
Q 1178 2097 1178 1947 
L 1178 781 
Q 1178 513 1203 408 
Q 1228 303 1298 248 
Q 1369 194 1528 153 
L 1528 0 
L 303 0 
L 303 153 
Q 425 191 476 219 
Q 528 247 564 297 
Q 600 347 620 450 
Q 641 553 641 772 
L 641 2134 
Q 641 2334 634 2456 
Q 628 2578 590 2651 
Q 553 2725 476 2761 
Q 400 2797 259 2822 
L 259 2988 
L 991 3016 
L 1181 3016 
L 1147 2506 
L 1191 2494 
Q 1422 2728 1564 2828 
Q 1706 2928 1851 2983 
Q 1997 3038 2159 3038 
Q 2328 3038 2461 2998 
Q 2594 2959 2695 2878 
Q 2797 2797 2862 2676 
Q 2928 2556 2961 2387 
Q 2994 2219 2994 1959 
L 2994 781 
Q 2994 566 3006 469 
Q 3019 372 3050 319 
Q 3081 266 3140 230 
Q 3200 194 3347 153 
L 3347 0 
z
" transform="scale(0.015625)"/>
       <path id="Cambria-75" d="M 228 2988 
L 1119 2988 
L 1119 1397 
Q 1119 1031 1147 840 
Q 1175 650 1231 553 
Q 1288 456 1391 390 
Q 1494 325 1675 325 
Q 1794 325 1903 372 
Q 2013 419 2147 536 
Q 2281 653 2339 768 
Q 2397 884 2397 1038 
L 2397 2209 
Q 2397 2388 2387 2478 
Q 2378 2569 2356 2623 
Q 2334 2678 2304 2712 
Q 2275 2747 2220 2775 
Q 2166 2803 2044 2834 
L 2044 2988 
L 2934 2988 
L 2934 853 
Q 2934 613 2943 506 
Q 2953 400 2984 337 
Q 3016 275 3081 236 
Q 3147 197 3316 163 
L 3316 0 
L 2600 -31 
L 2409 -31 
L 2428 481 
L 2381 494 
Q 2122 213 1886 81 
Q 1650 -50 1413 -50 
Q 1128 -50 943 62 
Q 759 175 668 398 
Q 578 622 578 1028 
L 578 2209 
Q 578 2472 558 2570 
Q 538 2669 480 2726 
Q 422 2784 228 2834 
L 228 2988 
z
" transform="scale(0.015625)"/>
       <path id="Cambria-6c" d="M 1138 781 
Q 1138 513 1163 408 
Q 1188 303 1258 248 
Q 1328 194 1488 153 
L 1488 0 
L 247 0 
L 247 153 
Q 403 194 464 237 
Q 525 281 551 342 
Q 578 403 589 508 
Q 600 613 600 781 
L 600 3397 
Q 600 3697 595 3815 
Q 591 3934 570 4017 
Q 550 4100 514 4147 
Q 478 4194 417 4222 
Q 356 4250 197 4278 
L 197 4441 
L 950 4472 
L 1138 4472 
L 1138 781 
z
" transform="scale(0.015625)"/>
       <path id="Cambria-63" d="M 2631 2916 
L 2631 2263 
L 2234 2263 
Q 2181 2466 2103 2583 
Q 2025 2700 1922 2747 
Q 1819 2794 1666 2794 
Q 1447 2794 1278 2653 
Q 1109 2513 1011 2225 
Q 913 1938 913 1522 
Q 913 1256 950 1036 
Q 988 816 1078 659 
Q 1169 503 1319 415 
Q 1469 328 1691 328 
Q 1906 328 2092 412 
Q 2278 497 2478 709 
L 2656 503 
Q 2497 328 2375 233 
Q 2253 138 2114 73 
Q 1975 9 1839 -20 
Q 1703 -50 1544 -50 
Q 953 -50 640 342 
Q 328 734 328 1475 
Q 328 1938 503 2295 
Q 678 2653 993 2847 
Q 1309 3041 1722 3041 
Q 1978 3041 2195 3011 
Q 2413 2981 2631 2916 
z
" transform="scale(0.015625)"/>
       <path id="Cambria-68" d="M 1141 2497 
L 1153 2494 
Q 1397 2741 1539 2839 
Q 1681 2938 1820 2988 
Q 1959 3038 2119 3038 
Q 2291 3038 2425 2997 
Q 2559 2956 2661 2873 
Q 2763 2791 2827 2670 
Q 2891 2550 2922 2383 
Q 2953 2216 2953 1959 
L 2953 781 
Q 2953 509 2976 411 
Q 3000 313 3061 258 
Q 3122 203 3306 153 
L 3306 0 
L 2075 0 
L 2075 153 
Q 2197 191 2250 219 
Q 2303 247 2339 297 
Q 2375 347 2395 451 
Q 2416 556 2416 769 
L 2416 1588 
Q 2416 2003 2373 2223 
Q 2331 2444 2207 2553 
Q 2084 2663 1863 2663 
Q 1738 2663 1638 2619 
Q 1538 2575 1406 2462 
Q 1275 2350 1208 2231 
Q 1141 2113 1141 1978 
L 1141 781 
Q 1141 569 1152 478 
Q 1163 388 1194 327 
Q 1225 266 1289 227 
Q 1353 188 1488 153 
L 1488 0 
L 250 0 
L 250 153 
Q 388 191 447 225 
Q 506 259 539 312 
Q 572 366 587 466 
Q 603 566 603 781 
L 603 3397 
Q 603 3697 598 3815 
Q 594 3934 573 4017 
Q 553 4100 517 4147 
Q 481 4194 420 4222 
Q 359 4250 200 4278 
L 200 4441 
L 953 4472 
L 1141 4472 
L 1141 2497 
z
" transform="scale(0.015625)"/>
      </defs>
      <use xlink:href="#Cambria-41"/>
      <use xlink:href="#Cambria-76" x="58.304688"/>
      <use xlink:href="#Cambria-65" x="108.695312"/>
      <use xlink:href="#Cambria-72" x="157.474609"/>
      <use xlink:href="#Cambria-61" x="198.832031"/>
      <use xlink:href="#Cambria-67" x="247.660156"/>
      <use xlink:href="#Cambria-65" x="297.074219"/>
      <use xlink:href="#Cambria-20" x="345.853516"/>
      <use xlink:href="#Cambria-61" x="367.875"/>
      <use xlink:href="#Cambria-6e" x="416.703125"/>
      <use xlink:href="#Cambria-6e" x="472.513672"/>
      <use xlink:href="#Cambria-75" x="528.324219"/>
      <use xlink:href="#Cambria-61" x="583.548828"/>
      <use xlink:href="#Cambria-6c" x="632.376953"/>
      <use xlink:href="#Cambria-20" x="659.525391"/>
      <use xlink:href="#Cambria-63" x="681.546875"/>
      <use xlink:href="#Cambria-68" x="725.638672"/>
      <use xlink:href="#Cambria-61" x="780.814453"/>
      <use xlink:href="#Cambria-6e" x="829.642578"/>
      <use xlink:href="#Cambria-67" x="885.453125"/>
      <use xlink:href="#Cambria-65" x="934.867188"/>
      <use xlink:href="#Cambria-20" x="983.646484"/>
     </g>
     <!-- (%) -->
     <g style="fill: #262626" transform="translate(207.87625 330.87525)scale(0.16 -0.16)">
      <defs>
       <path id="Cambria-28" d="M 2309 -1359 
Q 1778 -1359 1442 -1200 
Q 1106 -1041 918 -714 
Q 731 -388 647 134 
Q 563 656 563 1550 
Q 563 2438 645 2964 
Q 728 3491 915 3822 
Q 1103 4153 1440 4318 
Q 1778 4484 2309 4484 
L 2309 4228 
Q 2091 4228 1922 4191 
Q 1731 4147 1597 4022 
Q 1447 3884 1353 3638 
Q 1244 3350 1191 2875 
Q 1134 2372 1134 1575 
Q 1134 872 1181 379 
Q 1228 -113 1338 -425 
Q 1425 -688 1556 -834 
Q 1672 -963 1831 -1028 
Q 2016 -1103 2309 -1103 
L 2309 -1359 
z
" transform="scale(0.015625)"/>
       <path id="Cambria-25" d="M 1278 1616 
Q 800 1616 564 1947 
Q 328 2278 328 2944 
Q 328 3406 454 3714 
Q 581 4022 801 4169 
Q 1022 4316 1313 4316 
Q 1584 4316 1768 4219 
Q 1953 4122 2067 3948 
Q 2181 3775 2229 3533 
Q 2278 3291 2278 3000 
Q 2278 2316 2020 1966 
Q 1763 1616 1278 1616 
z
M 791 2997 
Q 791 2391 916 2116 
Q 1041 1841 1313 1841 
Q 1569 1841 1692 2097 
Q 1816 2353 1816 2916 
Q 1816 3516 1692 3803 
Q 1569 4091 1309 4091 
Q 1113 4091 998 3959 
Q 884 3828 837 3589 
Q 791 3350 791 2997 
z
M 4456 4266 
L 1700 -300 
L 1241 -300 
L 4003 4266 
L 4456 4266 
z
M 4366 -350 
Q 3888 -350 3652 -18 
Q 3416 313 3416 978 
Q 3416 1441 3542 1748 
Q 3669 2056 3889 2203 
Q 4109 2350 4400 2350 
Q 4672 2350 4856 2253 
Q 5041 2156 5155 1982 
Q 5269 1809 5317 1567 
Q 5366 1325 5366 1034 
Q 5366 350 5108 0 
Q 4850 -350 4366 -350 
z
M 3878 1031 
Q 3878 425 4003 150 
Q 4128 -125 4400 -125 
Q 4656 -125 4779 131 
Q 4903 388 4903 950 
Q 4903 1550 4779 1837 
Q 4656 2125 4397 2125 
Q 4200 2125 4086 1994 
Q 3972 1863 3925 1623 
Q 3878 1384 3878 1031 
z
" transform="scale(0.015625)"/>
       <path id="Cambria-29" d="M 134 4484 
Q 666 4484 1002 4325 
Q 1338 4166 1525 3839 
Q 1713 3513 1797 2991 
Q 1881 2469 1881 1575 
Q 1881 688 1798 161 
Q 1716 -366 1528 -697 
Q 1341 -1028 1003 -1193 
Q 666 -1359 134 -1359 
L 134 -1103 
Q 353 -1103 522 -1066 
Q 713 -1022 847 -897 
Q 997 -759 1091 -513 
Q 1200 -225 1253 250 
Q 1309 753 1309 1550 
Q 1309 2253 1262 2745 
Q 1216 3238 1106 3550 
Q 1019 3813 888 3959 
Q 772 4088 613 4153 
Q 428 4228 134 4228 
L 134 4484 
z
" transform="scale(0.015625)"/>
      </defs>
      <use xlink:href="#Cambria-28"/>
      <use xlink:href="#Cambria-25" x="38.183594"/>
      <use xlink:href="#Cambria-29" x="127.148438"/>
     </g>
    </g>
   </g>
   <g id="matplotlib.axis_2">
    <g id="ytick_1">
     <g id="line2d_8">
      <path d="M 53.70375 275.6195 
L 388.50375 275.6195 
" clip-path="url(#p21c7ae51b2)" style="fill: none; stroke: #ffffff; stroke-linecap: round"/>
     </g>
     <g id="text_9">
      <!-- 0 -->
      <g style="fill: #262626" transform="translate(35.8975 280.860125)scale(0.15 -0.15)">
       <use xlink:href="#Cambria-30"/>
      </g>
     </g>
    </g>
    <g id="ytick_2">
     <g id="line2d_9">
      <path d="M 53.70375 221.123259 
L 388.50375 221.123259 
" clip-path="url(#p21c7ae51b2)" style="fill: none; stroke: #ffffff; stroke-linecap: round"/>
     </g>
     <g id="text_10">
      <!-- 10 -->
      <g style="fill: #262626" transform="translate(27.59125 226.363884)scale(0.15 -0.15)">
       <defs>
        <path id="Cambria-31" d="M 2172 816 
Q 2172 634 2192 542 
Q 2213 450 2264 392 
Q 2316 334 2412 301 
Q 2509 269 2656 251 
Q 2803 234 3044 228 
L 3044 0 
L 734 0 
L 734 228 
Q 1081 244 1229 270 
Q 1378 297 1456 350 
Q 1534 403 1570 500 
Q 1606 597 1606 816 
L 1606 3350 
Q 1606 3475 1562 3533 
Q 1519 3591 1434 3591 
Q 1334 3591 1150 3487 
Q 966 3384 694 3203 
L 556 3444 
L 2019 4316 
L 2191 4316 
Q 2172 4016 2172 3484 
L 2172 816 
z
" transform="scale(0.015625)"/>
       </defs>
       <use xlink:href="#Cambria-31"/>
       <use xlink:href="#Cambria-30" x="55.371094"/>
      </g>
     </g>
    </g>
    <g id="ytick_3">
     <g id="line2d_10">
      <path d="M 53.70375 166.627019 
L 388.50375 166.627019 
" clip-path="url(#p21c7ae51b2)" style="fill: none; stroke: #ffffff; stroke-linecap: round"/>
     </g>
     <g id="text_11">
      <!-- 20 -->
      <g style="fill: #262626" transform="translate(27.59125 171.867644)scale(0.15 -0.15)">
       <use xlink:href="#Cambria-32"/>
       <use xlink:href="#Cambria-30" x="55.371094"/>
      </g>
     </g>
    </g>
    <g id="ytick_4">
     <g id="line2d_11">
      <path d="M 53.70375 112.130778 
L 388.50375 112.130778 
" clip-path="url(#p21c7ae51b2)" style="fill: none; stroke: #ffffff; stroke-linecap: round"/>
     </g>
     <g id="text_12">
      <!-- 30 -->
      <g style="fill: #262626" transform="translate(27.59125 117.371403)scale(0.15 -0.15)">
       <defs>
        <path id="Cambria-33" d="M 497 3381 
L 497 3975 
Q 859 4147 1175 4231 
Q 1491 4316 1784 4316 
Q 2138 4316 2403 4206 
Q 2669 4097 2809 3892 
Q 2950 3688 2950 3403 
Q 2950 3138 2844 2936 
Q 2738 2734 2545 2584 
Q 2353 2434 2047 2291 
L 2047 2263 
Q 2238 2228 2414 2145 
Q 2591 2063 2728 1931 
Q 2866 1800 2948 1617 
Q 3031 1434 3031 1200 
Q 3031 838 2873 556 
Q 2716 275 2391 112 
Q 2066 -50 1600 -50 
Q 1331 -50 1020 11 
Q 709 72 450 172 
L 450 834 
L 825 834 
Q 934 509 1114 362 
Q 1294 216 1603 216 
Q 2009 216 2217 437 
Q 2425 659 2425 1094 
Q 2425 1550 2150 1790 
Q 1875 2031 1344 2031 
L 1063 2031 
L 1063 2306 
Q 1484 2331 1773 2468 
Q 2063 2606 2203 2822 
Q 2344 3038 2344 3306 
Q 2344 3653 2159 3840 
Q 1975 4028 1622 4028 
Q 1328 4028 1143 3868 
Q 959 3709 872 3381 
L 497 3381 
z
" transform="scale(0.015625)"/>
       </defs>
       <use xlink:href="#Cambria-33"/>
       <use xlink:href="#Cambria-30" x="55.371094"/>
      </g>
     </g>
    </g>
    <g id="text_13">
     <!-- Number of countries -->
     <g style="fill: #262626" transform="translate(20.23125 237.4345)rotate(-90)scale(0.16 -0.16)">
      <defs>
       <path id="Cambria-4e" d="M 2888 1691 
Q 3000 1503 3076 1362 
Q 3153 1222 3234 1047 
L 3275 1047 
Q 3259 1238 3246 1805 
Q 3234 2372 3234 2828 
L 3234 3484 
Q 3234 3700 3221 3800 
Q 3209 3900 3176 3953 
Q 3144 4006 3086 4039 
Q 3028 4072 2884 4113 
L 2884 4266 
L 4009 4266 
L 4009 4113 
Q 3869 4075 3811 4044 
Q 3753 4013 3717 3963 
Q 3681 3913 3662 3813 
Q 3644 3713 3644 3484 
L 3644 -19 
L 3253 -19 
L 1513 2900 
Q 1350 3172 1281 3297 
Q 1213 3422 1153 3544 
L 1100 3544 
Q 1122 3303 1131 2673 
Q 1141 2044 1141 1419 
L 1141 781 
Q 1141 572 1155 475 
Q 1169 378 1201 322 
Q 1234 266 1298 228 
Q 1363 191 1506 153 
L 1506 0 
L 366 0 
L 366 153 
Q 559 203 625 264 
Q 691 325 711 437 
Q 731 550 731 781 
L 731 3484 
Q 731 3700 715 3798 
Q 700 3897 664 3951 
Q 628 4006 568 4039 
Q 509 4072 366 4113 
L 366 4266 
L 1344 4266 
L 2888 1691 
z
" transform="scale(0.015625)"/>
       <path id="Cambria-6d" d="M 1147 2506 
L 1191 2494 
Q 1378 2681 1498 2776 
Q 1619 2872 1731 2930 
Q 1844 2988 1942 3013 
Q 2041 3038 2144 3038 
Q 2456 3038 2653 2894 
Q 2850 2750 2925 2453 
Q 3159 2691 3304 2803 
Q 3450 2916 3601 2977 
Q 3753 3038 3928 3038 
Q 4138 3038 4289 2977 
Q 4441 2916 4545 2789 
Q 4650 2663 4698 2472 
Q 4747 2281 4747 1959 
L 4747 781 
Q 4747 544 4762 453 
Q 4778 363 4808 313 
Q 4838 263 4897 227 
Q 4956 191 5097 153 
L 5097 0 
L 3869 0 
L 3869 153 
Q 3991 191 4044 219 
Q 4097 247 4133 297 
Q 4169 347 4189 451 
Q 4209 556 4209 769 
L 4209 1588 
Q 4209 1853 4195 2026 
Q 4181 2200 4151 2303 
Q 4122 2406 4080 2465 
Q 4038 2525 3984 2569 
Q 3931 2613 3859 2638 
Q 3788 2663 3669 2663 
Q 3544 2663 3436 2613 
Q 3328 2563 3201 2444 
Q 3075 2325 3019 2204 
Q 2963 2084 2963 1922 
L 2963 781 
Q 2963 544 2978 453 
Q 2994 363 3023 313 
Q 3053 263 3112 227 
Q 3172 191 3313 153 
L 3313 0 
L 2084 0 
L 2084 153 
Q 2206 191 2259 219 
Q 2313 247 2348 297 
Q 2384 347 2404 451 
Q 2425 556 2425 769 
L 2425 1588 
Q 2425 1866 2409 2041 
Q 2394 2216 2361 2322 
Q 2328 2428 2276 2493 
Q 2225 2559 2172 2593 
Q 2119 2628 2047 2645 
Q 1975 2663 1884 2663 
Q 1756 2663 1643 2605 
Q 1531 2547 1414 2437 
Q 1297 2328 1237 2209 
Q 1178 2091 1178 1953 
L 1178 781 
Q 1178 603 1187 509 
Q 1197 416 1217 362 
Q 1238 309 1269 276 
Q 1300 244 1358 214 
Q 1416 184 1531 153 
L 1531 0 
L 306 0 
L 306 153 
Q 425 191 476 219 
Q 528 247 565 297 
Q 603 347 622 450 
Q 641 553 641 772 
L 641 2134 
Q 641 2334 634 2456 
Q 628 2578 590 2651 
Q 553 2725 476 2761 
Q 400 2797 259 2822 
L 259 2988 
L 991 3016 
L 1181 3016 
L 1147 2506 
z
" transform="scale(0.015625)"/>
       <path id="Cambria-62" d="M 1091 2497 
L 1103 2494 
Q 1322 2722 1467 2825 
Q 1613 2928 1767 2983 
Q 1922 3038 2106 3038 
Q 2441 3038 2680 2867 
Q 2919 2697 3048 2356 
Q 3178 2016 3178 1522 
Q 3178 1013 3023 661 
Q 2869 309 2567 129 
Q 2266 -50 1853 -50 
Q 1622 -50 1417 -8 
Q 1213 34 988 141 
L 769 -50 
L 553 0 
L 553 3397 
Q 553 3697 548 3815 
Q 544 3934 523 4017 
Q 503 4100 467 4147 
Q 431 4194 370 4222 
Q 309 4250 150 4278 
L 150 4441 
L 906 4472 
L 1091 4472 
L 1091 2497 
z
M 1091 1125 
Q 1091 884 1112 742 
Q 1134 600 1186 506 
Q 1238 413 1336 334 
Q 1434 256 1556 226 
Q 1678 197 1828 197 
Q 2203 197 2397 503 
Q 2591 809 2591 1422 
Q 2591 2041 2414 2352 
Q 2238 2663 1881 2663 
Q 1703 2663 1578 2608 
Q 1453 2553 1329 2437 
Q 1206 2322 1148 2209 
Q 1091 2097 1091 1953 
L 1091 1125 
z
" transform="scale(0.015625)"/>
       <path id="Cambria-6f" d="M 1663 -50 
Q 1013 -50 670 333 
Q 328 716 328 1466 
Q 328 1981 508 2337 
Q 688 2694 1000 2867 
Q 1313 3041 1713 3041 
Q 2381 3041 2725 2652 
Q 3069 2263 3069 1534 
Q 3069 1016 2897 659 
Q 2725 303 2409 126 
Q 2094 -50 1663 -50 
z
M 919 1531 
Q 919 888 1123 542 
Q 1328 197 1709 197 
Q 1919 197 2066 298 
Q 2213 400 2305 572 
Q 2397 744 2437 970 
Q 2478 1197 2478 1444 
Q 2478 1903 2376 2206 
Q 2275 2509 2100 2651 
Q 1925 2794 1700 2794 
Q 1322 2794 1120 2466 
Q 919 2138 919 1531 
z
" transform="scale(0.015625)"/>
       <path id="Cambria-66" d="M 1909 2672 
L 1163 2672 
L 1163 781 
Q 1163 572 1183 465 
Q 1203 359 1242 304 
Q 1281 250 1345 217 
Q 1409 184 1550 153 
L 1550 0 
L 272 0 
L 272 153 
Q 409 191 468 225 
Q 528 259 561 312 
Q 594 366 609 466 
Q 625 566 625 781 
L 625 2672 
L 247 2672 
L 247 2831 
Q 366 2850 405 2861 
Q 444 2872 480 2894 
Q 516 2916 542 2956 
Q 569 2997 589 3076 
Q 609 3156 622 3300 
Q 650 3641 745 3853 
Q 841 4066 1023 4216 
Q 1206 4366 1414 4427 
Q 1622 4488 1903 4488 
Q 2150 4488 2322 4453 
L 2322 3888 
L 2013 3888 
Q 1953 4072 1873 4148 
Q 1794 4225 1650 4225 
Q 1547 4225 1476 4197 
Q 1406 4169 1347 4109 
Q 1288 4050 1245 3950 
Q 1203 3850 1183 3701 
Q 1163 3553 1163 3316 
L 1163 2988 
L 1909 2988 
L 1909 2672 
z
" transform="scale(0.015625)"/>
       <path id="Cambria-74" d="M 116 2831 
Q 272 2856 369 2918 
Q 466 2981 520 3079 
Q 575 3178 606 3326 
Q 638 3475 672 3759 
L 1116 3759 
L 1116 2988 
L 2125 2988 
L 2125 2672 
L 1116 2672 
L 1116 1281 
Q 1116 978 1141 798 
Q 1166 619 1234 517 
Q 1303 416 1390 372 
Q 1478 328 1616 328 
Q 1741 328 1850 379 
Q 1959 431 2066 528 
L 2206 359 
Q 1984 144 1786 47 
Q 1588 -50 1375 -50 
Q 972 -50 775 189 
Q 578 428 578 938 
L 578 2672 
L 116 2672 
L 116 2831 
z
" transform="scale(0.015625)"/>
       <path id="Cambria-69" d="M 1197 4213 
L 1197 3606 
L 622 3606 
L 622 4213 
L 1197 4213 
z
M 303 153 
Q 425 191 476 219 
Q 528 247 564 297 
Q 600 347 620 450 
Q 641 553 641 772 
L 641 2134 
Q 641 2334 634 2456 
Q 628 2578 590 2651 
Q 553 2725 476 2761 
Q 400 2797 259 2822 
L 259 2988 
L 988 3016 
L 1178 3016 
L 1178 781 
Q 1178 513 1203 408 
Q 1228 303 1298 248 
Q 1369 194 1528 153 
L 1528 0 
L 303 0 
L 303 153 
z
" transform="scale(0.015625)"/>
       <path id="Cambria-73" d="M 2397 2303 
L 2097 2303 
Q 2028 2491 1934 2598 
Q 1841 2706 1722 2750 
Q 1603 2794 1431 2794 
Q 1181 2794 1032 2676 
Q 884 2559 884 2356 
Q 884 2213 943 2119 
Q 1003 2025 1128 1944 
Q 1253 1863 1569 1728 
Q 1888 1591 2061 1475 
Q 2234 1359 2332 1206 
Q 2431 1053 2431 841 
Q 2431 594 2347 425 
Q 2263 256 2109 150 
Q 1956 44 1745 -3 
Q 1534 -50 1284 -50 
Q 1022 -50 775 -11 
Q 528 28 294 91 
L 294 744 
L 600 744 
Q 684 456 850 326 
Q 1016 197 1306 197 
Q 1419 197 1526 220 
Q 1634 244 1718 298 
Q 1803 353 1853 447 
Q 1903 541 1903 681 
Q 1903 841 1840 941 
Q 1778 1041 1647 1123 
Q 1516 1206 1184 1347 
Q 900 1466 728 1578 
Q 556 1691 457 1844 
Q 359 1997 359 2206 
Q 359 2463 498 2652 
Q 638 2841 900 2941 
Q 1163 3041 1516 3041 
Q 1722 3041 1914 3020 
Q 2106 3000 2397 2941 
L 2397 2303 
z
" transform="scale(0.015625)"/>
      </defs>
      <use xlink:href="#Cambria-4e"/>
      <use xlink:href="#Cambria-75" x="68.066406"/>
      <use xlink:href="#Cambria-6d" x="123.291016"/>
      <use xlink:href="#Cambria-62" x="206.494141"/>
      <use xlink:href="#Cambria-65" x="261.230469"/>
      <use xlink:href="#Cambria-72" x="310.009766"/>
      <use xlink:href="#Cambria-20" x="351.367188"/>
      <use xlink:href="#Cambria-6f" x="373.388672"/>
      <use xlink:href="#Cambria-66" x="426.464844"/>
      <use xlink:href="#Cambria-20" x="456.738281"/>
      <use xlink:href="#Cambria-63" x="478.759766"/>
      <use xlink:href="#Cambria-6f" x="522.851562"/>
      <use xlink:href="#Cambria-75" x="575.927734"/>
      <use xlink:href="#Cambria-6e" x="631.152344"/>
      <use xlink:href="#Cambria-74" x="686.962891"/>
      <use xlink:href="#Cambria-72" x="720.800781"/>
      <use xlink:href="#Cambria-69" x="762.158203"/>
      <use xlink:href="#Cambria-65" x="789.941406"/>
      <use xlink:href="#Cambria-73" x="838.720703"/>
     </g>
    </g>
   </g>
   <g id="patch_3">
    <path d="M 68.149435 275.6195 
L 85.144359 275.6195 
L 85.144359 275.6195 
L 68.149435 275.6195 
z
" clip-path="url(#p21c7ae51b2)" style="fill: #007626; opacity: 0.75; stroke: #ffffff; stroke-linejoin: miter"/>
   </g>
   <g id="patch_4">
    <path d="M 85.144359 275.6195 
L 102.139283 275.6195 
L 102.139283 270.169876 
L 85.144359 270.169876 
z
" clip-path="url(#p21c7ae51b2)" style="fill: #007626; opacity: 0.75; stroke: #ffffff; stroke-linejoin: miter"/>
   </g>
   <g id="patch_5">
    <path d="M 102.139283 275.6195 
L 119.134207 275.6195 
L 119.134207 259.270628 
L 102.139283 259.270628 
z
" clip-path="url(#p21c7ae51b2)" style="fill: #007626; opacity: 0.75; stroke: #ffffff; stroke-linejoin: miter"/>
   </g>
   <g id="patch_6">
    <path d="M 119.134207 275.6195 
L 136.129131 275.6195 
L 136.129131 253.821004 
L 119.134207 253.821004 
z
" clip-path="url(#p21c7ae51b2)" style="fill: #007626; opacity: 0.75; stroke: #ffffff; stroke-linejoin: miter"/>
   </g>
   <g id="patch_7">
    <path d="M 136.129131 275.6195 
L 153.124055 275.6195 
L 153.124055 226.572883 
L 136.129131 226.572883 
z
" clip-path="url(#p21c7ae51b2)" style="fill: #007626; opacity: 0.75; stroke: #ffffff; stroke-linejoin: miter"/>
   </g>
   <g id="patch_8">
    <path d="M 153.124055 275.6195 
L 170.118978 275.6195 
L 170.118978 221.123259 
L 153.124055 221.123259 
z
" clip-path="url(#p21c7ae51b2)" style="fill: #007626; opacity: 0.75; stroke: #ffffff; stroke-linejoin: miter"/>
   </g>
   <g id="patch_9">
    <path d="M 170.118978 275.6195 
L 187.113902 275.6195 
L 187.113902 172.076643 
L 170.118978 172.076643 
z
" clip-path="url(#p21c7ae51b2)" style="fill: #007626; opacity: 0.75; stroke: #ffffff; stroke-linejoin: miter"/>
   </g>
   <g id="patch_10">
    <path d="M 187.113902 275.6195 
L 204.108826 275.6195 
L 204.108826 128.47965 
L 187.113902 128.47965 
z
" clip-path="url(#p21c7ae51b2)" style="fill: #007626; opacity: 0.75; stroke: #ffffff; stroke-linejoin: miter"/>
   </g>
   <g id="patch_11">
    <path d="M 204.108826 275.6195 
L 221.10375 275.6195 
L 221.10375 101.23153 
L 204.108826 101.23153 
z
" clip-path="url(#p21c7ae51b2)" style="fill: #007626; opacity: 0.75; stroke: #ffffff; stroke-linejoin: miter"/>
   </g>
   <g id="patch_12">
    <path d="M 221.10375 275.6195 
L 238.098674 275.6195 
L 238.098674 68.533786 
L 221.10375 68.533786 
z
" clip-path="url(#p21c7ae51b2)" style="fill: #007626; opacity: 0.75; stroke: #ffffff; stroke-linejoin: miter"/>
   </g>
   <g id="patch_13">
    <path d="M 238.098674 275.6195 
L 255.093598 275.6195 
L 255.093598 182.975891 
L 238.098674 182.975891 
z
" clip-path="url(#p21c7ae51b2)" style="fill: #007626; opacity: 0.75; stroke: #ffffff; stroke-linejoin: miter"/>
   </g>
   <g id="patch_14">
    <path d="M 255.093598 275.6195 
L 272.088522 275.6195 
L 272.088522 237.472132 
L 255.093598 237.472132 
z
" clip-path="url(#p21c7ae51b2)" style="fill: #007626; opacity: 0.75; stroke: #ffffff; stroke-linejoin: miter"/>
   </g>
   <g id="patch_15">
    <path d="M 272.088522 275.6195 
L 289.083445 275.6195 
L 289.083445 242.921756 
L 272.088522 242.921756 
z
" clip-path="url(#p21c7ae51b2)" style="fill: #007626; opacity: 0.75; stroke: #ffffff; stroke-linejoin: miter"/>
   </g>
   <g id="patch_16">
    <path d="M 289.083445 275.6195 
L 306.078369 275.6195 
L 306.078369 264.720252 
L 289.083445 264.720252 
z
" clip-path="url(#p21c7ae51b2)" style="fill: #007626; opacity: 0.75; stroke: #ffffff; stroke-linejoin: miter"/>
   </g>
   <g id="patch_17">
    <path d="M 306.078369 275.6195 
L 323.073293 275.6195 
L 323.073293 270.169876 
L 306.078369 270.169876 
z
" clip-path="url(#p21c7ae51b2)" style="fill: #007626; opacity: 0.75; stroke: #ffffff; stroke-linejoin: miter"/>
   </g>
   <g id="patch_18">
    <path d="M 323.073293 275.6195 
L 340.068217 275.6195 
L 340.068217 270.169876 
L 323.073293 270.169876 
z
" clip-path="url(#p21c7ae51b2)" style="fill: #007626; opacity: 0.75; stroke: #ffffff; stroke-linejoin: miter"/>
   </g>
   <g id="patch_19">
    <path d="M 340.068217 275.6195 
L 357.063141 275.6195 
L 357.063141 275.6195 
L 340.068217 275.6195 
z
" clip-path="url(#p21c7ae51b2)" style="fill: #007626; opacity: 0.75; stroke: #ffffff; stroke-linejoin: miter"/>
   </g>
   <g id="line2d_12">
    <path d="M 221.10375 275.6195 
L 221.10375 58.1795 
" clip-path="url(#p21c7ae51b2)" style="fill: none; stroke: #1a1a1a; stroke-linecap: round"/>
   </g>
   <g id="patch_20">
    <path d="M 53.70375 275.6195 
L 53.70375 58.1795 
" style="fill: none; stroke: #ffffff; stroke-width: 1.25; stroke-linejoin: miter; stroke-linecap: square"/>
   </g>
   <g id="patch_21">
    <path d="M 388.50375 275.6195 
L 388.50375 58.1795 
" style="fill: none; stroke: #ffffff; stroke-width: 1.25; stroke-linejoin: miter; stroke-linecap: square"/>
   </g>
   <g id="patch_22">
    <path d="M 53.70375 275.6195 
L 388.50375 275.6195 
" style="fill: none; stroke: #ffffff; stroke-width: 1.25; stroke-linejoin: miter; stroke-linecap: square"/>
   </g>
   <g id="patch_23">
    <path d="M 53.70375 58.1795 
L 388.50375 58.1795 
" style="fill: none; stroke: #ffffff; stroke-width: 1.25; stroke-linejoin: miter; stroke-linecap: square"/>
   </g>
   <g id="patch_24">
    <path d="M 122.47894 55.489086 
Q 110.017165 55.727912 98.673219 55.945316 
" style="fill: none; stroke: #000000; stroke-linecap: round"/>
    <path d="M 104.729602 58.829798 
L 98.673219 55.945316 
L 104.614634 52.8309 
L 104.729602 58.829798 
z
" style="stroke: #000000; stroke-linecap: round"/>
   </g>
   <g id="text_14">
    <g id="patch_25">
     <path d="M 124.98375 65.3795 
L 221.745469 65.3795 
L 221.745469 43.64825 
L 124.98375 43.64825 
z
" style="fill: #ffffff; opacity: 0.75; stroke: #808080; stroke-linejoin: miter"/>
    </g>
    <!-- 105 countries -->
    <g transform="translate(129.03375 58.1795)scale(0.15 -0.15)">
     <defs>
      <path id="Cambria-35" d="M 469 172 
L 469 834 
L 847 834 
Q 941 516 1130 366 
Q 1319 216 1619 216 
Q 2034 216 2246 466 
Q 2459 716 2459 1213 
Q 2459 1544 2346 1761 
Q 2234 1978 2043 2075 
Q 1853 2172 1600 2172 
Q 1388 2172 1234 2145 
Q 1081 2119 906 2063 
L 656 2209 
L 656 4266 
L 2378 4266 
Q 2484 4266 2531 4283 
Q 2578 4300 2606 4336 
Q 2634 4372 2672 4472 
L 2916 4472 
L 2869 3747 
L 1072 3747 
L 1072 2375 
Q 1234 2444 1425 2478 
Q 1616 2513 1806 2513 
Q 2178 2513 2465 2361 
Q 2753 2209 2909 1929 
Q 3066 1650 3066 1281 
Q 3066 863 2891 563 
Q 2716 263 2384 106 
Q 2053 -50 1600 -50 
Q 1059 -50 469 172 
z
" transform="scale(0.015625)"/>
     </defs>
     <use xlink:href="#Cambria-31"/>
     <use xlink:href="#Cambria-30" x="55.371094"/>
     <use xlink:href="#Cambria-35" x="110.742188"/>
     <use xlink:href="#Cambria-20" x="166.113281"/>
     <use xlink:href="#Cambria-63" x="188.134766"/>
     <use xlink:href="#Cambria-6f" x="232.226562"/>
     <use xlink:href="#Cambria-75" x="285.302734"/>
     <use xlink:href="#Cambria-6e" x="340.527344"/>
     <use xlink:href="#Cambria-74" x="396.337891"/>
     <use xlink:href="#Cambria-72" x="430.175781"/>
     <use xlink:href="#Cambria-69" x="471.533203"/>
     <use xlink:href="#Cambria-65" x="499.316406"/>
     <use xlink:href="#Cambria-73" x="548.095703"/>
    </g>
   </g>
   <g id="patch_26">
    <path d="M 314.705708 55.505 
Q 325.494562 55.733836 335.165633 55.938963 
" style="fill: none; stroke: #000000; stroke-linecap: round"/>
    <path d="M 329.230599 52.812404 
L 335.165633 55.938963 
L 329.103365 58.811055 
L 329.230599 52.812404 
z
" style="stroke: #000000; stroke-linecap: round"/>
   </g>
   <g id="text_15">
    <g id="patch_27">
     <path d="M 223.74975 65.3795 
L 312.205219 65.3795 
L 312.205219 43.64825 
L 223.74975 43.64825 
z
" style="fill: #ffffff; opacity: 0.75; stroke: #808080; stroke-linejoin: miter"/>
    </g>
    <!-- 72 countries -->
    <g transform="translate(227.79975 58.1795)scale(0.15 -0.15)">
     <defs>
      <path id="Cambria-37" d="M 3206 4116 
L 1388 -22 
L 934 -22 
L 934 131 
L 2619 3697 
L 2619 3744 
L 1244 3744 
Q 1116 3744 1039 3720 
Q 963 3697 911 3653 
Q 859 3609 825 3537 
Q 791 3466 731 3253 
L 463 3253 
L 525 4266 
L 3206 4266 
L 3206 4116 
z
" transform="scale(0.015625)"/>
     </defs>
     <use xlink:href="#Cambria-37"/>
     <use xlink:href="#Cambria-32" x="55.371094"/>
     <use xlink:href="#Cambria-20" x="110.742188"/>
     <use xlink:href="#Cambria-63" x="132.763672"/>
     <use xlink:href="#Cambria-6f" x="176.855469"/>
     <use xlink:href="#Cambria-75" x="229.931641"/>
     <use xlink:href="#Cambria-6e" x="285.15625"/>
     <use xlink:href="#Cambria-74" x="340.966797"/>
     <use xlink:href="#Cambria-72" x="374.804688"/>
     <use xlink:href="#Cambria-69" x="416.162109"/>
     <use xlink:href="#Cambria-65" x="443.945312"/>
     <use xlink:href="#Cambria-73" x="492.724609"/>
    </g>
   </g>
   <g id="text_16">
    <g id="patch_28">
     <path d="M 401.19375 239.3315 
L 511.3875 239.3315 
L 511.3875 107.50775 
L 401.19375 107.50775 
z
" style="fill: #ffffff; opacity: 0.75; stroke: #808080; stroke-linejoin: miter"/>
    </g>
    <!-- Data source: -->
    <g transform="translate(405.24375 122.039)scale(0.15 -0.15)">
     <defs>
      <path id="Cambria-44" d="M 375 0 
L 375 153 
Q 519 191 581 225 
Q 644 259 678 312 
Q 713 366 728 466 
Q 744 566 744 781 
L 744 3484 
Q 744 3703 728 3801 
Q 713 3900 677 3953 
Q 641 4006 581 4039 
Q 522 4072 375 4113 
L 375 4266 
L 1744 4266 
Q 2334 4266 2711 4136 
Q 3088 4006 3347 3753 
Q 3606 3500 3734 3123 
Q 3863 2747 3863 2225 
Q 3863 1697 3742 1295 
Q 3622 894 3391 622 
Q 3191 384 2900 231 
Q 2659 106 2343 53 
Q 2028 0 1506 0 
L 375 0 
z
M 1328 291 
Q 1453 278 1697 278 
Q 1959 278 2165 322 
Q 2372 366 2540 459 
Q 2709 553 2843 720 
Q 2978 888 3062 1105 
Q 3147 1322 3186 1587 
Q 3225 1853 3225 2169 
Q 3225 2803 3042 3211 
Q 2859 3619 2526 3806 
Q 2194 3994 1731 3994 
Q 1519 3994 1328 3981 
L 1328 291 
z
" transform="scale(0.015625)"/>
      <path id="Cambria-3a" d="M 1156 2822 
L 1156 2091 
L 531 2091 
L 531 2822 
L 1156 2822 
z
M 1156 725 
L 1156 0 
L 531 0 
L 531 725 
L 1156 725 
z
" transform="scale(0.015625)"/>
     </defs>
     <use xlink:href="#Cambria-44"/>
     <use xlink:href="#Cambria-61" x="66.162109"/>
     <use xlink:href="#Cambria-74" x="114.990234"/>
     <use xlink:href="#Cambria-61" x="148.828125"/>
     <use xlink:href="#Cambria-20" x="197.65625"/>
     <use xlink:href="#Cambria-73" x="219.677734"/>
     <use xlink:href="#Cambria-6f" x="262.646484"/>
     <use xlink:href="#Cambria-75" x="315.722656"/>
     <use xlink:href="#Cambria-72" x="370.947266"/>
     <use xlink:href="#Cambria-63" x="412.304688"/>
     <use xlink:href="#Cambria-65" x="456.396484"/>
     <use xlink:href="#Cambria-3a" x="505.175781"/>
    </g>
    <!--  IPCC AR6 -->
    <g transform="translate(405.24375 137.7665)scale(0.15 -0.15)">
     <defs>
      <path id="Cambria-49" d="M 1331 781 
Q 1331 572 1345 475 
Q 1359 378 1392 322 
Q 1425 266 1489 228 
Q 1553 191 1697 153 
L 1697 0 
L 378 0 
L 378 153 
Q 572 203 637 264 
Q 703 325 723 437 
Q 744 550 744 781 
L 744 3484 
Q 744 3700 728 3798 
Q 713 3897 677 3951 
Q 641 4006 581 4039 
Q 522 4072 378 4113 
L 378 4266 
L 1697 4266 
L 1697 4113 
Q 1559 4078 1498 4043 
Q 1438 4009 1402 3957 
Q 1366 3906 1348 3803 
Q 1331 3700 1331 3484 
L 1331 781 
z
" transform="scale(0.015625)"/>
      <path id="Cambria-50" d="M 1328 791 
Q 1328 606 1348 497 
Q 1369 388 1411 323 
Q 1453 259 1525 223 
Q 1597 188 1750 153 
L 1750 0 
L 378 0 
L 378 153 
Q 572 203 637 264 
Q 703 325 723 437 
Q 744 550 744 781 
L 744 3484 
Q 744 3700 728 3798 
Q 713 3897 677 3951 
Q 641 4006 581 4039 
Q 522 4072 378 4113 
L 378 4266 
L 1928 4266 
Q 2659 4266 3017 3986 
Q 3375 3706 3375 3134 
Q 3375 2809 3262 2550 
Q 3150 2291 2944 2125 
Q 2738 1959 2456 1887 
Q 2175 1816 1866 1816 
Q 1519 1816 1328 1828 
L 1328 791 
z
M 1328 2088 
L 1691 2088 
Q 2044 2088 2273 2180 
Q 2503 2272 2625 2486 
Q 2747 2700 2747 3053 
Q 2747 3322 2675 3501 
Q 2603 3681 2476 3790 
Q 2350 3900 2175 3945 
Q 2000 3991 1794 3991 
Q 1484 3991 1328 3978 
L 1328 2088 
z
" transform="scale(0.015625)"/>
      <path id="Cambria-43" d="M 3256 4175 
L 3256 3309 
L 2947 3309 
Q 2872 3581 2756 3742 
Q 2641 3903 2487 3972 
Q 2334 4041 2119 4041 
Q 1797 4041 1545 3827 
Q 1294 3613 1150 3183 
Q 1006 2753 1006 2144 
Q 1006 1531 1125 1098 
Q 1244 666 1475 445 
Q 1706 225 2044 225 
Q 2300 225 2462 298 
Q 2625 372 2736 531 
Q 2847 691 2947 1000 
L 3256 1000 
L 3256 106 
Q 2963 28 2655 -11 
Q 2347 -50 1978 -50 
Q 1184 -50 778 487 
Q 372 1025 372 2091 
Q 372 2759 583 3262 
Q 794 3766 1203 4041 
Q 1613 4316 2181 4316 
Q 2466 4316 2706 4286 
Q 2947 4256 3256 4175 
z
" transform="scale(0.015625)"/>
      <path id="Cambria-52" d="M 1331 1853 
L 1331 791 
Q 1331 566 1348 464 
Q 1366 363 1400 311 
Q 1434 259 1493 226 
Q 1553 194 1697 153 
L 1697 0 
L 378 0 
L 378 153 
Q 572 203 637 264 
Q 703 325 723 437 
Q 744 550 744 781 
L 744 3484 
Q 744 3700 728 3798 
Q 713 3897 677 3951 
Q 641 4006 581 4039 
Q 522 4072 378 4113 
L 378 4266 
L 1925 4266 
Q 2656 4266 3018 4000 
Q 3381 3734 3381 3175 
Q 3381 2747 3145 2447 
Q 2909 2147 2438 1978 
L 2438 1953 
Q 2628 1875 2764 1729 
Q 2900 1584 3066 1278 
L 3347 766 
Q 3469 541 3556 422 
Q 3644 303 3734 240 
Q 3825 178 3975 153 
L 3975 0 
L 3109 0 
Q 2991 166 2884 356 
Q 2778 547 2675 744 
L 2400 1266 
Q 2275 1503 2195 1615 
Q 2116 1728 2048 1773 
Q 1981 1819 1904 1836 
Q 1828 1853 1675 1853 
L 1331 1853 
z
M 1331 3978 
L 1331 2122 
L 1684 2122 
Q 1956 2122 2125 2161 
Q 2294 2200 2437 2309 
Q 2581 2419 2667 2614 
Q 2753 2809 2753 3094 
Q 2753 3391 2651 3587 
Q 2550 3784 2344 3887 
Q 2138 3991 1788 3991 
Q 1506 3991 1331 3978 
z
" transform="scale(0.015625)"/>
     </defs>
     <use xlink:href="#Cambria-20"/>
     <use xlink:href="#Cambria-49" x="22.021484"/>
     <use xlink:href="#Cambria-50" x="54.443359"/>
     <use xlink:href="#Cambria-43" x="111.230469"/>
     <use xlink:href="#Cambria-43" x="166.855469"/>
     <use xlink:href="#Cambria-20" x="223.105469"/>
     <use xlink:href="#Cambria-41" x="245.126953"/>
     <use xlink:href="#Cambria-52" x="307.431641"/>
     <use xlink:href="#Cambria-36" x="369.541016"/>
    </g>
    <!--  -->
    <g transform="translate(405.24375 153.494)scale(0.15 -0.15)"/>
    <!-- Maximum = 4.0 -->
    <g transform="translate(405.24375 169.2215)scale(0.15 -0.15)">
     <defs>
      <path id="Cambria-4d" d="M 4841 4113 
Q 4703 4078 4642 4043 
Q 4581 4009 4545 3957 
Q 4509 3906 4492 3803 
Q 4475 3700 4475 3484 
L 4475 781 
Q 4475 572 4489 475 
Q 4503 378 4536 322 
Q 4569 266 4633 228 
Q 4697 191 4841 153 
L 4841 0 
L 3538 0 
L 3538 153 
Q 3716 197 3784 253 
Q 3853 309 3878 418 
Q 3903 528 3903 781 
L 3903 1978 
Q 3903 2450 3917 2933 
Q 3931 3416 3950 3594 
L 3897 3594 
L 2659 497 
L 2300 497 
L 1150 3644 
L 1097 3644 
Q 1113 3453 1127 2953 
Q 1141 2453 1141 1925 
L 1141 781 
Q 1141 572 1155 475 
Q 1169 378 1201 322 
Q 1234 266 1298 228 
Q 1363 191 1506 153 
L 1506 0 
L 366 0 
L 366 153 
Q 559 203 625 264 
Q 691 325 711 437 
Q 731 550 731 781 
L 731 3484 
Q 731 3700 715 3798 
Q 700 3897 664 3951 
Q 628 4006 568 4039 
Q 509 4072 366 4113 
L 366 4266 
L 1481 4266 
L 2578 1225 
L 3784 4266 
L 4841 4266 
L 4841 4113 
z
" transform="scale(0.015625)"/>
      <path id="Cambria-78" d="M 1625 1803 
L 2031 2319 
Q 2097 2403 2137 2483 
Q 2178 2563 2178 2647 
Q 2178 2719 2125 2766 
Q 2072 2813 1959 2834 
L 1959 2988 
L 2981 2988 
L 2981 2834 
Q 2863 2800 2739 2700 
Q 2616 2600 2438 2378 
L 1791 1584 
L 2503 625 
Q 2656 419 2778 309 
Q 2900 200 3022 153 
L 3022 0 
L 1766 0 
L 1766 153 
Q 2025 184 2025 347 
Q 2025 413 2003 472 
Q 1981 531 1922 609 
L 1469 1241 
L 988 616 
Q 934 547 904 489 
Q 875 431 875 359 
Q 875 275 933 220 
Q 991 166 1116 153 
L 1116 0 
L 72 0 
L 72 153 
Q 175 191 258 247 
Q 341 303 427 392 
Q 513 481 653 653 
L 1303 1459 
L 638 2372 
Q 500 2559 419 2643 
Q 338 2728 269 2772 
Q 200 2816 131 2834 
L 131 2988 
L 1356 2988 
L 1356 2834 
Q 1109 2797 1109 2641 
Q 1109 2569 1142 2497 
Q 1175 2425 1244 2338 
L 1625 1803 
z
" transform="scale(0.015625)"/>
      <path id="Cambria-3d" d="M 388 2259 
L 388 2694 
L 3156 2694 
L 3156 2259 
L 388 2259 
z
M 388 963 
L 388 1397 
L 3156 1397 
L 3156 963 
L 388 963 
z
" transform="scale(0.015625)"/>
      <path id="Cambria-2e" d="M 972 725 
L 972 0 
L 341 0 
L 341 725 
L 972 725 
z
" transform="scale(0.015625)"/>
     </defs>
     <use xlink:href="#Cambria-4d"/>
     <use xlink:href="#Cambria-61" x="81.542969"/>
     <use xlink:href="#Cambria-78" x="130.371094"/>
     <use xlink:href="#Cambria-69" x="178.710938"/>
     <use xlink:href="#Cambria-6d" x="206.494141"/>
     <use xlink:href="#Cambria-75" x="289.697266"/>
     <use xlink:href="#Cambria-6d" x="344.921875"/>
     <use xlink:href="#Cambria-20" x="428.125"/>
     <use xlink:href="#Cambria-3d" x="450.146484"/>
     <use xlink:href="#Cambria-20" x="505.517578"/>
     <use xlink:href="#Cambria-34" x="527.539062"/>
     <use xlink:href="#Cambria-2e" x="582.910156"/>
     <use xlink:href="#Cambria-30" x="603.417969"/>
    </g>
    <!-- Minimum = -4.8 -->
    <g transform="translate(405.24375 184.949)scale(0.15 -0.15)">
     <defs>
      <path id="Cambria-2d" d="M 1788 1403 
L 338 1403 
L 338 1888 
L 1788 1888 
L 1788 1403 
z
" transform="scale(0.015625)"/>
      <path id="Cambria-38" d="M 2475 2253 
L 2481 2213 
Q 2834 2075 3015 1811 
Q 3197 1547 3197 1175 
Q 3197 809 3022 531 
Q 2847 253 2514 101 
Q 2181 -50 1738 -50 
Q 1322 -50 1008 89 
Q 694 228 520 495 
Q 347 763 347 1125 
Q 347 1397 440 1597 
Q 534 1797 686 1926 
Q 838 2056 1069 2163 
L 1063 2203 
Q 391 2494 391 3200 
Q 391 3522 567 3775 
Q 744 4028 1070 4172 
Q 1397 4316 1794 4316 
Q 2244 4316 2550 4189 
Q 2856 4063 3011 3823 
Q 3166 3584 3166 3250 
Q 3166 2906 2997 2657 
Q 2828 2409 2475 2253 
z
M 978 3228 
Q 978 3044 1022 2881 
Q 1066 2719 1162 2600 
Q 1259 2481 1414 2411 
Q 1569 2341 1794 2341 
Q 2053 2341 2229 2442 
Q 2406 2544 2492 2739 
Q 2578 2934 2578 3191 
Q 2578 3472 2476 3667 
Q 2375 3863 2197 3956 
Q 2019 4050 1788 4050 
Q 1394 4050 1186 3836 
Q 978 3622 978 3228 
z
M 944 1178 
Q 944 975 991 798 
Q 1038 622 1139 494 
Q 1241 366 1400 291 
Q 1559 216 1788 216 
Q 2044 216 2226 320 
Q 2409 425 2504 631 
Q 2600 838 2600 1119 
Q 2600 1419 2497 1636 
Q 2394 1853 2206 1967 
Q 2019 2081 1772 2081 
Q 1541 2081 1383 2009 
Q 1225 1938 1126 1816 
Q 1028 1694 986 1530 
Q 944 1366 944 1178 
z
" transform="scale(0.015625)"/>
     </defs>
     <use xlink:href="#Cambria-4d"/>
     <use xlink:href="#Cambria-69" x="81.542969"/>
     <use xlink:href="#Cambria-6e" x="109.326172"/>
     <use xlink:href="#Cambria-69" x="165.136719"/>
     <use xlink:href="#Cambria-6d" x="192.919922"/>
     <use xlink:href="#Cambria-75" x="276.123047"/>
     <use xlink:href="#Cambria-6d" x="331.347656"/>
     <use xlink:href="#Cambria-20" x="414.550781"/>
     <use xlink:href="#Cambria-3d" x="436.572266"/>
     <use xlink:href="#Cambria-20" x="491.943359"/>
     <use xlink:href="#Cambria-2d" x="513.964844"/>
     <use xlink:href="#Cambria-34" x="547.167969"/>
     <use xlink:href="#Cambria-2e" x="602.539062"/>
     <use xlink:href="#Cambria-38" x="623.046875"/>
    </g>
    <!-- Mean = -0.44 -->
    <g transform="translate(405.24375 200.6765)scale(0.15 -0.15)">
     <use xlink:href="#Cambria-4d"/>
     <use xlink:href="#Cambria-65" x="81.542969"/>
     <use xlink:href="#Cambria-61" x="130.322266"/>
     <use xlink:href="#Cambria-6e" x="179.150391"/>
     <use xlink:href="#Cambria-20" x="234.960938"/>
     <use xlink:href="#Cambria-3d" x="256.982422"/>
     <use xlink:href="#Cambria-20" x="312.353516"/>
     <use xlink:href="#Cambria-2d" x="334.375"/>
     <use xlink:href="#Cambria-30" x="367.578125"/>
     <use xlink:href="#Cambria-2e" x="422.949219"/>
     <use xlink:href="#Cambria-34" x="443.457031"/>
     <use xlink:href="#Cambria-34" x="498.828125"/>
    </g>
    <!-- Median = -0.33 -->
    <g transform="translate(405.24375 216.404)scale(0.15 -0.15)">
     <defs>
      <path id="Cambria-64" d="M 2413 3397 
Q 2413 3697 2408 3815 
Q 2403 3934 2383 4017 
Q 2363 4100 2327 4147 
Q 2291 4194 2230 4222 
Q 2169 4250 2009 4278 
L 2009 4441 
L 2766 4472 
L 2950 4472 
L 2950 853 
Q 2950 609 2959 504 
Q 2969 400 3000 337 
Q 3031 275 3098 236 
Q 3166 197 3334 163 
L 3334 0 
L 2597 -31 
L 2409 -31 
L 2447 481 
L 2400 494 
Q 2203 284 2058 179 
Q 1913 75 1748 12 
Q 1584 -50 1397 -50 
Q 884 -50 606 339 
Q 328 728 328 1463 
Q 328 1975 509 2333 
Q 691 2691 998 2866 
Q 1306 3041 1691 3041 
Q 1897 3041 2065 3008 
Q 2234 2975 2413 2900 
L 2413 3397 
z
M 2413 1853 
Q 2413 2097 2391 2244 
Q 2369 2391 2317 2491 
Q 2266 2591 2178 2659 
Q 2091 2728 1986 2759 
Q 1881 2791 1734 2791 
Q 1334 2791 1125 2470 
Q 916 2150 916 1550 
Q 916 950 1087 637 
Q 1259 325 1609 325 
Q 1747 325 1837 348 
Q 1928 372 2015 423 
Q 2103 475 2193 565 
Q 2284 656 2326 731 
Q 2369 806 2391 903 
Q 2413 1000 2413 1153 
L 2413 1853 
z
" transform="scale(0.015625)"/>
     </defs>
     <use xlink:href="#Cambria-4d"/>
     <use xlink:href="#Cambria-65" x="81.542969"/>
     <use xlink:href="#Cambria-64" x="130.322266"/>
     <use xlink:href="#Cambria-69" x="185.791016"/>
     <use xlink:href="#Cambria-61" x="213.574219"/>
     <use xlink:href="#Cambria-6e" x="262.402344"/>
     <use xlink:href="#Cambria-20" x="318.212891"/>
     <use xlink:href="#Cambria-3d" x="340.234375"/>
     <use xlink:href="#Cambria-20" x="395.605469"/>
     <use xlink:href="#Cambria-2d" x="417.626953"/>
     <use xlink:href="#Cambria-30" x="450.830078"/>
     <use xlink:href="#Cambria-2e" x="506.201172"/>
     <use xlink:href="#Cambria-33" x="526.708984"/>
     <use xlink:href="#Cambria-33" x="582.080078"/>
    </g>
    <!-- Countries = 177 -->
    <g transform="translate(405.24375 232.1315)scale(0.15 -0.15)">
     <use xlink:href="#Cambria-43"/>
     <use xlink:href="#Cambria-6f" x="56.25"/>
     <use xlink:href="#Cambria-75" x="109.326172"/>
     <use xlink:href="#Cambria-6e" x="164.550781"/>
     <use xlink:href="#Cambria-74" x="220.361328"/>
     <use xlink:href="#Cambria-72" x="254.199219"/>
     <use xlink:href="#Cambria-69" x="295.556641"/>
     <use xlink:href="#Cambria-65" x="323.339844"/>
     <use xlink:href="#Cambria-73" x="372.119141"/>
     <use xlink:href="#Cambria-20" x="415.087891"/>
     <use xlink:href="#Cambria-3d" x="437.109375"/>
     <use xlink:href="#Cambria-20" x="492.480469"/>
     <use xlink:href="#Cambria-31" x="514.501953"/>
     <use xlink:href="#Cambria-37" x="569.873047"/>
     <use xlink:href="#Cambria-37" x="625.244141"/>
    </g>
   </g>
   <g id="text_17">
    <!--   8 outliers not shown -->
    <g transform="translate(395.19975 253.8755)scale(0.13 -0.13)">
     <defs>
      <path id="Cambria-77" d="M 2494 2334 
L 1675 -16 
L 1241 -16 
L 491 2303 
Q 419 2528 370 2620 
Q 322 2713 267 2758 
Q 213 2803 91 2834 
L 91 2988 
L 1325 2988 
L 1325 2834 
Q 1144 2797 1080 2736 
Q 1016 2675 1016 2553 
Q 1016 2469 1034 2376 
Q 1053 2284 1091 2163 
L 1581 569 
L 2384 2988 
L 2825 2988 
L 3506 569 
L 4056 2097 
Q 4100 2216 4128 2323 
Q 4156 2431 4156 2525 
Q 4156 2656 4086 2728 
Q 4016 2800 3847 2834 
L 3847 2988 
L 4938 2988 
L 4938 2834 
Q 4850 2813 4806 2789 
Q 4763 2766 4720 2720 
Q 4678 2675 4626 2579 
Q 4575 2484 4497 2284 
L 3594 -16 
L 3172 -16 
L 2494 2334 
z
" transform="scale(0.015625)"/>
     </defs>
     <use xlink:href="#Cambria-20"/>
     <use xlink:href="#Cambria-20" x="22.021484"/>
     <use xlink:href="#Cambria-38" x="44.042969"/>
     <use xlink:href="#Cambria-20" x="99.414062"/>
     <use xlink:href="#Cambria-6f" x="121.435547"/>
     <use xlink:href="#Cambria-75" x="174.511719"/>
     <use xlink:href="#Cambria-74" x="229.736328"/>
     <use xlink:href="#Cambria-6c" x="263.574219"/>
     <use xlink:href="#Cambria-69" x="290.722656"/>
     <use xlink:href="#Cambria-65" x="318.505859"/>
     <use xlink:href="#Cambria-72" x="367.285156"/>
     <use xlink:href="#Cambria-73" x="408.642578"/>
     <use xlink:href="#Cambria-20" x="451.611328"/>
     <use xlink:href="#Cambria-6e" x="473.632812"/>
     <use xlink:href="#Cambria-6f" x="529.443359"/>
     <use xlink:href="#Cambria-74" x="582.519531"/>
     <use xlink:href="#Cambria-20" x="616.357422"/>
     <use xlink:href="#Cambria-73" x="638.378906"/>
     <use xlink:href="#Cambria-68" x="681.347656"/>
     <use xlink:href="#Cambria-6f" x="736.523438"/>
     <use xlink:href="#Cambria-77" x="789.599609"/>
     <use xlink:href="#Cambria-6e" x="867.041016"/>
    </g>
   </g>
   <g id="text_18">
    <!-- 5-year trend in -->
    <g style="fill: #262626" transform="translate(165.87125 18.3875)scale(0.16 -0.16)">
     <defs>
      <path id="Cambria-Bold-35" d="M 491 194 
L 491 975 
L 1056 975 
Q 1134 634 1306 467 
Q 1478 300 1750 300 
Q 2091 300 2253 511 
Q 2416 722 2416 1163 
Q 2416 1597 2206 1825 
Q 1997 2053 1600 2053 
Q 1447 2053 1270 2025 
Q 1094 1997 956 1956 
L 675 2131 
L 675 4266 
L 2522 4266 
Q 2638 4266 2691 4281 
Q 2744 4297 2778 4334 
Q 2813 4372 2853 4472 
L 3197 4472 
L 3134 3475 
L 1216 3475 
L 1216 2350 
Q 1403 2406 1598 2432 
Q 1794 2459 2078 2459 
Q 2466 2459 2758 2315 
Q 3050 2172 3211 1898 
Q 3372 1625 3372 1256 
Q 3372 825 3178 533 
Q 2984 241 2618 95 
Q 2253 -50 1744 -50 
Q 1416 -50 1075 15 
Q 734 81 491 194 
z
" transform="scale(0.015625)"/>
      <path id="Cambria-Bold-2d" d="M 1819 1378 
L 338 1378 
L 338 2034 
L 1819 2034 
L 1819 1378 
z
" transform="scale(0.015625)"/>
      <path id="Cambria-Bold-79" d="M 1844 -141 
Q 1641 -594 1461 -851 
Q 1281 -1109 1073 -1237 
Q 866 -1366 556 -1366 
Q 322 -1366 119 -1306 
L 119 -591 
L 469 -591 
Q 509 -738 570 -792 
Q 631 -847 741 -847 
Q 859 -847 954 -781 
Q 1050 -716 1170 -536 
Q 1291 -356 1466 0 
L 1288 0 
L 472 2347 
Q 384 2594 332 2686 
Q 281 2778 217 2826 
Q 153 2875 59 2894 
L 59 3100 
L 1619 3100 
L 1619 2894 
Q 1472 2866 1403 2809 
Q 1334 2753 1334 2641 
Q 1334 2491 1416 2250 
L 1866 884 
L 2363 2081 
Q 2425 2231 2456 2345 
Q 2488 2459 2488 2569 
Q 2488 2700 2413 2786 
Q 2338 2872 2200 2894 
L 2200 3100 
L 3416 3100 
L 3416 2891 
Q 3325 2863 3270 2822 
Q 3216 2781 3167 2715 
Q 3119 2650 3050 2520 
Q 2981 2391 2863 2128 
L 1844 -141 
z
" transform="scale(0.015625)"/>
      <path id="Cambria-Bold-65" d="M 3097 569 
Q 2778 231 2465 90 
Q 2153 -50 1747 -50 
Q 1019 -50 651 348 
Q 284 747 284 1531 
Q 284 2038 473 2405 
Q 663 2772 1009 2961 
Q 1356 3150 1816 3150 
Q 2100 3150 2314 3084 
Q 2528 3019 2681 2901 
Q 2834 2784 2934 2619 
Q 3053 2422 3113 2169 
Q 3175 1909 3178 1541 
L 1197 1541 
Q 1200 975 1398 708 
Q 1597 441 2003 441 
Q 2241 441 2431 530 
Q 2622 619 2844 844 
L 3097 569 
z
M 2253 1878 
Q 2241 2356 2128 2590 
Q 2016 2825 1766 2825 
Q 1525 2825 1383 2581 
Q 1241 2338 1213 1878 
L 2253 1878 
z
" transform="scale(0.015625)"/>
      <path id="Cambria-Bold-61" d="M 2116 409 
L 2069 425 
Q 1813 175 1570 62 
Q 1328 -50 1056 -50 
Q 788 -50 589 48 
Q 391 147 289 322 
Q 188 497 188 725 
Q 188 1184 639 1448 
Q 1091 1713 2009 1781 
L 2009 2078 
Q 2009 2369 1943 2526 
Q 1878 2684 1775 2748 
Q 1672 2813 1528 2813 
Q 1384 2813 1279 2763 
Q 1175 2713 1090 2573 
Q 1006 2434 966 2188 
L 375 2188 
L 375 2756 
Q 663 2884 853 2953 
Q 1044 3022 1230 3067 
Q 1416 3113 1562 3131 
Q 1709 3150 1856 3150 
Q 2234 3150 2461 3050 
Q 2688 2950 2800 2725 
Q 2913 2500 2913 2103 
L 2913 884 
Q 2913 678 2922 565 
Q 2931 453 2951 398 
Q 2972 344 3003 311 
Q 3034 278 3079 258 
Q 3125 238 3250 206 
L 3250 0 
L 2088 0 
L 2116 409 
z
M 2013 1475 
Q 1528 1463 1295 1294 
Q 1063 1125 1063 800 
Q 1063 606 1169 504 
Q 1275 403 1463 403 
Q 1606 403 1734 479 
Q 1863 556 1938 684 
Q 2013 813 2013 956 
L 2013 1475 
z
" transform="scale(0.015625)"/>
      <path id="Cambria-Bold-72" d="M 1434 2653 
L 1475 2644 
Q 1703 2913 1943 3031 
Q 2184 3150 2466 3150 
Q 2656 3150 2866 3109 
L 2866 2247 
L 2300 2247 
Q 2247 2428 2161 2525 
Q 2075 2622 1931 2622 
Q 1863 2622 1780 2580 
Q 1697 2538 1626 2461 
Q 1556 2384 1526 2304 
Q 1497 2225 1487 2144 
Q 1478 2063 1478 1900 
L 1478 903 
Q 1478 606 1500 487 
Q 1522 369 1587 301 
Q 1653 234 1809 206 
L 1809 0 
L 269 0 
L 269 206 
Q 419 247 476 312 
Q 534 378 554 490 
Q 575 603 575 900 
L 575 2184 
Q 575 2416 567 2527 
Q 559 2638 529 2705 
Q 500 2772 439 2814 
Q 378 2856 228 2888 
L 228 3100 
L 1084 3125 
L 1478 3125 
L 1434 2653 
z
" transform="scale(0.015625)"/>
      <path id="Cambria-Bold-20" transform="scale(0.015625)"/>
      <path id="Cambria-Bold-74" d="M 2406 375 
Q 2131 141 1906 45 
Q 1681 -50 1431 -50 
Q 966 -50 736 201 
Q 506 453 506 963 
L 506 2709 
L 116 2709 
L 116 2925 
Q 306 2956 397 3018 
Q 488 3081 538 3186 
Q 588 3291 617 3459 
Q 647 3628 663 3881 
L 1409 3881 
L 1409 3100 
L 2300 3100 
L 2300 2709 
L 1409 2709 
L 1409 1300 
Q 1409 947 1442 778 
Q 1475 609 1553 529 
Q 1631 450 1747 450 
Q 1834 450 1903 465 
Q 1972 481 2048 522 
Q 2125 563 2209 638 
L 2406 375 
z
" transform="scale(0.015625)"/>
      <path id="Cambria-Bold-6e" d="M 3666 0 
L 2150 0 
L 2150 206 
Q 2294 241 2350 308 
Q 2406 375 2426 489 
Q 2447 603 2447 900 
L 2447 1734 
Q 2447 1956 2437 2098 
Q 2428 2241 2408 2331 
Q 2388 2422 2352 2483 
Q 2316 2544 2272 2583 
Q 2228 2622 2172 2640 
Q 2116 2659 2028 2659 
Q 1909 2659 1781 2586 
Q 1653 2513 1565 2383 
Q 1478 2253 1478 2106 
L 1478 903 
Q 1478 606 1497 490 
Q 1516 375 1573 308 
Q 1631 241 1778 206 
L 1778 0 
L 269 0 
L 269 206 
Q 419 247 476 312 
Q 534 378 554 490 
Q 575 603 575 900 
L 575 2184 
Q 575 2416 567 2527 
Q 559 2638 529 2705 
Q 500 2772 439 2814 
Q 378 2856 228 2888 
L 228 3100 
L 1084 3125 
L 1478 3125 
L 1431 2675 
L 1469 2666 
Q 1663 2838 1809 2936 
Q 1956 3034 2117 3092 
Q 2278 3150 2456 3150 
Q 2713 3150 2881 3076 
Q 3050 3003 3154 2862 
Q 3259 2722 3304 2519 
Q 3350 2316 3350 2047 
L 3350 903 
Q 3350 766 3354 645 
Q 3359 525 3378 453 
Q 3397 381 3430 336 
Q 3463 291 3522 259 
Q 3581 228 3666 206 
L 3666 0 
z
" transform="scale(0.015625)"/>
      <path id="Cambria-Bold-64" d="M 3288 913 
Q 3288 675 3295 565 
Q 3303 456 3331 390 
Q 3359 325 3421 283 
Q 3484 241 3631 209 
L 3631 0 
L 2781 -28 
L 2403 -28 
L 2431 422 
L 2384 425 
Q 2159 197 1911 73 
Q 1663 -50 1434 -50 
Q 866 -50 583 340 
Q 300 731 300 1516 
Q 300 2047 472 2411 
Q 644 2775 983 2962 
Q 1322 3150 1800 3150 
Q 1938 3150 2070 3133 
Q 2203 3116 2384 3066 
L 2384 3350 
Q 2384 3684 2375 3823 
Q 2366 3963 2336 4036 
Q 2306 4109 2247 4150 
Q 2188 4191 2031 4222 
L 2031 4431 
L 2897 4475 
L 3288 4475 
L 3288 913 
z
M 2384 2075 
Q 2384 2456 2256 2640 
Q 2128 2825 1863 2825 
Q 1669 2825 1530 2686 
Q 1391 2547 1320 2284 
Q 1250 2022 1250 1663 
Q 1250 1047 1384 744 
Q 1519 441 1803 441 
Q 1938 441 2070 508 
Q 2203 575 2293 714 
Q 2384 853 2384 1034 
L 2384 2075 
z
" transform="scale(0.015625)"/>
      <path id="Cambria-Bold-69" d="M 1453 4347 
L 1453 3581 
L 597 3581 
L 597 4347 
L 1453 4347 
z
M 266 206 
Q 419 247 476 312 
Q 534 378 554 490 
Q 575 603 575 900 
L 575 2353 
Q 575 2506 561 2600 
Q 547 2694 508 2750 
Q 469 2806 401 2836 
Q 334 2866 228 2888 
L 228 3100 
L 1088 3125 
L 1478 3125 
L 1478 903 
Q 1478 728 1483 633 
Q 1488 538 1497 486 
Q 1506 434 1523 393 
Q 1541 353 1569 318 
Q 1597 284 1650 256 
Q 1703 228 1791 206 
L 1791 0 
L 266 0 
L 266 206 
z
" transform="scale(0.015625)"/>
     </defs>
     <use xlink:href="#Cambria-Bold-35"/>
     <use xlink:href="#Cambria-Bold-2d" x="59.228516"/>
     <use xlink:href="#Cambria-Bold-79" x="92.919922"/>
     <use xlink:href="#Cambria-Bold-65" x="145.996094"/>
     <use xlink:href="#Cambria-Bold-61" x="199.072266"/>
     <use xlink:href="#Cambria-Bold-72" x="252.587891"/>
     <use xlink:href="#Cambria-Bold-20" x="298.730469"/>
     <use xlink:href="#Cambria-Bold-74" x="320.751953"/>
     <use xlink:href="#Cambria-Bold-72" x="357.275391"/>
     <use xlink:href="#Cambria-Bold-65" x="403.417969"/>
     <use xlink:href="#Cambria-Bold-6e" x="456.494141"/>
     <use xlink:href="#Cambria-Bold-64" x="516.845703"/>
     <use xlink:href="#Cambria-Bold-20" x="576.5625"/>
     <use xlink:href="#Cambria-Bold-69" x="598.583984"/>
     <use xlink:href="#Cambria-Bold-6e" x="630.029297"/>
    </g>
    <!-- total CH₄ emissions (excluding LULUCF) per capita in 2019 -->
    <g style="fill: #262626" transform="translate(7.2 35.2545)scale(0.16 -0.16)">
     <defs>
      <path id="Cambria-Bold-6f" d="M 1784 -50 
Q 1325 -50 992 111 
Q 659 272 471 626 
Q 284 981 284 1528 
Q 284 1947 400 2253 
Q 516 2559 722 2759 
Q 928 2959 1214 3054 
Q 1500 3150 1834 3150 
Q 2591 3150 2975 2751 
Q 3359 2353 3359 1584 
Q 3359 1041 3168 673 
Q 2978 306 2625 128 
Q 2272 -50 1784 -50 
z
M 1234 1597 
Q 1234 934 1382 604 
Q 1531 275 1831 275 
Q 1997 275 2108 359 
Q 2219 444 2286 603 
Q 2353 763 2381 986 
Q 2409 1209 2409 1488 
Q 2409 2159 2261 2492 
Q 2113 2825 1822 2825 
Q 1609 2825 1481 2690 
Q 1353 2556 1293 2287 
Q 1234 2019 1234 1597 
z
" transform="scale(0.015625)"/>
      <path id="Cambria-Bold-6c" d="M 1438 903 
Q 1438 606 1456 493 
Q 1475 381 1533 314 
Q 1591 247 1750 206 
L 1750 0 
L 219 0 
L 219 206 
Q 313 228 366 258 
Q 419 288 448 327 
Q 478 366 500 427 
Q 522 488 528 595 
Q 534 703 534 903 
L 534 3341 
Q 534 3609 529 3736 
Q 525 3863 511 3948 
Q 497 4034 464 4086 
Q 431 4138 372 4169 
Q 313 4200 181 4225 
L 181 4431 
L 1047 4475 
L 1438 4475 
L 1438 903 
z
" transform="scale(0.015625)"/>
      <path id="Cambria-Bold-43" d="M 3403 4169 
L 3403 3263 
L 2978 3263 
Q 2903 3616 2740 3783 
Q 2578 3950 2316 3950 
Q 1822 3950 1569 3476 
Q 1316 3003 1316 2072 
Q 1316 1206 1547 761 
Q 1778 316 2225 316 
Q 2453 316 2597 392 
Q 2741 469 2827 622 
Q 2913 775 2975 1053 
L 3403 1053 
L 3403 106 
Q 3059 25 2775 -12 
Q 2491 -50 2184 -50 
Q 1534 -50 1123 184 
Q 713 419 517 892 
Q 322 1366 322 2091 
Q 322 2769 551 3270 
Q 781 3772 1228 4044 
Q 1675 4316 2297 4316 
Q 2613 4316 2869 4281 
Q 3125 4247 3403 4169 
z
" transform="scale(0.015625)"/>
      <path id="Cambria-Bold-48" d="M 3984 784 
Q 3984 544 4004 455 
Q 4025 366 4087 306 
Q 4150 247 4316 206 
L 4316 0 
L 2684 0 
L 2684 206 
Q 2866 253 2919 300 
Q 2972 347 2994 433 
Q 3016 519 3016 784 
L 3016 2038 
L 1603 2038 
L 1603 784 
Q 1603 675 1609 581 
Q 1616 488 1634 428 
Q 1653 369 1689 328 
Q 1725 288 1787 258 
Q 1850 228 1941 206 
L 1941 0 
L 300 0 
L 300 206 
Q 416 238 483 273 
Q 550 309 583 373 
Q 616 438 625 536 
Q 634 634 634 784 
L 634 3478 
Q 634 3625 626 3725 
Q 619 3825 586 3887 
Q 553 3950 486 3989 
Q 419 4028 300 4059 
L 300 4266 
L 1941 4266 
L 1941 4059 
Q 1775 4013 1714 3956 
Q 1653 3900 1628 3808 
Q 1603 3716 1603 3475 
L 1603 2431 
L 3016 2431 
L 3016 3475 
Q 3016 3713 2995 3805 
Q 2975 3897 2914 3955 
Q 2853 4013 2684 4059 
L 2684 4266 
L 4316 4266 
L 4316 4059 
Q 4178 4022 4115 3980 
Q 4053 3938 4026 3872 
Q 4000 3806 3992 3725 
Q 3984 3644 3984 3475 
L 3984 784 
z
" transform="scale(0.015625)"/>
      <path id="Cambria-Bold-2084" d="M 1109 -739 
Q 1228 -714 1270 -682 
Q 1313 -651 1328 -602 
Q 1344 -554 1344 -429 
L 1344 -195 
L 219 -195 
L 219 52 
L 1491 1702 
L 2019 1702 
L 2019 102 
L 2047 102 
Q 2150 102 2192 114 
Q 2234 127 2264 163 
Q 2294 199 2322 283 
L 2584 283 
L 2550 -195 
L 2019 -195 
L 2019 -429 
Q 2019 -554 2037 -605 
Q 2056 -657 2097 -685 
Q 2138 -714 2253 -739 
L 2253 -929 
L 1109 -929 
L 1109 -739 
z
M 1344 486 
Q 1344 746 1363 1011 
L 1331 1011 
L 694 133 
L 694 102 
L 1344 102 
L 1344 486 
z
" transform="scale(0.015625)"/>
      <path id="Cambria-Bold-6d" d="M 1431 2675 
L 1469 2666 
Q 1753 2931 1981 3040 
Q 2209 3150 2447 3150 
Q 2678 3150 2831 3090 
Q 2984 3031 3090 2917 
Q 3197 2803 3263 2619 
Q 3578 2913 3811 3031 
Q 4044 3150 4297 3150 
Q 4547 3150 4711 3084 
Q 4875 3019 4981 2881 
Q 5088 2744 5136 2537 
Q 5184 2331 5184 2044 
L 5184 903 
Q 5184 766 5189 645 
Q 5194 525 5212 453 
Q 5231 381 5264 336 
Q 5297 291 5356 259 
Q 5416 228 5500 206 
L 5500 0 
L 3994 0 
L 3994 206 
Q 4134 241 4187 306 
Q 4241 372 4261 487 
Q 4281 603 4281 900 
L 4281 1738 
Q 4281 2019 4262 2195 
Q 4244 2372 4191 2472 
Q 4138 2572 4064 2615 
Q 3991 2659 3872 2659 
Q 3791 2659 3722 2634 
Q 3653 2609 3583 2557 
Q 3513 2506 3463 2453 
Q 3413 2400 3383 2334 
Q 3353 2269 3342 2187 
Q 3331 2106 3331 1922 
L 3331 903 
Q 3331 691 3339 578 
Q 3347 466 3372 397 
Q 3397 328 3451 283 
Q 3506 238 3622 206 
L 3622 0 
L 2134 0 
L 2134 206 
Q 2278 241 2333 306 
Q 2388 372 2406 486 
Q 2425 600 2425 900 
L 2425 1738 
Q 2425 1944 2417 2086 
Q 2409 2228 2390 2315 
Q 2372 2403 2339 2468 
Q 2306 2534 2264 2575 
Q 2222 2616 2164 2637 
Q 2106 2659 2019 2659 
Q 1903 2659 1776 2587 
Q 1650 2516 1564 2387 
Q 1478 2259 1478 2113 
L 1478 903 
Q 1478 609 1495 492 
Q 1513 375 1569 308 
Q 1625 241 1766 206 
L 1766 0 
L 269 0 
L 269 206 
Q 419 247 476 312 
Q 534 378 554 490 
Q 575 603 575 900 
L 575 2184 
Q 575 2416 567 2527 
Q 559 2638 529 2705 
Q 500 2772 439 2814 
Q 378 2856 228 2888 
L 228 3100 
L 1084 3125 
L 1478 3125 
L 1431 2675 
z
" transform="scale(0.015625)"/>
      <path id="Cambria-Bold-73" d="M 672 844 
Q 747 559 909 417 
Q 1072 275 1344 275 
Q 1578 275 1698 381 
Q 1819 488 1819 691 
Q 1819 819 1764 909 
Q 1709 1000 1582 1083 
Q 1456 1166 1150 1300 
Q 978 1375 826 1465 
Q 675 1556 562 1670 
Q 450 1784 384 1925 
Q 319 2066 319 2238 
Q 319 2519 481 2725 
Q 644 2931 945 3040 
Q 1247 3150 1634 3150 
Q 1863 3150 2081 3131 
Q 2300 3113 2647 3050 
L 2647 2322 
L 2234 2322 
Q 2163 2522 2077 2631 
Q 1991 2741 1887 2783 
Q 1784 2825 1641 2825 
Q 1434 2825 1312 2731 
Q 1191 2638 1191 2469 
Q 1191 2350 1234 2265 
Q 1278 2181 1390 2101 
Q 1503 2022 1825 1888 
Q 2119 1766 2303 1633 
Q 2488 1500 2584 1326 
Q 2681 1153 2681 922 
Q 2681 669 2587 486 
Q 2494 303 2325 184 
Q 2156 66 1920 8 
Q 1684 -50 1400 -50 
Q 884 -50 253 97 
L 253 844 
L 672 844 
z
" transform="scale(0.015625)"/>
      <path id="Cambria-Bold-28" d="M 2478 -1359 
Q 1888 -1359 1514 -1200 
Q 1141 -1041 931 -717 
Q 722 -394 626 128 
Q 531 650 531 1550 
Q 531 2456 626 2982 
Q 722 3509 933 3836 
Q 1144 4163 1520 4323 
Q 1897 4484 2478 4484 
L 2478 4141 
Q 2278 4141 2128 4100 
Q 1978 4059 1866 3947 
Q 1731 3813 1653 3566 
Q 1559 3281 1515 2795 
Q 1472 2309 1472 1575 
Q 1472 897 1513 428 
Q 1553 -75 1647 -381 
Q 1725 -634 1841 -775 
Q 1938 -891 2075 -950 
Q 2228 -1016 2478 -1016 
L 2478 -1359 
z
" transform="scale(0.015625)"/>
      <path id="Cambria-Bold-78" d="M 2063 1713 
L 2794 675 
Q 2897 528 2976 433 
Q 3056 338 3132 284 
Q 3209 231 3300 206 
L 3300 0 
L 1778 0 
L 1778 206 
Q 1972 228 1972 369 
Q 1972 406 1962 439 
Q 1953 472 1934 505 
Q 1916 538 1859 619 
L 1506 1125 
L 1178 722 
Q 1072 594 1045 534 
Q 1019 475 1019 400 
Q 1019 325 1075 272 
Q 1131 219 1253 206 
L 1253 0 
L 50 0 
L 50 206 
Q 184 234 320 343 
Q 456 453 650 675 
L 1303 1416 
L 569 2453 
Q 500 2553 450 2617 
Q 400 2681 347 2739 
Q 294 2797 251 2830 
Q 209 2863 173 2877 
Q 138 2891 103 2894 
L 103 3100 
L 1616 3100 
L 1616 2894 
Q 1419 2853 1419 2719 
Q 1419 2666 1447 2608 
Q 1475 2550 1538 2463 
L 1859 2003 
L 2178 2400 
Q 2253 2494 2283 2558 
Q 2313 2622 2313 2691 
Q 2313 2778 2248 2833 
Q 2184 2888 2075 2894 
L 2075 3100 
L 3266 3100 
L 3266 2894 
Q 3125 2859 3006 2761 
Q 2888 2663 2663 2391 
L 2063 1713 
z
" transform="scale(0.015625)"/>
      <path id="Cambria-Bold-63" d="M 2650 800 
L 2891 509 
Q 2584 209 2298 79 
Q 2013 -50 1675 -50 
Q 997 -50 640 348 
Q 284 747 284 1506 
Q 284 2019 479 2392 
Q 675 2766 1040 2958 
Q 1406 3150 1878 3150 
Q 2131 3150 2382 3114 
Q 2634 3078 2841 3016 
L 2841 2263 
L 2222 2263 
Q 2175 2556 2081 2690 
Q 1988 2825 1813 2825 
Q 1697 2825 1592 2767 
Q 1488 2709 1408 2567 
Q 1328 2425 1281 2186 
Q 1234 1947 1234 1581 
Q 1234 1216 1303 964 
Q 1372 713 1525 577 
Q 1678 441 1928 441 
Q 2109 441 2270 519 
Q 2431 597 2650 800 
z
" transform="scale(0.015625)"/>
      <path id="Cambria-Bold-75" d="M 200 3100 
L 1416 3100 
L 1416 1366 
Q 1416 1066 1434 897 
Q 1453 728 1506 629 
Q 1559 531 1636 486 
Q 1713 441 1831 441 
Q 1947 441 2075 512 
Q 2203 584 2292 714 
Q 2381 844 2381 991 
L 2381 2197 
Q 2381 2425 2372 2536 
Q 2363 2647 2336 2709 
Q 2309 2772 2253 2814 
Q 2197 2856 2069 2894 
L 2069 3100 
L 3288 3100 
L 3288 913 
Q 3288 675 3295 565 
Q 3303 456 3331 390 
Q 3359 325 3421 283 
Q 3484 241 3631 209 
L 3631 0 
L 2781 -28 
L 2403 -28 
L 2431 422 
L 2394 431 
Q 2103 163 1875 56 
Q 1647 -50 1416 -50 
Q 1084 -50 886 73 
Q 688 197 600 436 
Q 513 675 513 1053 
L 513 2197 
Q 513 2372 508 2465 
Q 503 2559 493 2611 
Q 484 2663 467 2705 
Q 450 2747 420 2781 
Q 391 2816 339 2844 
Q 288 2872 200 2894 
L 200 3100 
z
" transform="scale(0.015625)"/>
      <path id="Cambria-Bold-67" d="M 3291 2681 
L 2756 2741 
L 2744 2706 
Q 2831 2619 2889 2467 
Q 2947 2316 2947 2103 
Q 2947 1559 2617 1278 
Q 2288 997 1647 997 
Q 1338 997 1141 1053 
Q 984 913 984 750 
Q 984 656 1023 606 
Q 1063 556 1156 529 
Q 1250 503 1422 503 
L 2197 503 
Q 2719 503 2978 300 
Q 3238 97 3238 -331 
Q 3238 -666 3048 -906 
Q 2859 -1147 2506 -1273 
Q 2153 -1400 1669 -1400 
Q 1316 -1400 1028 -1369 
Q 741 -1338 537 -1255 
Q 334 -1172 223 -1028 
Q 113 -884 113 -663 
Q 113 -484 225 -334 
Q 338 -184 541 -78 
Q 409 16 350 137 
Q 291 259 291 438 
Q 291 584 352 712 
Q 413 841 514 945 
Q 616 1050 778 1175 
Q 534 1313 409 1536 
Q 284 1759 284 2059 
Q 284 2350 389 2558 
Q 494 2766 676 2897 
Q 859 3028 1107 3089 
Q 1356 3150 1644 3150 
Q 1803 3150 1925 3134 
Q 2047 3119 2163 3100 
L 3291 3100 
L 3291 2681 
z
M 1181 2097 
Q 1181 1703 1292 1511 
Q 1403 1319 1641 1319 
Q 1856 1319 1970 1497 
Q 2084 1675 2084 2041 
Q 2084 2425 1973 2626 
Q 1863 2828 1634 2828 
Q 1403 2828 1292 2648 
Q 1181 2469 1181 2097 
z
M 1069 -200 
Q 956 -288 898 -391 
Q 841 -494 841 -628 
Q 841 -853 1036 -961 
Q 1231 -1069 1653 -1069 
Q 2047 -1069 2251 -937 
Q 2456 -806 2456 -569 
Q 2456 -463 2418 -388 
Q 2381 -313 2272 -263 
Q 2163 -213 1963 -213 
L 1425 -213 
Q 1197 -213 1069 -200 
z
" transform="scale(0.015625)"/>
      <path id="Cambria-Bold-4c" d="M 1941 4266 
L 1941 4059 
Q 1828 4028 1762 3992 
Q 1697 3956 1661 3893 
Q 1625 3831 1614 3732 
Q 1603 3634 1603 3484 
L 1603 372 
L 2209 372 
Q 2391 372 2500 428 
Q 2609 484 2689 601 
Q 2769 719 2826 908 
Q 2884 1097 2919 1263 
L 3347 1263 
L 3278 0 
L 300 0 
L 300 206 
Q 416 238 483 275 
Q 550 313 583 377 
Q 616 441 625 539 
Q 634 638 634 788 
L 634 3478 
Q 634 3625 626 3725 
Q 619 3825 586 3887 
Q 553 3950 486 3989 
Q 419 4028 300 4059 
L 300 4266 
L 1941 4266 
z
" transform="scale(0.015625)"/>
      <path id="Cambria-Bold-55" d="M 3053 3481 
Q 3053 3716 3033 3808 
Q 3013 3900 2953 3956 
Q 2894 4013 2722 4059 
L 2722 4266 
L 4097 4266 
L 4097 4059 
Q 3984 4028 3918 3992 
Q 3853 3956 3818 3892 
Q 3784 3828 3775 3729 
Q 3766 3631 3766 3481 
L 3766 1528 
Q 3766 1141 3703 880 
Q 3641 619 3509 441 
Q 3378 263 3183 153 
Q 2988 44 2744 -3 
Q 2500 -50 2197 -50 
Q 1753 -50 1447 42 
Q 1141 134 948 320 
Q 756 506 664 772 
Q 572 1038 572 1456 
L 572 3478 
Q 572 3625 564 3725 
Q 556 3825 523 3887 
Q 491 3950 423 3989 
Q 356 4028 238 4059 
L 238 4266 
L 1878 4266 
L 1878 4059 
Q 1750 4025 1689 3986 
Q 1628 3947 1597 3890 
Q 1566 3834 1553 3743 
Q 1541 3653 1541 3478 
L 1541 1416 
Q 1541 1169 1572 966 
Q 1603 763 1686 617 
Q 1769 472 1916 394 
Q 2063 316 2294 316 
Q 2613 316 2769 444 
Q 2925 572 2989 801 
Q 3053 1031 3053 1488 
L 3053 3481 
z
" transform="scale(0.015625)"/>
      <path id="Cambria-Bold-46" d="M 1603 784 
Q 1603 619 1612 533 
Q 1622 447 1647 394 
Q 1672 341 1708 308 
Q 1744 275 1808 248 
Q 1872 222 1981 206 
L 1981 0 
L 300 0 
L 300 206 
Q 416 234 483 271 
Q 550 309 583 373 
Q 616 438 625 538 
Q 634 638 634 788 
L 634 3478 
Q 634 3625 626 3725 
Q 619 3825 586 3887 
Q 553 3950 486 3989 
Q 419 4028 300 4059 
L 300 4266 
L 3322 4266 
L 3322 3272 
L 2894 3272 
Q 2791 3569 2719 3673 
Q 2647 3778 2547 3839 
Q 2447 3900 2206 3900 
L 1603 3900 
L 1603 2309 
L 2003 2309 
Q 2150 2309 2229 2354 
Q 2309 2400 2361 2506 
Q 2413 2613 2447 2806 
L 2800 2806 
L 2800 1444 
L 2447 1444 
Q 2409 1641 2356 1748 
Q 2303 1856 2225 1900 
Q 2147 1944 2003 1944 
L 1603 1944 
L 1603 784 
z
" transform="scale(0.015625)"/>
      <path id="Cambria-Bold-29" d="M 134 4484 
Q 716 4484 1089 4328 
Q 1463 4172 1675 3851 
Q 1888 3531 1984 3007 
Q 2081 2484 2081 1575 
Q 2081 669 1986 142 
Q 1891 -384 1680 -711 
Q 1469 -1038 1092 -1198 
Q 716 -1359 134 -1359 
L 134 -1016 
Q 334 -1016 484 -975 
Q 634 -934 747 -822 
Q 881 -688 959 -441 
Q 1053 -156 1097 330 
Q 1141 816 1141 1550 
Q 1141 2228 1100 2697 
Q 1059 3200 966 3506 
Q 888 3759 772 3900 
Q 675 4016 538 4075 
Q 384 4141 134 4141 
L 134 4484 
z
" transform="scale(0.015625)"/>
      <path id="Cambria-Bold-70" d="M 1438 -559 
Q 1438 -794 1463 -891 
Q 1488 -988 1552 -1044 
Q 1616 -1100 1778 -1138 
L 1778 -1344 
L 222 -1344 
L 222 -1138 
Q 369 -1094 426 -1041 
Q 484 -988 509 -892 
Q 534 -797 534 -559 
L 534 2175 
Q 534 2397 529 2490 
Q 525 2584 508 2650 
Q 491 2716 459 2758 
Q 428 2800 367 2831 
Q 306 2863 188 2888 
L 188 3100 
L 1053 3125 
L 1438 3125 
L 1391 2672 
L 1428 2663 
Q 1697 2922 1930 3036 
Q 2163 3150 2409 3150 
Q 2966 3150 3244 2758 
Q 3522 2366 3522 1584 
Q 3522 1044 3358 680 
Q 3194 316 2869 133 
Q 2544 -50 2069 -50 
Q 1747 -50 1438 31 
L 1438 -559 
z
M 1438 1025 
Q 1438 641 1570 458 
Q 1703 275 1981 275 
Q 2269 275 2420 576 
Q 2572 878 2572 1438 
Q 2572 2059 2436 2359 
Q 2300 2659 2013 2659 
Q 1872 2659 1739 2587 
Q 1606 2516 1522 2383 
Q 1438 2250 1438 2084 
L 1438 1025 
z
" transform="scale(0.015625)"/>
      <path id="Cambria-Bold-32" d="M 2356 766 
Q 2559 766 2659 795 
Q 2759 825 2817 898 
Q 2875 972 2913 1119 
L 3272 1119 
L 3200 0 
L 338 0 
L 338 206 
Q 469 506 717 859 
Q 966 1213 1322 1631 
Q 1659 2028 1836 2284 
Q 2013 2541 2100 2769 
Q 2188 2997 2188 3241 
Q 2188 3584 2034 3779 
Q 1881 3975 1616 3975 
Q 1366 3975 1202 3798 
Q 1038 3622 963 3241 
L 400 3241 
L 400 3978 
Q 781 4131 997 4192 
Q 1213 4253 1423 4284 
Q 1634 4316 1881 4316 
Q 2341 4316 2631 4192 
Q 2922 4069 3051 3858 
Q 3181 3647 3181 3366 
Q 3181 3119 3089 2906 
Q 2997 2694 2770 2422 
Q 2544 2150 2006 1644 
Q 1766 1409 1556 1170 
Q 1347 931 1247 797 
L 1247 766 
L 2356 766 
z
" transform="scale(0.015625)"/>
      <path id="Cambria-Bold-30" d="M 1856 -50 
Q 1369 -50 1039 164 
Q 709 378 531 856 
Q 353 1334 353 2094 
Q 353 2809 534 3304 
Q 716 3800 1067 4058 
Q 1419 4316 1913 4316 
Q 2681 4316 3059 3792 
Q 3438 3269 3438 2191 
Q 3438 1084 3036 517 
Q 2634 -50 1856 -50 
z
M 1303 2184 
Q 1303 1497 1364 1090 
Q 1425 684 1556 492 
Q 1688 300 1906 300 
Q 2025 300 2114 358 
Q 2203 416 2273 539 
Q 2344 663 2394 867 
Q 2444 1072 2466 1376 
Q 2488 1681 2488 2056 
Q 2488 2616 2445 2997 
Q 2403 3378 2325 3584 
Q 2247 3791 2140 3878 
Q 2034 3966 1894 3966 
Q 1728 3966 1614 3856 
Q 1500 3747 1431 3525 
Q 1363 3303 1333 2968 
Q 1303 2634 1303 2184 
z
" transform="scale(0.015625)"/>
      <path id="Cambria-Bold-31" d="M 2506 872 
Q 2506 691 2526 598 
Q 2547 506 2598 448 
Q 2650 391 2747 358 
Q 2844 325 2991 308 
Q 3138 291 3378 284 
L 3378 0 
L 681 0 
L 681 284 
Q 1028 300 1176 326 
Q 1325 353 1403 406 
Q 1481 459 1517 556 
Q 1553 653 1553 872 
L 1553 3131 
Q 1553 3259 1504 3315 
Q 1456 3372 1372 3372 
Q 1294 3372 1151 3300 
Q 1009 3228 684 3006 
L 494 3338 
L 2125 4316 
L 2525 4316 
Q 2506 4016 2506 3484 
L 2506 872 
z
" transform="scale(0.015625)"/>
      <path id="Cambria-Bold-39" d="M 1019 134 
L 1019 359 
Q 1222 363 1375 397 
Q 1556 434 1717 517 
Q 1878 600 2000 722 
Q 2150 869 2250 1058 
Q 2350 1247 2408 1472 
Q 2466 1697 2494 1941 
L 2463 1953 
Q 2222 1788 1989 1713 
Q 1756 1638 1431 1638 
Q 1063 1638 805 1795 
Q 547 1953 419 2236 
Q 291 2519 291 2897 
Q 291 3313 486 3639 
Q 681 3966 1047 4141 
Q 1413 4316 1913 4316 
Q 2416 4316 2761 4108 
Q 3106 3900 3276 3503 
Q 3447 3106 3447 2544 
Q 3447 1759 3181 1196 
Q 2916 634 2408 318 
Q 1900 3 1181 -50 
L 1019 134 
z
M 1794 2066 
Q 1909 2066 2009 2087 
Q 2109 2109 2198 2154 
Q 2288 2200 2364 2264 
Q 2441 2328 2466 2368 
Q 2491 2409 2508 2487 
Q 2525 2566 2525 2700 
Q 2525 3313 2361 3639 
Q 2197 3966 1881 3966 
Q 1697 3966 1570 3894 
Q 1444 3822 1364 3690 
Q 1284 3559 1250 3376 
Q 1216 3194 1216 2975 
Q 1216 2066 1794 2066 
z
" transform="scale(0.015625)"/>
     </defs>
     <use xlink:href="#Cambria-Bold-74"/>
     <use xlink:href="#Cambria-Bold-6f" x="36.523438"/>
     <use xlink:href="#Cambria-Bold-74" x="93.457031"/>
     <use xlink:href="#Cambria-Bold-61" x="129.980469"/>
     <use xlink:href="#Cambria-Bold-6c" x="183.496094"/>
     <use xlink:href="#Cambria-Bold-20" x="214.306641"/>
     <use xlink:href="#Cambria-Bold-43" x="236.328125"/>
     <use xlink:href="#Cambria-Bold-48" x="293.652344"/>
     <use xlink:href="#Cambria-Bold-2084" x="365.820312"/>
     <use xlink:href="#Cambria-Bold-20" x="409.521484"/>
     <use xlink:href="#Cambria-Bold-65" x="431.542969"/>
     <use xlink:href="#Cambria-Bold-6d" x="484.619141"/>
     <use xlink:href="#Cambria-Bold-69" x="573.632812"/>
     <use xlink:href="#Cambria-Bold-73" x="605.078125"/>
     <use xlink:href="#Cambria-Bold-73" x="650.976562"/>
     <use xlink:href="#Cambria-Bold-69" x="696.875"/>
     <use xlink:href="#Cambria-Bold-6f" x="728.320312"/>
     <use xlink:href="#Cambria-Bold-6e" x="785.253906"/>
     <use xlink:href="#Cambria-Bold-73" x="845.605469"/>
     <use xlink:href="#Cambria-Bold-20" x="891.503906"/>
     <use xlink:href="#Cambria-Bold-28" x="913.525391"/>
     <use xlink:href="#Cambria-Bold-65" x="954.345703"/>
     <use xlink:href="#Cambria-Bold-78" x="1007.421875"/>
     <use xlink:href="#Cambria-Bold-63" x="1059.960938"/>
     <use xlink:href="#Cambria-Bold-6c" x="1106.835938"/>
     <use xlink:href="#Cambria-Bold-75" x="1137.646484"/>
     <use xlink:href="#Cambria-Bold-64" x="1197.363281"/>
     <use xlink:href="#Cambria-Bold-69" x="1257.080078"/>
     <use xlink:href="#Cambria-Bold-6e" x="1288.525391"/>
     <use xlink:href="#Cambria-Bold-67" x="1348.876953"/>
     <use xlink:href="#Cambria-Bold-20" x="1400.878906"/>
     <use xlink:href="#Cambria-Bold-4c" x="1422.900391"/>
     <use xlink:href="#Cambria-Bold-55" x="1475.353516"/>
     <use xlink:href="#Cambria-Bold-4c" x="1542.980469"/>
     <use xlink:href="#Cambria-Bold-55" x="1595.433594"/>
     <use xlink:href="#Cambria-Bold-43" x="1663.060547"/>
     <use xlink:href="#Cambria-Bold-46" x="1720.384766"/>
     <use xlink:href="#Cambria-Bold-29" x="1775.511719"/>
     <use xlink:href="#Cambria-Bold-20" x="1816.332031"/>
     <use xlink:href="#Cambria-Bold-70" x="1838.353516"/>
     <use xlink:href="#Cambria-Bold-65" x="1898.070312"/>
     <use xlink:href="#Cambria-Bold-72" x="1951.146484"/>
     <use xlink:href="#Cambria-Bold-20" x="1997.289062"/>
     <use xlink:href="#Cambria-Bold-63" x="2019.310547"/>
     <use xlink:href="#Cambria-Bold-61" x="2066.185547"/>
     <use xlink:href="#Cambria-Bold-70" x="2119.701172"/>
     <use xlink:href="#Cambria-Bold-69" x="2179.417969"/>
     <use xlink:href="#Cambria-Bold-74" x="2210.863281"/>
     <use xlink:href="#Cambria-Bold-61" x="2247.386719"/>
     <use xlink:href="#Cambria-Bold-20" x="2300.902344"/>
     <use xlink:href="#Cambria-Bold-69" x="2322.923828"/>
     <use xlink:href="#Cambria-Bold-6e" x="2354.369141"/>
     <use xlink:href="#Cambria-Bold-20" x="2414.720703"/>
     <use xlink:href="#Cambria-Bold-32" x="2436.742188"/>
     <use xlink:href="#Cambria-Bold-30" x="2495.970703"/>
     <use xlink:href="#Cambria-Bold-31" x="2555.199219"/>
     <use xlink:href="#Cambria-Bold-39" x="2614.427734"/>
    </g>
    <!--  -->
    <g style="fill: #262626" transform="translate(221.10375 52.1795)scale(0.16 -0.16)"/>
   </g>
  </g>
 </g>
 <defs>
  <clipPath id="p21c7ae51b2">
   <rect x="53.70375" y="58.1795" width="334.8" height="217.44"/>
  </clipPath>
 </defs>
</svg>
