<?xml version="1.0" encoding="utf-8" standalone="no"?>
<!DOCTYPE svg PUBLIC "-//W3C//DTD SVG 1.1//EN"
  "http://www.w3.org/Graphics/SVG/1.1/DTD/svg11.dtd">
<svg xmlns:xlink="http://www.w3.org/1999/xlink" width="540.600312pt" height="324.50575pt" viewBox="0 0 540.600312 324.50575" xmlns="http://www.w3.org/2000/svg" version="1.1">
 <metadata>
  <rdf:RDF xmlns:dc="http://purl.org/dc/elements/1.1/" xmlns:cc="http://creativecommons.org/ns#" xmlns:rdf="http://www.w3.org/1999/02/22-rdf-syntax-ns#">
   <cc:Work>
    <dc:type rdf:resource="http://purl.org/dc/dcmitype/StillImage"/>
    <dc:date>2022-12-05T13:37:58.193450</dc:date>
    <dc:format>image/svg+xml</dc:format>
    <dc:creator>
     <cc:Agent>
      <dc:title>Matplotlib v3.5.2, https://matplotlib.org/</dc:title>
     </cc:Agent>
    </dc:creator>
   </cc:Work>
  </rdf:RDF>
 </metadata>
 <defs>
  <style type="text/css">*{stroke-linejoin: round; stroke-linecap: butt}</style>
 </defs>
 <g id="figure_1">
  <g id="patch_1">
   <path d="M 0 324.50575 
L 540.600312 324.50575 
L 540.600312 0 
L 0 0 
z
" style="fill: #ffffff"/>
  </g>
  <g id="axes_1">
   <g id="patch_2">
    <path d="M 51.8525 258.785 
L 386.6525 258.785 
L 386.6525 41.345 
L 51.8525 41.345 
z
" style="fill: #eaeaf2"/>
   </g>
   <g id="matplotlib.axis_1">
    <g id="xtick_1">
     <g id="line2d_1">
      <path d="M 67.070682 258.785 
L 67.070682 41.345 
" clip-path="url(#pfd80ffbc01)" style="fill: none; stroke: #ffffff; stroke-linecap: round"/>
     </g>
     <g id="text_1">
      <!-- 0.0 -->
      <g style="fill: #262626" transform="translate(57.22576 278.76625)scale(0.15 -0.15)">
       <defs>
        <path id="Cambria-30" d="M 1738 -50 
Q 1063 -50 733 481 
Q 403 1013 403 2094 
Q 403 2669 504 3087 
Q 606 3506 789 3779 
Q 972 4053 1228 4184 
Q 1484 4316 1788 4316 
Q 2472 4316 2806 3787 
Q 3141 3259 3141 2191 
Q 3141 1084 2783 517 
Q 2425 -50 1738 -50 
z
M 1013 2188 
Q 1013 1169 1202 692 
Q 1391 216 1788 216 
Q 2166 216 2348 664 
Q 2531 1113 2531 2053 
Q 2531 2772 2437 3217 
Q 2344 3663 2176 3856 
Q 2009 4050 1772 4050 
Q 1556 4050 1411 3922 
Q 1266 3794 1177 3553 
Q 1088 3313 1050 2967 
Q 1013 2622 1013 2188 
z
" transform="scale(0.015625)"/>
        <path id="Cambria-2e" d="M 972 725 
L 972 0 
L 341 0 
L 341 725 
L 972 725 
z
" transform="scale(0.015625)"/>
       </defs>
       <use xlink:href="#Cambria-30"/>
       <use xlink:href="#Cambria-2e" x="55.371094"/>
       <use xlink:href="#Cambria-30" x="75.878906"/>
      </g>
     </g>
    </g>
    <g id="xtick_2">
     <g id="line2d_2">
      <path d="M 118.888168 258.785 
L 118.888168 41.345 
" clip-path="url(#pfd80ffbc01)" style="fill: none; stroke: #ffffff; stroke-linecap: round"/>
     </g>
     <g id="text_2">
      <!-- 0.5 -->
      <g style="fill: #262626" transform="translate(109.043246 278.76625)scale(0.15 -0.15)">
       <defs>
        <path id="Cambria-35" d="M 469 172 
L 469 834 
L 847 834 
Q 941 516 1130 366 
Q 1319 216 1619 216 
Q 2034 216 2246 466 
Q 2459 716 2459 1213 
Q 2459 1544 2346 1761 
Q 2234 1978 2043 2075 
Q 1853 2172 1600 2172 
Q 1388 2172 1234 2145 
Q 1081 2119 906 2063 
L 656 2209 
L 656 4266 
L 2378 4266 
Q 2484 4266 2531 4283 
Q 2578 4300 2606 4336 
Q 2634 4372 2672 4472 
L 2916 4472 
L 2869 3747 
L 1072 3747 
L 1072 2375 
Q 1234 2444 1425 2478 
Q 1616 2513 1806 2513 
Q 2178 2513 2465 2361 
Q 2753 2209 2909 1929 
Q 3066 1650 3066 1281 
Q 3066 863 2891 563 
Q 2716 263 2384 106 
Q 2053 -50 1600 -50 
Q 1059 -50 469 172 
z
" transform="scale(0.015625)"/>
       </defs>
       <use xlink:href="#Cambria-30"/>
       <use xlink:href="#Cambria-2e" x="55.371094"/>
       <use xlink:href="#Cambria-35" x="75.878906"/>
      </g>
     </g>
    </g>
    <g id="xtick_3">
     <g id="line2d_3">
      <path d="M 170.705655 258.785 
L 170.705655 41.345 
" clip-path="url(#pfd80ffbc01)" style="fill: none; stroke: #ffffff; stroke-linecap: round"/>
     </g>
     <g id="text_3">
      <!-- 1.0 -->
      <g style="fill: #262626" transform="translate(160.860733 278.76625)scale(0.15 -0.15)">
       <defs>
        <path id="Cambria-31" d="M 2172 816 
Q 2172 634 2192 542 
Q 2213 450 2264 392 
Q 2316 334 2412 301 
Q 2509 269 2656 251 
Q 2803 234 3044 228 
L 3044 0 
L 734 0 
L 734 228 
Q 1081 244 1229 270 
Q 1378 297 1456 350 
Q 1534 403 1570 500 
Q 1606 597 1606 816 
L 1606 3350 
Q 1606 3475 1562 3533 
Q 1519 3591 1434 3591 
Q 1334 3591 1150 3487 
Q 966 3384 694 3203 
L 556 3444 
L 2019 4316 
L 2191 4316 
Q 2172 4016 2172 3484 
L 2172 816 
z
" transform="scale(0.015625)"/>
       </defs>
       <use xlink:href="#Cambria-31"/>
       <use xlink:href="#Cambria-2e" x="55.371094"/>
       <use xlink:href="#Cambria-30" x="75.878906"/>
      </g>
     </g>
    </g>
    <g id="xtick_4">
     <g id="line2d_4">
      <path d="M 222.523141 258.785 
L 222.523141 41.345 
" clip-path="url(#pfd80ffbc01)" style="fill: none; stroke: #ffffff; stroke-linecap: round"/>
     </g>
     <g id="text_4">
      <!-- 1.5 -->
      <g style="fill: #262626" transform="translate(212.678219 278.76625)scale(0.15 -0.15)">
       <use xlink:href="#Cambria-31"/>
       <use xlink:href="#Cambria-2e" x="55.371094"/>
       <use xlink:href="#Cambria-35" x="75.878906"/>
      </g>
     </g>
    </g>
    <g id="xtick_5">
     <g id="line2d_5">
      <path d="M 274.340628 258.785 
L 274.340628 41.345 
" clip-path="url(#pfd80ffbc01)" style="fill: none; stroke: #ffffff; stroke-linecap: round"/>
     </g>
     <g id="text_5">
      <!-- 2.0 -->
      <g style="fill: #262626" transform="translate(264.495706 278.76625)scale(0.15 -0.15)">
       <defs>
        <path id="Cambria-32" d="M 2194 500 
Q 2347 500 2440 519 
Q 2534 538 2590 581 
Q 2647 625 2680 695 
Q 2713 766 2763 913 
L 3028 913 
L 2975 0 
L 403 0 
L 403 150 
Q 538 478 766 822 
Q 994 1166 1413 1631 
Q 1775 2031 1934 2238 
Q 2109 2463 2195 2627 
Q 2281 2791 2318 2936 
Q 2356 3081 2356 3228 
Q 2356 3463 2281 3642 
Q 2206 3822 2051 3925 
Q 1897 4028 1663 4028 
Q 1078 4028 875 3378 
L 497 3378 
L 497 3978 
Q 875 4156 1204 4236 
Q 1534 4316 1797 4316 
Q 2378 4316 2675 4061 
Q 2972 3806 2972 3322 
Q 2972 3156 2939 3017 
Q 2906 2878 2836 2742 
Q 2766 2606 2647 2450 
Q 2528 2294 2384 2133 
Q 2241 1972 1888 1597 
Q 1294 969 1016 500 
L 2194 500 
z
" transform="scale(0.015625)"/>
       </defs>
       <use xlink:href="#Cambria-32"/>
       <use xlink:href="#Cambria-2e" x="55.371094"/>
       <use xlink:href="#Cambria-30" x="75.878906"/>
      </g>
     </g>
    </g>
    <g id="xtick_6">
     <g id="line2d_6">
      <path d="M 326.158114 258.785 
L 326.158114 41.345 
" clip-path="url(#pfd80ffbc01)" style="fill: none; stroke: #ffffff; stroke-linecap: round"/>
     </g>
     <g id="text_6">
      <!-- 2.5 -->
      <g style="fill: #262626" transform="translate(316.313192 278.76625)scale(0.15 -0.15)">
       <use xlink:href="#Cambria-32"/>
       <use xlink:href="#Cambria-2e" x="55.371094"/>
       <use xlink:href="#Cambria-35" x="75.878906"/>
      </g>
     </g>
    </g>
    <g id="xtick_7">
     <g id="line2d_7">
      <path d="M 377.975601 258.785 
L 377.975601 41.345 
" clip-path="url(#pfd80ffbc01)" style="fill: none; stroke: #ffffff; stroke-linecap: round"/>
     </g>
     <g id="text_7">
      <!-- 3.0 -->
      <g style="fill: #262626" transform="translate(368.130679 278.76625)scale(0.15 -0.15)">
       <defs>
        <path id="Cambria-33" d="M 497 3381 
L 497 3975 
Q 859 4147 1175 4231 
Q 1491 4316 1784 4316 
Q 2138 4316 2403 4206 
Q 2669 4097 2809 3892 
Q 2950 3688 2950 3403 
Q 2950 3138 2844 2936 
Q 2738 2734 2545 2584 
Q 2353 2434 2047 2291 
L 2047 2263 
Q 2238 2228 2414 2145 
Q 2591 2063 2728 1931 
Q 2866 1800 2948 1617 
Q 3031 1434 3031 1200 
Q 3031 838 2873 556 
Q 2716 275 2391 112 
Q 2066 -50 1600 -50 
Q 1331 -50 1020 11 
Q 709 72 450 172 
L 450 834 
L 825 834 
Q 934 509 1114 362 
Q 1294 216 1603 216 
Q 2009 216 2217 437 
Q 2425 659 2425 1094 
Q 2425 1550 2150 1790 
Q 1875 2031 1344 2031 
L 1063 2031 
L 1063 2306 
Q 1484 2331 1773 2468 
Q 2063 2606 2203 2822 
Q 2344 3038 2344 3306 
Q 2344 3653 2159 3840 
Q 1975 4028 1622 4028 
Q 1328 4028 1143 3868 
Q 959 3709 872 3381 
L 497 3381 
z
" transform="scale(0.015625)"/>
       </defs>
       <use xlink:href="#Cambria-33"/>
       <use xlink:href="#Cambria-2e" x="55.371094"/>
       <use xlink:href="#Cambria-30" x="75.878906"/>
      </g>
     </g>
    </g>
    <g id="text_8">
     <!-- Distribution in 2019  -->
     <g style="fill: #262626" transform="translate(147.9325 297.09625)scale(0.16 -0.16)">
      <defs>
       <path id="Cambria-44" d="M 375 0 
L 375 153 
Q 519 191 581 225 
Q 644 259 678 312 
Q 713 366 728 466 
Q 744 566 744 781 
L 744 3484 
Q 744 3703 728 3801 
Q 713 3900 677 3953 
Q 641 4006 581 4039 
Q 522 4072 375 4113 
L 375 4266 
L 1744 4266 
Q 2334 4266 2711 4136 
Q 3088 4006 3347 3753 
Q 3606 3500 3734 3123 
Q 3863 2747 3863 2225 
Q 3863 1697 3742 1295 
Q 3622 894 3391 622 
Q 3191 384 2900 231 
Q 2659 106 2343 53 
Q 2028 0 1506 0 
L 375 0 
z
M 1328 291 
Q 1453 278 1697 278 
Q 1959 278 2165 322 
Q 2372 366 2540 459 
Q 2709 553 2843 720 
Q 2978 888 3062 1105 
Q 3147 1322 3186 1587 
Q 3225 1853 3225 2169 
Q 3225 2803 3042 3211 
Q 2859 3619 2526 3806 
Q 2194 3994 1731 3994 
Q 1519 3994 1328 3981 
L 1328 291 
z
" transform="scale(0.015625)"/>
       <path id="Cambria-69" d="M 1197 4213 
L 1197 3606 
L 622 3606 
L 622 4213 
L 1197 4213 
z
M 303 153 
Q 425 191 476 219 
Q 528 247 564 297 
Q 600 347 620 450 
Q 641 553 641 772 
L 641 2134 
Q 641 2334 634 2456 
Q 628 2578 590 2651 
Q 553 2725 476 2761 
Q 400 2797 259 2822 
L 259 2988 
L 988 3016 
L 1178 3016 
L 1178 781 
Q 1178 513 1203 408 
Q 1228 303 1298 248 
Q 1369 194 1528 153 
L 1528 0 
L 303 0 
L 303 153 
z
" transform="scale(0.015625)"/>
       <path id="Cambria-73" d="M 2397 2303 
L 2097 2303 
Q 2028 2491 1934 2598 
Q 1841 2706 1722 2750 
Q 1603 2794 1431 2794 
Q 1181 2794 1032 2676 
Q 884 2559 884 2356 
Q 884 2213 943 2119 
Q 1003 2025 1128 1944 
Q 1253 1863 1569 1728 
Q 1888 1591 2061 1475 
Q 2234 1359 2332 1206 
Q 2431 1053 2431 841 
Q 2431 594 2347 425 
Q 2263 256 2109 150 
Q 1956 44 1745 -3 
Q 1534 -50 1284 -50 
Q 1022 -50 775 -11 
Q 528 28 294 91 
L 294 744 
L 600 744 
Q 684 456 850 326 
Q 1016 197 1306 197 
Q 1419 197 1526 220 
Q 1634 244 1718 298 
Q 1803 353 1853 447 
Q 1903 541 1903 681 
Q 1903 841 1840 941 
Q 1778 1041 1647 1123 
Q 1516 1206 1184 1347 
Q 900 1466 728 1578 
Q 556 1691 457 1844 
Q 359 1997 359 2206 
Q 359 2463 498 2652 
Q 638 2841 900 2941 
Q 1163 3041 1516 3041 
Q 1722 3041 1914 3020 
Q 2106 3000 2397 2941 
L 2397 2303 
z
" transform="scale(0.015625)"/>
       <path id="Cambria-74" d="M 116 2831 
Q 272 2856 369 2918 
Q 466 2981 520 3079 
Q 575 3178 606 3326 
Q 638 3475 672 3759 
L 1116 3759 
L 1116 2988 
L 2125 2988 
L 2125 2672 
L 1116 2672 
L 1116 1281 
Q 1116 978 1141 798 
Q 1166 619 1234 517 
Q 1303 416 1390 372 
Q 1478 328 1616 328 
Q 1741 328 1850 379 
Q 1959 431 2066 528 
L 2206 359 
Q 1984 144 1786 47 
Q 1588 -50 1375 -50 
Q 972 -50 775 189 
Q 578 428 578 938 
L 578 2672 
L 116 2672 
L 116 2831 
z
" transform="scale(0.015625)"/>
       <path id="Cambria-72" d="M 1147 2469 
L 1191 2459 
Q 1363 2669 1509 2789 
Q 1656 2909 1826 2975 
Q 1997 3041 2213 3041 
Q 2394 3041 2541 3022 
L 2541 2303 
L 2188 2303 
Q 2113 2472 2028 2548 
Q 1944 2625 1797 2625 
Q 1684 2625 1573 2559 
Q 1463 2494 1359 2369 
Q 1256 2244 1217 2134 
Q 1178 2025 1178 1875 
L 1178 781 
Q 1178 497 1212 389 
Q 1247 281 1326 231 
Q 1406 181 1566 153 
L 1566 0 
L 306 0 
L 306 153 
Q 425 191 476 219 
Q 528 247 565 297 
Q 603 347 622 450 
Q 641 553 641 772 
L 641 2134 
Q 641 2334 634 2456 
Q 628 2578 590 2651 
Q 553 2725 476 2761 
Q 400 2797 259 2822 
L 259 2984 
L 991 3016 
L 1181 3016 
L 1147 2469 
z
" transform="scale(0.015625)"/>
       <path id="Cambria-62" d="M 1091 2497 
L 1103 2494 
Q 1322 2722 1467 2825 
Q 1613 2928 1767 2983 
Q 1922 3038 2106 3038 
Q 2441 3038 2680 2867 
Q 2919 2697 3048 2356 
Q 3178 2016 3178 1522 
Q 3178 1013 3023 661 
Q 2869 309 2567 129 
Q 2266 -50 1853 -50 
Q 1622 -50 1417 -8 
Q 1213 34 988 141 
L 769 -50 
L 553 0 
L 553 3397 
Q 553 3697 548 3815 
Q 544 3934 523 4017 
Q 503 4100 467 4147 
Q 431 4194 370 4222 
Q 309 4250 150 4278 
L 150 4441 
L 906 4472 
L 1091 4472 
L 1091 2497 
z
M 1091 1125 
Q 1091 884 1112 742 
Q 1134 600 1186 506 
Q 1238 413 1336 334 
Q 1434 256 1556 226 
Q 1678 197 1828 197 
Q 2203 197 2397 503 
Q 2591 809 2591 1422 
Q 2591 2041 2414 2352 
Q 2238 2663 1881 2663 
Q 1703 2663 1578 2608 
Q 1453 2553 1329 2437 
Q 1206 2322 1148 2209 
Q 1091 2097 1091 1953 
L 1091 1125 
z
" transform="scale(0.015625)"/>
       <path id="Cambria-75" d="M 228 2988 
L 1119 2988 
L 1119 1397 
Q 1119 1031 1147 840 
Q 1175 650 1231 553 
Q 1288 456 1391 390 
Q 1494 325 1675 325 
Q 1794 325 1903 372 
Q 2013 419 2147 536 
Q 2281 653 2339 768 
Q 2397 884 2397 1038 
L 2397 2209 
Q 2397 2388 2387 2478 
Q 2378 2569 2356 2623 
Q 2334 2678 2304 2712 
Q 2275 2747 2220 2775 
Q 2166 2803 2044 2834 
L 2044 2988 
L 2934 2988 
L 2934 853 
Q 2934 613 2943 506 
Q 2953 400 2984 337 
Q 3016 275 3081 236 
Q 3147 197 3316 163 
L 3316 0 
L 2600 -31 
L 2409 -31 
L 2428 481 
L 2381 494 
Q 2122 213 1886 81 
Q 1650 -50 1413 -50 
Q 1128 -50 943 62 
Q 759 175 668 398 
Q 578 622 578 1028 
L 578 2209 
Q 578 2472 558 2570 
Q 538 2669 480 2726 
Q 422 2784 228 2834 
L 228 2988 
z
" transform="scale(0.015625)"/>
       <path id="Cambria-6f" d="M 1663 -50 
Q 1013 -50 670 333 
Q 328 716 328 1466 
Q 328 1981 508 2337 
Q 688 2694 1000 2867 
Q 1313 3041 1713 3041 
Q 2381 3041 2725 2652 
Q 3069 2263 3069 1534 
Q 3069 1016 2897 659 
Q 2725 303 2409 126 
Q 2094 -50 1663 -50 
z
M 919 1531 
Q 919 888 1123 542 
Q 1328 197 1709 197 
Q 1919 197 2066 298 
Q 2213 400 2305 572 
Q 2397 744 2437 970 
Q 2478 1197 2478 1444 
Q 2478 1903 2376 2206 
Q 2275 2509 2100 2651 
Q 1925 2794 1700 2794 
Q 1322 2794 1120 2466 
Q 919 2138 919 1531 
z
" transform="scale(0.015625)"/>
       <path id="Cambria-6e" d="M 3347 0 
L 2116 0 
L 2116 153 
Q 2238 191 2291 219 
Q 2344 247 2380 297 
Q 2416 347 2436 451 
Q 2456 556 2456 769 
L 2456 1588 
Q 2456 1806 2443 1984 
Q 2431 2163 2401 2277 
Q 2372 2391 2330 2455 
Q 2288 2519 2230 2564 
Q 2172 2609 2097 2636 
Q 2022 2663 1900 2663 
Q 1778 2663 1668 2614 
Q 1559 2566 1428 2447 
Q 1297 2328 1237 2212 
Q 1178 2097 1178 1947 
L 1178 781 
Q 1178 513 1203 408 
Q 1228 303 1298 248 
Q 1369 194 1528 153 
L 1528 0 
L 303 0 
L 303 153 
Q 425 191 476 219 
Q 528 247 564 297 
Q 600 347 620 450 
Q 641 553 641 772 
L 641 2134 
Q 641 2334 634 2456 
Q 628 2578 590 2651 
Q 553 2725 476 2761 
Q 400 2797 259 2822 
L 259 2988 
L 991 3016 
L 1181 3016 
L 1147 2506 
L 1191 2494 
Q 1422 2728 1564 2828 
Q 1706 2928 1851 2983 
Q 1997 3038 2159 3038 
Q 2328 3038 2461 2998 
Q 2594 2959 2695 2878 
Q 2797 2797 2862 2676 
Q 2928 2556 2961 2387 
Q 2994 2219 2994 1959 
L 2994 781 
Q 2994 566 3006 469 
Q 3019 372 3050 319 
Q 3081 266 3140 230 
Q 3200 194 3347 153 
L 3347 0 
z
" transform="scale(0.015625)"/>
       <path id="Cambria-20" transform="scale(0.015625)"/>
       <path id="Cambria-39" d="M 978 122 
L 978 275 
Q 1416 275 1736 469 
Q 2056 663 2251 1042 
Q 2447 1422 2513 2038 
L 2481 2050 
Q 2219 1863 1964 1775 
Q 1709 1688 1413 1688 
Q 1059 1688 811 1842 
Q 563 1997 438 2276 
Q 313 2556 313 2931 
Q 313 3213 406 3464 
Q 500 3716 684 3905 
Q 869 4094 1145 4205 
Q 1422 4316 1791 4316 
Q 2447 4316 2790 3862 
Q 3134 3409 3134 2559 
Q 3134 1781 2881 1211 
Q 2628 641 2172 323 
Q 1716 6 1106 -50 
L 978 122 
z
M 1628 2016 
Q 1747 2016 1855 2036 
Q 1963 2056 2066 2095 
Q 2169 2134 2267 2195 
Q 2366 2256 2444 2325 
Q 2472 2350 2494 2390 
Q 2516 2431 2528 2497 
Q 2541 2563 2541 2703 
Q 2541 3131 2455 3436 
Q 2369 3741 2192 3895 
Q 2016 4050 1756 4050 
Q 1522 4050 1359 3969 
Q 1197 3888 1095 3745 
Q 994 3603 947 3411 
Q 900 3219 900 2994 
Q 900 2528 1090 2272 
Q 1281 2016 1628 2016 
z
" transform="scale(0.015625)"/>
      </defs>
      <use xlink:href="#Cambria-44"/>
      <use xlink:href="#Cambria-69" x="66.162109"/>
      <use xlink:href="#Cambria-73" x="93.945312"/>
      <use xlink:href="#Cambria-74" x="136.914062"/>
      <use xlink:href="#Cambria-72" x="170.751953"/>
      <use xlink:href="#Cambria-69" x="212.109375"/>
      <use xlink:href="#Cambria-62" x="239.892578"/>
      <use xlink:href="#Cambria-75" x="294.628906"/>
      <use xlink:href="#Cambria-74" x="349.853516"/>
      <use xlink:href="#Cambria-69" x="383.691406"/>
      <use xlink:href="#Cambria-6f" x="411.474609"/>
      <use xlink:href="#Cambria-6e" x="464.550781"/>
      <use xlink:href="#Cambria-20" x="520.361328"/>
      <use xlink:href="#Cambria-69" x="542.382812"/>
      <use xlink:href="#Cambria-6e" x="570.166016"/>
      <use xlink:href="#Cambria-20" x="625.976562"/>
      <use xlink:href="#Cambria-32" x="647.998047"/>
      <use xlink:href="#Cambria-30" x="703.369141"/>
      <use xlink:href="#Cambria-31" x="758.740234"/>
      <use xlink:href="#Cambria-39" x="814.111328"/>
      <use xlink:href="#Cambria-20" x="869.482422"/>
     </g>
     <!-- (tCO₂eq per capita) -->
     <g style="fill: #262626" transform="translate(153.3225 313.90825)scale(0.16 -0.16)">
      <defs>
       <path id="Cambria-28" d="M 2309 -1359 
Q 1778 -1359 1442 -1200 
Q 1106 -1041 918 -714 
Q 731 -388 647 134 
Q 563 656 563 1550 
Q 563 2438 645 2964 
Q 728 3491 915 3822 
Q 1103 4153 1440 4318 
Q 1778 4484 2309 4484 
L 2309 4228 
Q 2091 4228 1922 4191 
Q 1731 4147 1597 4022 
Q 1447 3884 1353 3638 
Q 1244 3350 1191 2875 
Q 1134 2372 1134 1575 
Q 1134 872 1181 379 
Q 1228 -113 1338 -425 
Q 1425 -688 1556 -834 
Q 1672 -963 1831 -1028 
Q 2016 -1103 2309 -1103 
L 2309 -1359 
z
" transform="scale(0.015625)"/>
       <path id="Cambria-43" d="M 3256 4175 
L 3256 3309 
L 2947 3309 
Q 2872 3581 2756 3742 
Q 2641 3903 2487 3972 
Q 2334 4041 2119 4041 
Q 1797 4041 1545 3827 
Q 1294 3613 1150 3183 
Q 1006 2753 1006 2144 
Q 1006 1531 1125 1098 
Q 1244 666 1475 445 
Q 1706 225 2044 225 
Q 2300 225 2462 298 
Q 2625 372 2736 531 
Q 2847 691 2947 1000 
L 3256 1000 
L 3256 106 
Q 2963 28 2655 -11 
Q 2347 -50 1978 -50 
Q 1184 -50 778 487 
Q 372 1025 372 2091 
Q 372 2759 583 3262 
Q 794 3766 1203 4041 
Q 1613 4316 2181 4316 
Q 2466 4316 2706 4286 
Q 2947 4256 3256 4175 
z
" transform="scale(0.015625)"/>
       <path id="Cambria-4f" d="M 2044 -50 
Q 1669 -50 1361 73 
Q 1053 197 833 458 
Q 613 719 492 1125 
Q 372 1531 372 2097 
Q 372 2794 584 3294 
Q 797 3794 1192 4055 
Q 1588 4316 2109 4316 
Q 2666 4316 3045 4070 
Q 3425 3825 3617 3348 
Q 3809 2872 3809 2188 
Q 3809 1456 3590 953 
Q 3372 450 2973 200 
Q 2575 -50 2044 -50 
z
M 1016 2184 
Q 1016 1225 1295 725 
Q 1575 225 2113 225 
Q 2453 225 2690 442 
Q 2928 659 3047 1078 
Q 3166 1497 3166 2056 
Q 3166 2738 3027 3186 
Q 2888 3634 2647 3837 
Q 2406 4041 2088 4041 
Q 1806 4041 1604 3909 
Q 1403 3778 1270 3536 
Q 1138 3294 1077 2950 
Q 1016 2606 1016 2184 
z
" transform="scale(0.015625)"/>
       <path id="Cambria-2082" d="M 1581 -587 
Q 1691 -587 1748 -576 
Q 1806 -565 1840 -543 
Q 1875 -521 1898 -486 
Q 1922 -452 1969 -337 
L 2184 -337 
L 2141 -940 
L 309 -940 
L 309 -821 
Q 416 -593 597 -371 
Q 778 -149 1022 85 
Q 1313 363 1434 505 
Q 1556 648 1615 774 
Q 1675 901 1675 1029 
Q 1675 1241 1554 1363 
Q 1434 1485 1209 1485 
Q 1016 1485 880 1382 
Q 744 1279 672 1079 
L 375 1079 
L 375 1501 
Q 653 1613 887 1661 
Q 1122 1710 1303 1710 
Q 1550 1710 1711 1657 
Q 1872 1604 1969 1518 
Q 2066 1432 2105 1316 
Q 2144 1201 2144 1079 
Q 2144 926 2081 793 
Q 2019 660 1876 505 
Q 1734 351 1372 23 
Q 984 -331 809 -587 
L 1581 -587 
z
" transform="scale(0.015625)"/>
       <path id="Cambria-65" d="M 2800 531 
Q 2600 322 2433 203 
Q 2266 84 2066 17 
Q 1866 -50 1625 -50 
Q 981 -50 653 336 
Q 325 722 325 1475 
Q 325 1941 492 2297 
Q 659 2653 968 2847 
Q 1278 3041 1681 3041 
Q 1997 3041 2219 2941 
Q 2441 2841 2573 2667 
Q 2706 2494 2779 2230 
Q 2853 1966 2863 1541 
L 894 1541 
L 894 1484 
Q 894 1116 976 864 
Q 1059 613 1248 470 
Q 1438 328 1741 328 
Q 1997 328 2201 423 
Q 2406 519 2609 734 
L 2800 531 
z
M 2275 1800 
Q 2256 2138 2190 2352 
Q 2125 2566 1994 2680 
Q 1863 2794 1650 2794 
Q 1328 2794 1136 2536 
Q 944 2278 909 1800 
L 2275 1800 
z
" transform="scale(0.015625)"/>
       <path id="Cambria-71" d="M 3300 -1344 
L 2025 -1344 
L 2025 -1191 
Q 2175 -1159 2242 -1121 
Q 2309 -1084 2345 -1026 
Q 2381 -969 2395 -870 
Q 2409 -772 2409 -566 
L 2409 513 
Q 2241 322 2095 208 
Q 1950 94 1772 22 
Q 1594 -50 1394 -50 
Q 878 -50 601 334 
Q 325 719 325 1453 
Q 325 1972 504 2330 
Q 684 2688 1006 2864 
Q 1328 3041 1750 3041 
Q 1972 3041 2150 2995 
Q 2328 2950 2516 2850 
L 2734 3041 
L 2947 2991 
L 2947 -566 
Q 2947 -750 2961 -858 
Q 2975 -966 3011 -1028 
Q 3047 -1091 3117 -1125 
Q 3188 -1159 3300 -1191 
L 3300 -1344 
z
M 2409 1863 
Q 2409 2153 2371 2312 
Q 2334 2472 2243 2583 
Q 2153 2694 2031 2742 
Q 1909 2791 1744 2791 
Q 1341 2791 1127 2466 
Q 913 2141 913 1550 
Q 913 950 1086 637 
Q 1259 325 1606 325 
Q 1738 325 1830 348 
Q 1922 372 2011 425 
Q 2100 478 2192 568 
Q 2284 659 2325 732 
Q 2366 806 2387 903 
Q 2409 1000 2409 1153 
L 2409 1863 
z
" transform="scale(0.015625)"/>
       <path id="Cambria-70" d="M 1150 94 
L 1150 -566 
Q 1150 -769 1164 -869 
Q 1178 -969 1214 -1026 
Q 1250 -1084 1317 -1121 
Q 1384 -1159 1534 -1191 
L 1534 -1344 
L 259 -1344 
L 259 -1191 
Q 372 -1159 442 -1126 
Q 513 -1094 550 -1030 
Q 588 -966 600 -856 
Q 613 -747 613 -566 
L 613 2116 
Q 613 2341 606 2436 
Q 600 2531 581 2593 
Q 563 2656 527 2697 
Q 491 2738 430 2766 
Q 369 2794 228 2822 
L 228 2988 
L 963 3016 
L 1153 3016 
L 1113 2506 
L 1159 2494 
Q 1353 2691 1465 2780 
Q 1578 2869 1698 2928 
Q 1819 2988 1930 3013 
Q 2041 3038 2166 3038 
Q 2681 3038 2957 2652 
Q 3234 2266 3234 1522 
Q 3234 1006 3078 654 
Q 2922 303 2623 126 
Q 2325 -50 1913 -50 
Q 1681 -50 1493 -11 
Q 1306 28 1150 94 
z
M 1150 1125 
Q 1150 825 1187 662 
Q 1225 500 1320 398 
Q 1416 297 1545 247 
Q 1675 197 1888 197 
Q 2266 197 2456 511 
Q 2647 825 2647 1438 
Q 2647 2663 1931 2663 
Q 1756 2663 1629 2608 
Q 1503 2553 1378 2431 
Q 1253 2309 1201 2195 
Q 1150 2081 1150 1950 
L 1150 1125 
z
" transform="scale(0.015625)"/>
       <path id="Cambria-63" d="M 2631 2916 
L 2631 2263 
L 2234 2263 
Q 2181 2466 2103 2583 
Q 2025 2700 1922 2747 
Q 1819 2794 1666 2794 
Q 1447 2794 1278 2653 
Q 1109 2513 1011 2225 
Q 913 1938 913 1522 
Q 913 1256 950 1036 
Q 988 816 1078 659 
Q 1169 503 1319 415 
Q 1469 328 1691 328 
Q 1906 328 2092 412 
Q 2278 497 2478 709 
L 2656 503 
Q 2497 328 2375 233 
Q 2253 138 2114 73 
Q 1975 9 1839 -20 
Q 1703 -50 1544 -50 
Q 953 -50 640 342 
Q 328 734 328 1475 
Q 328 1938 503 2295 
Q 678 2653 993 2847 
Q 1309 3041 1722 3041 
Q 1978 3041 2195 3011 
Q 2413 2981 2631 2916 
z
" transform="scale(0.015625)"/>
       <path id="Cambria-61" d="M 2109 447 
L 2063 459 
Q 1791 181 1552 65 
Q 1313 -50 1044 -50 
Q 806 -50 625 42 
Q 444 134 347 301 
Q 250 469 250 688 
Q 250 1144 701 1392 
Q 1153 1641 2056 1681 
L 2056 1884 
Q 2056 2209 1993 2396 
Q 1931 2584 1797 2671 
Q 1663 2759 1438 2759 
Q 1194 2759 1045 2631 
Q 897 2503 822 2247 
L 413 2247 
L 413 2653 
Q 713 2809 913 2882 
Q 1113 2956 1313 2998 
Q 1513 3041 1719 3041 
Q 2028 3041 2215 2942 
Q 2403 2844 2497 2641 
Q 2591 2438 2591 2028 
L 2591 941 
Q 2591 709 2594 614 
Q 2597 519 2612 437 
Q 2628 356 2659 307 
Q 2691 259 2752 225 
Q 2813 191 2950 153 
L 2950 0 
L 2094 0 
L 2109 447 
z
M 2056 1425 
Q 1422 1419 1106 1256 
Q 791 1094 791 766 
Q 791 588 862 484 
Q 934 381 1043 342 
Q 1153 303 1303 303 
Q 1516 303 1689 406 
Q 1863 509 1959 668 
Q 2056 828 2056 984 
L 2056 1425 
z
" transform="scale(0.015625)"/>
       <path id="Cambria-29" d="M 134 4484 
Q 666 4484 1002 4325 
Q 1338 4166 1525 3839 
Q 1713 3513 1797 2991 
Q 1881 2469 1881 1575 
Q 1881 688 1798 161 
Q 1716 -366 1528 -697 
Q 1341 -1028 1003 -1193 
Q 666 -1359 134 -1359 
L 134 -1103 
Q 353 -1103 522 -1066 
Q 713 -1022 847 -897 
Q 997 -759 1091 -513 
Q 1200 -225 1253 250 
Q 1309 753 1309 1550 
Q 1309 2253 1262 2745 
Q 1216 3238 1106 3550 
Q 1019 3813 888 3959 
Q 772 4088 613 4153 
Q 428 4228 134 4228 
L 134 4484 
z
" transform="scale(0.015625)"/>
      </defs>
      <use xlink:href="#Cambria-28"/>
      <use xlink:href="#Cambria-74" x="38.183594"/>
      <use xlink:href="#Cambria-43" x="72.021484"/>
      <use xlink:href="#Cambria-4f" x="127.646484"/>
      <use xlink:href="#Cambria-2082" x="192.978516"/>
      <use xlink:href="#Cambria-65" x="233.701172"/>
      <use xlink:href="#Cambria-71" x="282.480469"/>
      <use xlink:href="#Cambria-20" x="337.167969"/>
      <use xlink:href="#Cambria-70" x="359.189453"/>
      <use xlink:href="#Cambria-65" x="414.804688"/>
      <use xlink:href="#Cambria-72" x="463.583984"/>
      <use xlink:href="#Cambria-20" x="504.941406"/>
      <use xlink:href="#Cambria-63" x="526.962891"/>
      <use xlink:href="#Cambria-61" x="571.054688"/>
      <use xlink:href="#Cambria-70" x="619.882812"/>
      <use xlink:href="#Cambria-69" x="675.498047"/>
      <use xlink:href="#Cambria-74" x="703.28125"/>
      <use xlink:href="#Cambria-61" x="737.119141"/>
      <use xlink:href="#Cambria-29" x="785.947266"/>
     </g>
    </g>
   </g>
   <g id="matplotlib.axis_2">
    <g id="ytick_1">
     <g id="line2d_8">
      <path d="M 51.8525 258.785 
L 386.6525 258.785 
" clip-path="url(#pfd80ffbc01)" style="fill: none; stroke: #ffffff; stroke-linecap: round"/>
     </g>
     <g id="text_9">
      <!-- 0 -->
      <g style="fill: #262626" transform="translate(34.04625 264.025625)scale(0.15 -0.15)">
       <use xlink:href="#Cambria-30"/>
      </g>
     </g>
    </g>
    <g id="ytick_2">
     <g id="line2d_9">
      <path d="M 51.8525 199.617653 
L 386.6525 199.617653 
" clip-path="url(#pfd80ffbc01)" style="fill: none; stroke: #ffffff; stroke-linecap: round"/>
     </g>
     <g id="text_10">
      <!-- 10 -->
      <g style="fill: #262626" transform="translate(25.74 204.858278)scale(0.15 -0.15)">
       <use xlink:href="#Cambria-31"/>
       <use xlink:href="#Cambria-30" x="55.371094"/>
      </g>
     </g>
    </g>
    <g id="ytick_3">
     <g id="line2d_10">
      <path d="M 51.8525 140.450306 
L 386.6525 140.450306 
" clip-path="url(#pfd80ffbc01)" style="fill: none; stroke: #ffffff; stroke-linecap: round"/>
     </g>
     <g id="text_11">
      <!-- 20 -->
      <g style="fill: #262626" transform="translate(25.74 145.690931)scale(0.15 -0.15)">
       <use xlink:href="#Cambria-32"/>
       <use xlink:href="#Cambria-30" x="55.371094"/>
      </g>
     </g>
    </g>
    <g id="ytick_4">
     <g id="line2d_11">
      <path d="M 51.8525 81.282959 
L 386.6525 81.282959 
" clip-path="url(#pfd80ffbc01)" style="fill: none; stroke: #ffffff; stroke-linecap: round"/>
     </g>
     <g id="text_12">
      <!-- 30 -->
      <g style="fill: #262626" transform="translate(25.74 86.523584)scale(0.15 -0.15)">
       <use xlink:href="#Cambria-33"/>
       <use xlink:href="#Cambria-30" x="55.371094"/>
      </g>
     </g>
    </g>
    <g id="text_13">
     <!-- Number of countries -->
     <g style="fill: #262626" transform="translate(18.38 220.6)rotate(-90)scale(0.16 -0.16)">
      <defs>
       <path id="Cambria-4e" d="M 2888 1691 
Q 3000 1503 3076 1362 
Q 3153 1222 3234 1047 
L 3275 1047 
Q 3259 1238 3246 1805 
Q 3234 2372 3234 2828 
L 3234 3484 
Q 3234 3700 3221 3800 
Q 3209 3900 3176 3953 
Q 3144 4006 3086 4039 
Q 3028 4072 2884 4113 
L 2884 4266 
L 4009 4266 
L 4009 4113 
Q 3869 4075 3811 4044 
Q 3753 4013 3717 3963 
Q 3681 3913 3662 3813 
Q 3644 3713 3644 3484 
L 3644 -19 
L 3253 -19 
L 1513 2900 
Q 1350 3172 1281 3297 
Q 1213 3422 1153 3544 
L 1100 3544 
Q 1122 3303 1131 2673 
Q 1141 2044 1141 1419 
L 1141 781 
Q 1141 572 1155 475 
Q 1169 378 1201 322 
Q 1234 266 1298 228 
Q 1363 191 1506 153 
L 1506 0 
L 366 0 
L 366 153 
Q 559 203 625 264 
Q 691 325 711 437 
Q 731 550 731 781 
L 731 3484 
Q 731 3700 715 3798 
Q 700 3897 664 3951 
Q 628 4006 568 4039 
Q 509 4072 366 4113 
L 366 4266 
L 1344 4266 
L 2888 1691 
z
" transform="scale(0.015625)"/>
       <path id="Cambria-6d" d="M 1147 2506 
L 1191 2494 
Q 1378 2681 1498 2776 
Q 1619 2872 1731 2930 
Q 1844 2988 1942 3013 
Q 2041 3038 2144 3038 
Q 2456 3038 2653 2894 
Q 2850 2750 2925 2453 
Q 3159 2691 3304 2803 
Q 3450 2916 3601 2977 
Q 3753 3038 3928 3038 
Q 4138 3038 4289 2977 
Q 4441 2916 4545 2789 
Q 4650 2663 4698 2472 
Q 4747 2281 4747 1959 
L 4747 781 
Q 4747 544 4762 453 
Q 4778 363 4808 313 
Q 4838 263 4897 227 
Q 4956 191 5097 153 
L 5097 0 
L 3869 0 
L 3869 153 
Q 3991 191 4044 219 
Q 4097 247 4133 297 
Q 4169 347 4189 451 
Q 4209 556 4209 769 
L 4209 1588 
Q 4209 1853 4195 2026 
Q 4181 2200 4151 2303 
Q 4122 2406 4080 2465 
Q 4038 2525 3984 2569 
Q 3931 2613 3859 2638 
Q 3788 2663 3669 2663 
Q 3544 2663 3436 2613 
Q 3328 2563 3201 2444 
Q 3075 2325 3019 2204 
Q 2963 2084 2963 1922 
L 2963 781 
Q 2963 544 2978 453 
Q 2994 363 3023 313 
Q 3053 263 3112 227 
Q 3172 191 3313 153 
L 3313 0 
L 2084 0 
L 2084 153 
Q 2206 191 2259 219 
Q 2313 247 2348 297 
Q 2384 347 2404 451 
Q 2425 556 2425 769 
L 2425 1588 
Q 2425 1866 2409 2041 
Q 2394 2216 2361 2322 
Q 2328 2428 2276 2493 
Q 2225 2559 2172 2593 
Q 2119 2628 2047 2645 
Q 1975 2663 1884 2663 
Q 1756 2663 1643 2605 
Q 1531 2547 1414 2437 
Q 1297 2328 1237 2209 
Q 1178 2091 1178 1953 
L 1178 781 
Q 1178 603 1187 509 
Q 1197 416 1217 362 
Q 1238 309 1269 276 
Q 1300 244 1358 214 
Q 1416 184 1531 153 
L 1531 0 
L 306 0 
L 306 153 
Q 425 191 476 219 
Q 528 247 565 297 
Q 603 347 622 450 
Q 641 553 641 772 
L 641 2134 
Q 641 2334 634 2456 
Q 628 2578 590 2651 
Q 553 2725 476 2761 
Q 400 2797 259 2822 
L 259 2988 
L 991 3016 
L 1181 3016 
L 1147 2506 
z
" transform="scale(0.015625)"/>
       <path id="Cambria-66" d="M 1909 2672 
L 1163 2672 
L 1163 781 
Q 1163 572 1183 465 
Q 1203 359 1242 304 
Q 1281 250 1345 217 
Q 1409 184 1550 153 
L 1550 0 
L 272 0 
L 272 153 
Q 409 191 468 225 
Q 528 259 561 312 
Q 594 366 609 466 
Q 625 566 625 781 
L 625 2672 
L 247 2672 
L 247 2831 
Q 366 2850 405 2861 
Q 444 2872 480 2894 
Q 516 2916 542 2956 
Q 569 2997 589 3076 
Q 609 3156 622 3300 
Q 650 3641 745 3853 
Q 841 4066 1023 4216 
Q 1206 4366 1414 4427 
Q 1622 4488 1903 4488 
Q 2150 4488 2322 4453 
L 2322 3888 
L 2013 3888 
Q 1953 4072 1873 4148 
Q 1794 4225 1650 4225 
Q 1547 4225 1476 4197 
Q 1406 4169 1347 4109 
Q 1288 4050 1245 3950 
Q 1203 3850 1183 3701 
Q 1163 3553 1163 3316 
L 1163 2988 
L 1909 2988 
L 1909 2672 
z
" transform="scale(0.015625)"/>
      </defs>
      <use xlink:href="#Cambria-4e"/>
      <use xlink:href="#Cambria-75" x="68.066406"/>
      <use xlink:href="#Cambria-6d" x="123.291016"/>
      <use xlink:href="#Cambria-62" x="206.494141"/>
      <use xlink:href="#Cambria-65" x="261.230469"/>
      <use xlink:href="#Cambria-72" x="310.009766"/>
      <use xlink:href="#Cambria-20" x="351.367188"/>
      <use xlink:href="#Cambria-6f" x="373.388672"/>
      <use xlink:href="#Cambria-66" x="426.464844"/>
      <use xlink:href="#Cambria-20" x="456.738281"/>
      <use xlink:href="#Cambria-63" x="478.759766"/>
      <use xlink:href="#Cambria-6f" x="522.851562"/>
      <use xlink:href="#Cambria-75" x="575.927734"/>
      <use xlink:href="#Cambria-6e" x="631.152344"/>
      <use xlink:href="#Cambria-74" x="686.962891"/>
      <use xlink:href="#Cambria-72" x="720.800781"/>
      <use xlink:href="#Cambria-69" x="762.158203"/>
      <use xlink:href="#Cambria-65" x="789.941406"/>
      <use xlink:href="#Cambria-73" x="838.720703"/>
     </g>
    </g>
   </g>
   <g id="patch_3">
    <path d="M 67.070682 258.785 
L 88.810942 258.785 
L 88.810942 63.532755 
L 67.070682 63.532755 
z
" clip-path="url(#pfd80ffbc01)" style="fill: #007626; opacity: 0.75; stroke: #ffffff; stroke-linejoin: miter"/>
   </g>
   <g id="patch_4">
    <path d="M 88.810942 258.785 
L 110.551201 258.785 
L 110.551201 93.116429 
L 88.810942 93.116429 
z
" clip-path="url(#pfd80ffbc01)" style="fill: #007626; opacity: 0.75; stroke: #ffffff; stroke-linejoin: miter"/>
   </g>
   <g id="patch_5">
    <path d="M 110.551201 258.785 
L 132.291461 258.785 
L 132.291461 146.367041 
L 110.551201 146.367041 
z
" clip-path="url(#pfd80ffbc01)" style="fill: #007626; opacity: 0.75; stroke: #ffffff; stroke-linejoin: miter"/>
   </g>
   <g id="patch_6">
    <path d="M 132.291461 258.785 
L 154.031721 258.785 
L 154.031721 51.699286 
L 132.291461 51.699286 
z
" clip-path="url(#pfd80ffbc01)" style="fill: #007626; opacity: 0.75; stroke: #ffffff; stroke-linejoin: miter"/>
   </g>
   <g id="patch_7">
    <path d="M 154.031721 258.785 
L 175.771981 258.785 
L 175.771981 134.533571 
L 154.031721 134.533571 
z
" clip-path="url(#pfd80ffbc01)" style="fill: #007626; opacity: 0.75; stroke: #ffffff; stroke-linejoin: miter"/>
   </g>
   <g id="patch_8">
    <path d="M 175.771981 258.785 
L 197.51224 258.785 
L 197.51224 205.534388 
L 175.771981 205.534388 
z
" clip-path="url(#pfd80ffbc01)" style="fill: #007626; opacity: 0.75; stroke: #ffffff; stroke-linejoin: miter"/>
   </g>
   <g id="patch_9">
    <path d="M 197.51224 258.785 
L 219.2525 258.785 
L 219.2525 199.617653 
L 197.51224 199.617653 
z
" clip-path="url(#pfd80ffbc01)" style="fill: #007626; opacity: 0.75; stroke: #ffffff; stroke-linejoin: miter"/>
   </g>
   <g id="patch_10">
    <path d="M 219.2525 258.785 
L 240.99276 258.785 
L 240.99276 223.284592 
L 219.2525 223.284592 
z
" clip-path="url(#pfd80ffbc01)" style="fill: #007626; opacity: 0.75; stroke: #ffffff; stroke-linejoin: miter"/>
   </g>
   <g id="patch_11">
    <path d="M 240.99276 258.785 
L 262.733019 258.785 
L 262.733019 235.118061 
L 240.99276 235.118061 
z
" clip-path="url(#pfd80ffbc01)" style="fill: #007626; opacity: 0.75; stroke: #ffffff; stroke-linejoin: miter"/>
   </g>
   <g id="patch_12">
    <path d="M 262.733019 258.785 
L 284.473279 258.785 
L 284.473279 241.034796 
L 262.733019 241.034796 
z
" clip-path="url(#pfd80ffbc01)" style="fill: #007626; opacity: 0.75; stroke: #ffffff; stroke-linejoin: miter"/>
   </g>
   <g id="patch_13">
    <path d="M 284.473279 258.785 
L 306.213539 258.785 
L 306.213539 241.034796 
L 284.473279 241.034796 
z
" clip-path="url(#pfd80ffbc01)" style="fill: #007626; opacity: 0.75; stroke: #ffffff; stroke-linejoin: miter"/>
   </g>
   <g id="patch_14">
    <path d="M 306.213539 258.785 
L 327.953799 258.785 
L 327.953799 252.868265 
L 306.213539 252.868265 
z
" clip-path="url(#pfd80ffbc01)" style="fill: #007626; opacity: 0.75; stroke: #ffffff; stroke-linejoin: miter"/>
   </g>
   <g id="patch_15">
    <path d="M 327.953799 258.785 
L 349.694058 258.785 
L 349.694058 252.868265 
L 327.953799 252.868265 
z
" clip-path="url(#pfd80ffbc01)" style="fill: #007626; opacity: 0.75; stroke: #ffffff; stroke-linejoin: miter"/>
   </g>
   <g id="patch_16">
    <path d="M 349.694058 258.785 
L 371.434318 258.785 
L 371.434318 258.785 
L 349.694058 258.785 
z
" clip-path="url(#pfd80ffbc01)" style="fill: #007626; opacity: 0.75; stroke: #ffffff; stroke-linejoin: miter"/>
   </g>
   <g id="patch_17">
    <path d="M 51.8525 258.785 
L 51.8525 41.345 
" style="fill: none; stroke: #ffffff; stroke-width: 1.25; stroke-linejoin: miter; stroke-linecap: square"/>
   </g>
   <g id="patch_18">
    <path d="M 386.6525 258.785 
L 386.6525 41.345 
" style="fill: none; stroke: #ffffff; stroke-width: 1.25; stroke-linejoin: miter; stroke-linecap: square"/>
   </g>
   <g id="patch_19">
    <path d="M 51.8525 258.785 
L 386.6525 258.785 
" style="fill: none; stroke: #ffffff; stroke-width: 1.25; stroke-linejoin: miter; stroke-linecap: square"/>
   </g>
   <g id="patch_20">
    <path d="M 51.8525 41.345 
L 386.6525 41.345 
" style="fill: none; stroke: #ffffff; stroke-width: 1.25; stroke-linejoin: miter; stroke-linecap: square"/>
   </g>
   <g id="text_14">
    <g id="patch_21">
     <path d="M 399.3425 222.497 
L 537.450312 222.497 
L 537.450312 74.807937 
L 399.3425 74.807937 
z
" style="fill: #ffffff; opacity: 0.75; stroke: #808080; stroke-linejoin: miter"/>
    </g>
    <!-- Data source: -->
    <g transform="translate(403.3925 89.339187)scale(0.15 -0.15)">
     <defs>
      <path id="Cambria-3a" d="M 1156 2822 
L 1156 2091 
L 531 2091 
L 531 2822 
L 1156 2822 
z
M 1156 725 
L 1156 0 
L 531 0 
L 531 725 
L 1156 725 
z
" transform="scale(0.015625)"/>
     </defs>
     <use xlink:href="#Cambria-44"/>
     <use xlink:href="#Cambria-61" x="66.162109"/>
     <use xlink:href="#Cambria-74" x="114.990234"/>
     <use xlink:href="#Cambria-61" x="148.828125"/>
     <use xlink:href="#Cambria-20" x="197.65625"/>
     <use xlink:href="#Cambria-73" x="219.677734"/>
     <use xlink:href="#Cambria-6f" x="262.646484"/>
     <use xlink:href="#Cambria-75" x="315.722656"/>
     <use xlink:href="#Cambria-72" x="370.947266"/>
     <use xlink:href="#Cambria-63" x="412.304688"/>
     <use xlink:href="#Cambria-65" x="456.396484"/>
     <use xlink:href="#Cambria-3a" x="505.175781"/>
    </g>
    <!--  IPCC AR6 (with -->
    <g transform="translate(403.3925 105.100437)scale(0.15 -0.15)">
     <defs>
      <path id="Cambria-49" d="M 1331 781 
Q 1331 572 1345 475 
Q 1359 378 1392 322 
Q 1425 266 1489 228 
Q 1553 191 1697 153 
L 1697 0 
L 378 0 
L 378 153 
Q 572 203 637 264 
Q 703 325 723 437 
Q 744 550 744 781 
L 744 3484 
Q 744 3700 728 3798 
Q 713 3897 677 3951 
Q 641 4006 581 4039 
Q 522 4072 378 4113 
L 378 4266 
L 1697 4266 
L 1697 4113 
Q 1559 4078 1498 4043 
Q 1438 4009 1402 3957 
Q 1366 3906 1348 3803 
Q 1331 3700 1331 3484 
L 1331 781 
z
" transform="scale(0.015625)"/>
      <path id="Cambria-50" d="M 1328 791 
Q 1328 606 1348 497 
Q 1369 388 1411 323 
Q 1453 259 1525 223 
Q 1597 188 1750 153 
L 1750 0 
L 378 0 
L 378 153 
Q 572 203 637 264 
Q 703 325 723 437 
Q 744 550 744 781 
L 744 3484 
Q 744 3700 728 3798 
Q 713 3897 677 3951 
Q 641 4006 581 4039 
Q 522 4072 378 4113 
L 378 4266 
L 1928 4266 
Q 2659 4266 3017 3986 
Q 3375 3706 3375 3134 
Q 3375 2809 3262 2550 
Q 3150 2291 2944 2125 
Q 2738 1959 2456 1887 
Q 2175 1816 1866 1816 
Q 1519 1816 1328 1828 
L 1328 791 
z
M 1328 2088 
L 1691 2088 
Q 2044 2088 2273 2180 
Q 2503 2272 2625 2486 
Q 2747 2700 2747 3053 
Q 2747 3322 2675 3501 
Q 2603 3681 2476 3790 
Q 2350 3900 2175 3945 
Q 2000 3991 1794 3991 
Q 1484 3991 1328 3978 
L 1328 2088 
z
" transform="scale(0.015625)"/>
      <path id="Cambria-41" d="M 2488 0 
L 2488 153 
Q 2644 184 2720 221 
Q 2797 259 2834 326 
Q 2872 394 2872 506 
Q 2872 613 2847 736 
Q 2822 859 2775 1013 
L 2659 1416 
L 1203 1416 
L 1097 1109 
Q 1016 878 991 759 
Q 966 641 966 544 
Q 966 356 1061 268 
Q 1156 181 1353 153 
L 1353 0 
L 19 0 
L 19 153 
Q 194 181 323 356 
Q 453 531 575 856 
L 1878 4316 
L 2372 4316 
L 3434 831 
Q 3509 588 3567 459 
Q 3625 331 3706 259 
Q 3788 188 3928 153 
L 3928 0 
L 2488 0 
z
M 1288 1688 
L 2594 1688 
L 2000 3703 
L 1288 1688 
z
" transform="scale(0.015625)"/>
      <path id="Cambria-52" d="M 1331 1853 
L 1331 791 
Q 1331 566 1348 464 
Q 1366 363 1400 311 
Q 1434 259 1493 226 
Q 1553 194 1697 153 
L 1697 0 
L 378 0 
L 378 153 
Q 572 203 637 264 
Q 703 325 723 437 
Q 744 550 744 781 
L 744 3484 
Q 744 3700 728 3798 
Q 713 3897 677 3951 
Q 641 4006 581 4039 
Q 522 4072 378 4113 
L 378 4266 
L 1925 4266 
Q 2656 4266 3018 4000 
Q 3381 3734 3381 3175 
Q 3381 2747 3145 2447 
Q 2909 2147 2438 1978 
L 2438 1953 
Q 2628 1875 2764 1729 
Q 2900 1584 3066 1278 
L 3347 766 
Q 3469 541 3556 422 
Q 3644 303 3734 240 
Q 3825 178 3975 153 
L 3975 0 
L 3109 0 
Q 2991 166 2884 356 
Q 2778 547 2675 744 
L 2400 1266 
Q 2275 1503 2195 1615 
Q 2116 1728 2048 1773 
Q 1981 1819 1904 1836 
Q 1828 1853 1675 1853 
L 1331 1853 
z
M 1331 3978 
L 1331 2122 
L 1684 2122 
Q 1956 2122 2125 2161 
Q 2294 2200 2437 2309 
Q 2581 2419 2667 2614 
Q 2753 2809 2753 3094 
Q 2753 3391 2651 3587 
Q 2550 3784 2344 3887 
Q 2138 3991 1788 3991 
Q 1506 3991 1331 3978 
z
" transform="scale(0.015625)"/>
      <path id="Cambria-36" d="M 2847 4144 
L 2847 3991 
Q 2366 3991 1994 3784 
Q 1622 3578 1376 3178 
Q 1131 2778 1031 2228 
L 1063 2216 
Q 1325 2403 1579 2490 
Q 1834 2578 2131 2578 
Q 2484 2578 2732 2423 
Q 2981 2269 3106 1989 
Q 3231 1709 3231 1334 
Q 3231 928 3075 617 
Q 2919 306 2592 128 
Q 2266 -50 1788 -50 
Q 1103 -50 754 375 
Q 406 800 406 1628 
Q 406 2184 581 2668 
Q 756 3153 1078 3514 
Q 1400 3875 1825 4083 
Q 2250 4291 2719 4316 
L 2847 4144 
z
M 1916 2250 
Q 1763 2250 1620 2215 
Q 1478 2181 1353 2115 
Q 1228 2050 1109 1950 
Q 1072 1916 1053 1878 
Q 1022 1819 1012 1731 
Q 1003 1644 1003 1438 
Q 1003 841 1203 528 
Q 1403 216 1809 216 
Q 2044 216 2203 297 
Q 2363 378 2461 520 
Q 2559 663 2601 855 
Q 2644 1047 2644 1272 
Q 2644 1734 2453 1992 
Q 2263 2250 1916 2250 
z
" transform="scale(0.015625)"/>
      <path id="Cambria-77" d="M 2494 2334 
L 1675 -16 
L 1241 -16 
L 491 2303 
Q 419 2528 370 2620 
Q 322 2713 267 2758 
Q 213 2803 91 2834 
L 91 2988 
L 1325 2988 
L 1325 2834 
Q 1144 2797 1080 2736 
Q 1016 2675 1016 2553 
Q 1016 2469 1034 2376 
Q 1053 2284 1091 2163 
L 1581 569 
L 2384 2988 
L 2825 2988 
L 3506 569 
L 4056 2097 
Q 4100 2216 4128 2323 
Q 4156 2431 4156 2525 
Q 4156 2656 4086 2728 
Q 4016 2800 3847 2834 
L 3847 2988 
L 4938 2988 
L 4938 2834 
Q 4850 2813 4806 2789 
Q 4763 2766 4720 2720 
Q 4678 2675 4626 2579 
Q 4575 2484 4497 2284 
L 3594 -16 
L 3172 -16 
L 2494 2334 
z
" transform="scale(0.015625)"/>
      <path id="Cambria-68" d="M 1141 2497 
L 1153 2494 
Q 1397 2741 1539 2839 
Q 1681 2938 1820 2988 
Q 1959 3038 2119 3038 
Q 2291 3038 2425 2997 
Q 2559 2956 2661 2873 
Q 2763 2791 2827 2670 
Q 2891 2550 2922 2383 
Q 2953 2216 2953 1959 
L 2953 781 
Q 2953 509 2976 411 
Q 3000 313 3061 258 
Q 3122 203 3306 153 
L 3306 0 
L 2075 0 
L 2075 153 
Q 2197 191 2250 219 
Q 2303 247 2339 297 
Q 2375 347 2395 451 
Q 2416 556 2416 769 
L 2416 1588 
Q 2416 2003 2373 2223 
Q 2331 2444 2207 2553 
Q 2084 2663 1863 2663 
Q 1738 2663 1638 2619 
Q 1538 2575 1406 2462 
Q 1275 2350 1208 2231 
Q 1141 2113 1141 1978 
L 1141 781 
Q 1141 569 1152 478 
Q 1163 388 1194 327 
Q 1225 266 1289 227 
Q 1353 188 1488 153 
L 1488 0 
L 250 0 
L 250 153 
Q 388 191 447 225 
Q 506 259 539 312 
Q 572 366 587 466 
Q 603 566 603 781 
L 603 3397 
Q 603 3697 598 3815 
Q 594 3934 573 4017 
Q 553 4100 517 4147 
Q 481 4194 420 4222 
Q 359 4250 200 4278 
L 200 4441 
L 953 4472 
L 1141 4472 
L 1141 2497 
z
" transform="scale(0.015625)"/>
     </defs>
     <use xlink:href="#Cambria-20"/>
     <use xlink:href="#Cambria-49" x="22.021484"/>
     <use xlink:href="#Cambria-50" x="54.443359"/>
     <use xlink:href="#Cambria-43" x="111.230469"/>
     <use xlink:href="#Cambria-43" x="166.855469"/>
     <use xlink:href="#Cambria-20" x="223.105469"/>
     <use xlink:href="#Cambria-41" x="245.126953"/>
     <use xlink:href="#Cambria-52" x="307.431641"/>
     <use xlink:href="#Cambria-36" x="369.541016"/>
     <use xlink:href="#Cambria-20" x="424.912109"/>
     <use xlink:href="#Cambria-28" x="446.933594"/>
     <use xlink:href="#Cambria-77" x="485.117188"/>
     <use xlink:href="#Cambria-69" x="562.558594"/>
     <use xlink:href="#Cambria-74" x="590.341797"/>
     <use xlink:href="#Cambria-68" x="624.179688"/>
    </g>
    <!--  indirect emissions) -->
    <g transform="translate(403.3925 120.896844)scale(0.15 -0.15)">
     <defs>
      <path id="Cambria-64" d="M 2413 3397 
Q 2413 3697 2408 3815 
Q 2403 3934 2383 4017 
Q 2363 4100 2327 4147 
Q 2291 4194 2230 4222 
Q 2169 4250 2009 4278 
L 2009 4441 
L 2766 4472 
L 2950 4472 
L 2950 853 
Q 2950 609 2959 504 
Q 2969 400 3000 337 
Q 3031 275 3098 236 
Q 3166 197 3334 163 
L 3334 0 
L 2597 -31 
L 2409 -31 
L 2447 481 
L 2400 494 
Q 2203 284 2058 179 
Q 1913 75 1748 12 
Q 1584 -50 1397 -50 
Q 884 -50 606 339 
Q 328 728 328 1463 
Q 328 1975 509 2333 
Q 691 2691 998 2866 
Q 1306 3041 1691 3041 
Q 1897 3041 2065 3008 
Q 2234 2975 2413 2900 
L 2413 3397 
z
M 2413 1853 
Q 2413 2097 2391 2244 
Q 2369 2391 2317 2491 
Q 2266 2591 2178 2659 
Q 2091 2728 1986 2759 
Q 1881 2791 1734 2791 
Q 1334 2791 1125 2470 
Q 916 2150 916 1550 
Q 916 950 1087 637 
Q 1259 325 1609 325 
Q 1747 325 1837 348 
Q 1928 372 2015 423 
Q 2103 475 2193 565 
Q 2284 656 2326 731 
Q 2369 806 2391 903 
Q 2413 1000 2413 1153 
L 2413 1853 
z
" transform="scale(0.015625)"/>
     </defs>
     <use xlink:href="#Cambria-20"/>
     <use xlink:href="#Cambria-69" x="22.021484"/>
     <use xlink:href="#Cambria-6e" x="49.804688"/>
     <use xlink:href="#Cambria-64" x="105.615234"/>
     <use xlink:href="#Cambria-69" x="161.083984"/>
     <use xlink:href="#Cambria-72" x="188.867188"/>
     <use xlink:href="#Cambria-65" x="230.224609"/>
     <use xlink:href="#Cambria-63" x="279.003906"/>
     <use xlink:href="#Cambria-74" x="323.095703"/>
     <use xlink:href="#Cambria-20" x="356.933594"/>
     <use xlink:href="#Cambria-65" x="378.955078"/>
     <use xlink:href="#Cambria-6d" x="427.734375"/>
     <use xlink:href="#Cambria-69" x="510.9375"/>
     <use xlink:href="#Cambria-73" x="538.720703"/>
     <use xlink:href="#Cambria-73" x="581.689453"/>
     <use xlink:href="#Cambria-69" x="624.658203"/>
     <use xlink:href="#Cambria-6f" x="652.441406"/>
     <use xlink:href="#Cambria-6e" x="705.517578"/>
     <use xlink:href="#Cambria-73" x="761.328125"/>
     <use xlink:href="#Cambria-29" x="804.296875"/>
    </g>
    <!--  -->
    <g transform="translate(403.3925 136.6595)scale(0.15 -0.15)"/>
    <!-- Maximum = 2.9 -->
    <g transform="translate(403.3925 152.387)scale(0.15 -0.15)">
     <defs>
      <path id="Cambria-4d" d="M 4841 4113 
Q 4703 4078 4642 4043 
Q 4581 4009 4545 3957 
Q 4509 3906 4492 3803 
Q 4475 3700 4475 3484 
L 4475 781 
Q 4475 572 4489 475 
Q 4503 378 4536 322 
Q 4569 266 4633 228 
Q 4697 191 4841 153 
L 4841 0 
L 3538 0 
L 3538 153 
Q 3716 197 3784 253 
Q 3853 309 3878 418 
Q 3903 528 3903 781 
L 3903 1978 
Q 3903 2450 3917 2933 
Q 3931 3416 3950 3594 
L 3897 3594 
L 2659 497 
L 2300 497 
L 1150 3644 
L 1097 3644 
Q 1113 3453 1127 2953 
Q 1141 2453 1141 1925 
L 1141 781 
Q 1141 572 1155 475 
Q 1169 378 1201 322 
Q 1234 266 1298 228 
Q 1363 191 1506 153 
L 1506 0 
L 366 0 
L 366 153 
Q 559 203 625 264 
Q 691 325 711 437 
Q 731 550 731 781 
L 731 3484 
Q 731 3700 715 3798 
Q 700 3897 664 3951 
Q 628 4006 568 4039 
Q 509 4072 366 4113 
L 366 4266 
L 1481 4266 
L 2578 1225 
L 3784 4266 
L 4841 4266 
L 4841 4113 
z
" transform="scale(0.015625)"/>
      <path id="Cambria-78" d="M 1625 1803 
L 2031 2319 
Q 2097 2403 2137 2483 
Q 2178 2563 2178 2647 
Q 2178 2719 2125 2766 
Q 2072 2813 1959 2834 
L 1959 2988 
L 2981 2988 
L 2981 2834 
Q 2863 2800 2739 2700 
Q 2616 2600 2438 2378 
L 1791 1584 
L 2503 625 
Q 2656 419 2778 309 
Q 2900 200 3022 153 
L 3022 0 
L 1766 0 
L 1766 153 
Q 2025 184 2025 347 
Q 2025 413 2003 472 
Q 1981 531 1922 609 
L 1469 1241 
L 988 616 
Q 934 547 904 489 
Q 875 431 875 359 
Q 875 275 933 220 
Q 991 166 1116 153 
L 1116 0 
L 72 0 
L 72 153 
Q 175 191 258 247 
Q 341 303 427 392 
Q 513 481 653 653 
L 1303 1459 
L 638 2372 
Q 500 2559 419 2643 
Q 338 2728 269 2772 
Q 200 2816 131 2834 
L 131 2988 
L 1356 2988 
L 1356 2834 
Q 1109 2797 1109 2641 
Q 1109 2569 1142 2497 
Q 1175 2425 1244 2338 
L 1625 1803 
z
" transform="scale(0.015625)"/>
      <path id="Cambria-3d" d="M 388 2259 
L 388 2694 
L 3156 2694 
L 3156 2259 
L 388 2259 
z
M 388 963 
L 388 1397 
L 3156 1397 
L 3156 963 
L 388 963 
z
" transform="scale(0.015625)"/>
     </defs>
     <use xlink:href="#Cambria-4d"/>
     <use xlink:href="#Cambria-61" x="81.542969"/>
     <use xlink:href="#Cambria-78" x="130.371094"/>
     <use xlink:href="#Cambria-69" x="178.710938"/>
     <use xlink:href="#Cambria-6d" x="206.494141"/>
     <use xlink:href="#Cambria-75" x="289.697266"/>
     <use xlink:href="#Cambria-6d" x="344.921875"/>
     <use xlink:href="#Cambria-20" x="428.125"/>
     <use xlink:href="#Cambria-3d" x="450.146484"/>
     <use xlink:href="#Cambria-20" x="505.517578"/>
     <use xlink:href="#Cambria-32" x="527.539062"/>
     <use xlink:href="#Cambria-2e" x="582.910156"/>
     <use xlink:href="#Cambria-39" x="603.417969"/>
    </g>
    <!-- Minimum = 0.00065 -->
    <g transform="translate(403.3925 168.1145)scale(0.15 -0.15)">
     <use xlink:href="#Cambria-4d"/>
     <use xlink:href="#Cambria-69" x="81.542969"/>
     <use xlink:href="#Cambria-6e" x="109.326172"/>
     <use xlink:href="#Cambria-69" x="165.136719"/>
     <use xlink:href="#Cambria-6d" x="192.919922"/>
     <use xlink:href="#Cambria-75" x="276.123047"/>
     <use xlink:href="#Cambria-6d" x="331.347656"/>
     <use xlink:href="#Cambria-20" x="414.550781"/>
     <use xlink:href="#Cambria-3d" x="436.572266"/>
     <use xlink:href="#Cambria-20" x="491.943359"/>
     <use xlink:href="#Cambria-30" x="513.964844"/>
     <use xlink:href="#Cambria-2e" x="569.335938"/>
     <use xlink:href="#Cambria-30" x="589.84375"/>
     <use xlink:href="#Cambria-30" x="645.214844"/>
     <use xlink:href="#Cambria-30" x="700.585938"/>
     <use xlink:href="#Cambria-36" x="755.957031"/>
     <use xlink:href="#Cambria-35" x="811.328125"/>
    </g>
    <!-- Mean = 0.74 -->
    <g transform="translate(403.3925 183.842)scale(0.15 -0.15)">
     <defs>
      <path id="Cambria-37" d="M 3206 4116 
L 1388 -22 
L 934 -22 
L 934 131 
L 2619 3697 
L 2619 3744 
L 1244 3744 
Q 1116 3744 1039 3720 
Q 963 3697 911 3653 
Q 859 3609 825 3537 
Q 791 3466 731 3253 
L 463 3253 
L 525 4266 
L 3206 4266 
L 3206 4116 
z
" transform="scale(0.015625)"/>
      <path id="Cambria-34" d="M 1613 153 
Q 1806 203 1872 264 
Q 1938 325 1958 437 
Q 1978 550 1978 781 
L 1978 1294 
L 241 1294 
L 241 1528 
L 2069 4288 
L 2516 4288 
L 2516 1597 
L 2581 1597 
Q 2763 1597 2841 1623 
Q 2919 1650 2970 1717 
Q 3022 1784 3066 1938 
L 3303 1938 
L 3266 1294 
L 2516 1294 
L 2516 781 
Q 2516 572 2530 475 
Q 2544 378 2576 322 
Q 2609 266 2673 228 
Q 2738 191 2881 153 
L 2881 0 
L 1613 0 
L 1613 153 
z
M 756 1597 
L 1978 1597 
L 1978 2375 
Q 1978 2669 1987 3033 
Q 1997 3397 2009 3581 
L 1978 3581 
L 756 1641 
L 756 1597 
z
" transform="scale(0.015625)"/>
     </defs>
     <use xlink:href="#Cambria-4d"/>
     <use xlink:href="#Cambria-65" x="81.542969"/>
     <use xlink:href="#Cambria-61" x="130.322266"/>
     <use xlink:href="#Cambria-6e" x="179.150391"/>
     <use xlink:href="#Cambria-20" x="234.960938"/>
     <use xlink:href="#Cambria-3d" x="256.982422"/>
     <use xlink:href="#Cambria-20" x="312.353516"/>
     <use xlink:href="#Cambria-30" x="334.375"/>
     <use xlink:href="#Cambria-2e" x="389.746094"/>
     <use xlink:href="#Cambria-37" x="410.253906"/>
     <use xlink:href="#Cambria-34" x="465.625"/>
    </g>
    <!-- Median = 0.67 -->
    <g transform="translate(403.3925 199.5695)scale(0.15 -0.15)">
     <use xlink:href="#Cambria-4d"/>
     <use xlink:href="#Cambria-65" x="81.542969"/>
     <use xlink:href="#Cambria-64" x="130.322266"/>
     <use xlink:href="#Cambria-69" x="185.791016"/>
     <use xlink:href="#Cambria-61" x="213.574219"/>
     <use xlink:href="#Cambria-6e" x="262.402344"/>
     <use xlink:href="#Cambria-20" x="318.212891"/>
     <use xlink:href="#Cambria-3d" x="340.234375"/>
     <use xlink:href="#Cambria-20" x="395.605469"/>
     <use xlink:href="#Cambria-30" x="417.626953"/>
     <use xlink:href="#Cambria-2e" x="472.998047"/>
     <use xlink:href="#Cambria-36" x="493.505859"/>
     <use xlink:href="#Cambria-37" x="548.876953"/>
    </g>
    <!-- Countries = 174 -->
    <g transform="translate(403.3925 215.297)scale(0.15 -0.15)">
     <use xlink:href="#Cambria-43"/>
     <use xlink:href="#Cambria-6f" x="56.25"/>
     <use xlink:href="#Cambria-75" x="109.326172"/>
     <use xlink:href="#Cambria-6e" x="164.550781"/>
     <use xlink:href="#Cambria-74" x="220.361328"/>
     <use xlink:href="#Cambria-72" x="254.199219"/>
     <use xlink:href="#Cambria-69" x="295.556641"/>
     <use xlink:href="#Cambria-65" x="323.339844"/>
     <use xlink:href="#Cambria-73" x="372.119141"/>
     <use xlink:href="#Cambria-20" x="415.087891"/>
     <use xlink:href="#Cambria-3d" x="437.109375"/>
     <use xlink:href="#Cambria-20" x="492.480469"/>
     <use xlink:href="#Cambria-31" x="514.501953"/>
     <use xlink:href="#Cambria-37" x="569.873047"/>
     <use xlink:href="#Cambria-34" x="625.244141"/>
    </g>
   </g>
   <g id="text_15">
    <!--   9 outliers not shown -->
    <g transform="translate(393.3485 237.041)scale(0.13 -0.13)">
     <defs>
      <path id="Cambria-6c" d="M 1138 781 
Q 1138 513 1163 408 
Q 1188 303 1258 248 
Q 1328 194 1488 153 
L 1488 0 
L 247 0 
L 247 153 
Q 403 194 464 237 
Q 525 281 551 342 
Q 578 403 589 508 
Q 600 613 600 781 
L 600 3397 
Q 600 3697 595 3815 
Q 591 3934 570 4017 
Q 550 4100 514 4147 
Q 478 4194 417 4222 
Q 356 4250 197 4278 
L 197 4441 
L 950 4472 
L 1138 4472 
L 1138 781 
z
" transform="scale(0.015625)"/>
     </defs>
     <use xlink:href="#Cambria-20"/>
     <use xlink:href="#Cambria-20" x="22.021484"/>
     <use xlink:href="#Cambria-39" x="44.042969"/>
     <use xlink:href="#Cambria-20" x="99.414062"/>
     <use xlink:href="#Cambria-6f" x="121.435547"/>
     <use xlink:href="#Cambria-75" x="174.511719"/>
     <use xlink:href="#Cambria-74" x="229.736328"/>
     <use xlink:href="#Cambria-6c" x="263.574219"/>
     <use xlink:href="#Cambria-69" x="290.722656"/>
     <use xlink:href="#Cambria-65" x="318.505859"/>
     <use xlink:href="#Cambria-72" x="367.285156"/>
     <use xlink:href="#Cambria-73" x="408.642578"/>
     <use xlink:href="#Cambria-20" x="451.611328"/>
     <use xlink:href="#Cambria-6e" x="473.632812"/>
     <use xlink:href="#Cambria-6f" x="529.443359"/>
     <use xlink:href="#Cambria-74" x="582.519531"/>
     <use xlink:href="#Cambria-20" x="616.357422"/>
     <use xlink:href="#Cambria-73" x="638.378906"/>
     <use xlink:href="#Cambria-68" x="681.347656"/>
     <use xlink:href="#Cambria-6f" x="736.523438"/>
     <use xlink:href="#Cambria-77" x="789.599609"/>
     <use xlink:href="#Cambria-6e" x="867.041016"/>
    </g>
   </g>
   <g id="text_16">
    <!-- GHG emissions from agriculture per capita in 2019 -->
    <g style="fill: #262626" transform="translate(33.20375 18.42)scale(0.16 -0.16)">
     <defs>
      <path id="Cambria-Bold-47" d="M 3578 4150 
L 3578 3263 
L 3150 3263 
Q 3078 3525 2986 3667 
Q 2894 3809 2748 3879 
Q 2603 3950 2375 3950 
Q 2066 3950 1828 3761 
Q 1591 3572 1453 3158 
Q 1316 2744 1316 2109 
Q 1316 1563 1408 1161 
Q 1500 759 1689 537 
Q 1878 316 2156 316 
Q 2431 316 2562 480 
Q 2694 644 2694 1003 
L 2694 1122 
Q 2694 1359 2678 1461 
Q 2663 1563 2630 1613 
Q 2597 1663 2544 1694 
Q 2491 1725 2356 1766 
L 2356 1972 
L 3956 1972 
L 3956 1766 
Q 3800 1719 3744 1659 
Q 3688 1600 3667 1501 
Q 3647 1403 3647 1225 
L 3647 47 
L 3197 -47 
L 2984 178 
Q 2613 -50 2131 -50 
Q 1219 -50 770 483 
Q 322 1016 322 2097 
Q 322 2666 481 3097 
Q 641 3528 923 3798 
Q 1206 4069 1561 4192 
Q 1916 4316 2322 4316 
Q 3006 4316 3578 4150 
z
" transform="scale(0.015625)"/>
      <path id="Cambria-Bold-48" d="M 3984 784 
Q 3984 544 4004 455 
Q 4025 366 4087 306 
Q 4150 247 4316 206 
L 4316 0 
L 2684 0 
L 2684 206 
Q 2866 253 2919 300 
Q 2972 347 2994 433 
Q 3016 519 3016 784 
L 3016 2038 
L 1603 2038 
L 1603 784 
Q 1603 675 1609 581 
Q 1616 488 1634 428 
Q 1653 369 1689 328 
Q 1725 288 1787 258 
Q 1850 228 1941 206 
L 1941 0 
L 300 0 
L 300 206 
Q 416 238 483 273 
Q 550 309 583 373 
Q 616 438 625 536 
Q 634 634 634 784 
L 634 3478 
Q 634 3625 626 3725 
Q 619 3825 586 3887 
Q 553 3950 486 3989 
Q 419 4028 300 4059 
L 300 4266 
L 1941 4266 
L 1941 4059 
Q 1775 4013 1714 3956 
Q 1653 3900 1628 3808 
Q 1603 3716 1603 3475 
L 1603 2431 
L 3016 2431 
L 3016 3475 
Q 3016 3713 2995 3805 
Q 2975 3897 2914 3955 
Q 2853 4013 2684 4059 
L 2684 4266 
L 4316 4266 
L 4316 4059 
Q 4178 4022 4115 3980 
Q 4053 3938 4026 3872 
Q 4000 3806 3992 3725 
Q 3984 3644 3984 3475 
L 3984 784 
z
" transform="scale(0.015625)"/>
      <path id="Cambria-Bold-20" transform="scale(0.015625)"/>
      <path id="Cambria-Bold-65" d="M 3097 569 
Q 2778 231 2465 90 
Q 2153 -50 1747 -50 
Q 1019 -50 651 348 
Q 284 747 284 1531 
Q 284 2038 473 2405 
Q 663 2772 1009 2961 
Q 1356 3150 1816 3150 
Q 2100 3150 2314 3084 
Q 2528 3019 2681 2901 
Q 2834 2784 2934 2619 
Q 3053 2422 3113 2169 
Q 3175 1909 3178 1541 
L 1197 1541 
Q 1200 975 1398 708 
Q 1597 441 2003 441 
Q 2241 441 2431 530 
Q 2622 619 2844 844 
L 3097 569 
z
M 2253 1878 
Q 2241 2356 2128 2590 
Q 2016 2825 1766 2825 
Q 1525 2825 1383 2581 
Q 1241 2338 1213 1878 
L 2253 1878 
z
" transform="scale(0.015625)"/>
      <path id="Cambria-Bold-6d" d="M 1431 2675 
L 1469 2666 
Q 1753 2931 1981 3040 
Q 2209 3150 2447 3150 
Q 2678 3150 2831 3090 
Q 2984 3031 3090 2917 
Q 3197 2803 3263 2619 
Q 3578 2913 3811 3031 
Q 4044 3150 4297 3150 
Q 4547 3150 4711 3084 
Q 4875 3019 4981 2881 
Q 5088 2744 5136 2537 
Q 5184 2331 5184 2044 
L 5184 903 
Q 5184 766 5189 645 
Q 5194 525 5212 453 
Q 5231 381 5264 336 
Q 5297 291 5356 259 
Q 5416 228 5500 206 
L 5500 0 
L 3994 0 
L 3994 206 
Q 4134 241 4187 306 
Q 4241 372 4261 487 
Q 4281 603 4281 900 
L 4281 1738 
Q 4281 2019 4262 2195 
Q 4244 2372 4191 2472 
Q 4138 2572 4064 2615 
Q 3991 2659 3872 2659 
Q 3791 2659 3722 2634 
Q 3653 2609 3583 2557 
Q 3513 2506 3463 2453 
Q 3413 2400 3383 2334 
Q 3353 2269 3342 2187 
Q 3331 2106 3331 1922 
L 3331 903 
Q 3331 691 3339 578 
Q 3347 466 3372 397 
Q 3397 328 3451 283 
Q 3506 238 3622 206 
L 3622 0 
L 2134 0 
L 2134 206 
Q 2278 241 2333 306 
Q 2388 372 2406 486 
Q 2425 600 2425 900 
L 2425 1738 
Q 2425 1944 2417 2086 
Q 2409 2228 2390 2315 
Q 2372 2403 2339 2468 
Q 2306 2534 2264 2575 
Q 2222 2616 2164 2637 
Q 2106 2659 2019 2659 
Q 1903 2659 1776 2587 
Q 1650 2516 1564 2387 
Q 1478 2259 1478 2113 
L 1478 903 
Q 1478 609 1495 492 
Q 1513 375 1569 308 
Q 1625 241 1766 206 
L 1766 0 
L 269 0 
L 269 206 
Q 419 247 476 312 
Q 534 378 554 490 
Q 575 603 575 900 
L 575 2184 
Q 575 2416 567 2527 
Q 559 2638 529 2705 
Q 500 2772 439 2814 
Q 378 2856 228 2888 
L 228 3100 
L 1084 3125 
L 1478 3125 
L 1431 2675 
z
" transform="scale(0.015625)"/>
      <path id="Cambria-Bold-69" d="M 1453 4347 
L 1453 3581 
L 597 3581 
L 597 4347 
L 1453 4347 
z
M 266 206 
Q 419 247 476 312 
Q 534 378 554 490 
Q 575 603 575 900 
L 575 2353 
Q 575 2506 561 2600 
Q 547 2694 508 2750 
Q 469 2806 401 2836 
Q 334 2866 228 2888 
L 228 3100 
L 1088 3125 
L 1478 3125 
L 1478 903 
Q 1478 728 1483 633 
Q 1488 538 1497 486 
Q 1506 434 1523 393 
Q 1541 353 1569 318 
Q 1597 284 1650 256 
Q 1703 228 1791 206 
L 1791 0 
L 266 0 
L 266 206 
z
" transform="scale(0.015625)"/>
      <path id="Cambria-Bold-73" d="M 672 844 
Q 747 559 909 417 
Q 1072 275 1344 275 
Q 1578 275 1698 381 
Q 1819 488 1819 691 
Q 1819 819 1764 909 
Q 1709 1000 1582 1083 
Q 1456 1166 1150 1300 
Q 978 1375 826 1465 
Q 675 1556 562 1670 
Q 450 1784 384 1925 
Q 319 2066 319 2238 
Q 319 2519 481 2725 
Q 644 2931 945 3040 
Q 1247 3150 1634 3150 
Q 1863 3150 2081 3131 
Q 2300 3113 2647 3050 
L 2647 2322 
L 2234 2322 
Q 2163 2522 2077 2631 
Q 1991 2741 1887 2783 
Q 1784 2825 1641 2825 
Q 1434 2825 1312 2731 
Q 1191 2638 1191 2469 
Q 1191 2350 1234 2265 
Q 1278 2181 1390 2101 
Q 1503 2022 1825 1888 
Q 2119 1766 2303 1633 
Q 2488 1500 2584 1326 
Q 2681 1153 2681 922 
Q 2681 669 2587 486 
Q 2494 303 2325 184 
Q 2156 66 1920 8 
Q 1684 -50 1400 -50 
Q 884 -50 253 97 
L 253 844 
L 672 844 
z
" transform="scale(0.015625)"/>
      <path id="Cambria-Bold-6f" d="M 1784 -50 
Q 1325 -50 992 111 
Q 659 272 471 626 
Q 284 981 284 1528 
Q 284 1947 400 2253 
Q 516 2559 722 2759 
Q 928 2959 1214 3054 
Q 1500 3150 1834 3150 
Q 2591 3150 2975 2751 
Q 3359 2353 3359 1584 
Q 3359 1041 3168 673 
Q 2978 306 2625 128 
Q 2272 -50 1784 -50 
z
M 1234 1597 
Q 1234 934 1382 604 
Q 1531 275 1831 275 
Q 1997 275 2108 359 
Q 2219 444 2286 603 
Q 2353 763 2381 986 
Q 2409 1209 2409 1488 
Q 2409 2159 2261 2492 
Q 2113 2825 1822 2825 
Q 1609 2825 1481 2690 
Q 1353 2556 1293 2287 
Q 1234 2019 1234 1597 
z
" transform="scale(0.015625)"/>
      <path id="Cambria-Bold-6e" d="M 3666 0 
L 2150 0 
L 2150 206 
Q 2294 241 2350 308 
Q 2406 375 2426 489 
Q 2447 603 2447 900 
L 2447 1734 
Q 2447 1956 2437 2098 
Q 2428 2241 2408 2331 
Q 2388 2422 2352 2483 
Q 2316 2544 2272 2583 
Q 2228 2622 2172 2640 
Q 2116 2659 2028 2659 
Q 1909 2659 1781 2586 
Q 1653 2513 1565 2383 
Q 1478 2253 1478 2106 
L 1478 903 
Q 1478 606 1497 490 
Q 1516 375 1573 308 
Q 1631 241 1778 206 
L 1778 0 
L 269 0 
L 269 206 
Q 419 247 476 312 
Q 534 378 554 490 
Q 575 603 575 900 
L 575 2184 
Q 575 2416 567 2527 
Q 559 2638 529 2705 
Q 500 2772 439 2814 
Q 378 2856 228 2888 
L 228 3100 
L 1084 3125 
L 1478 3125 
L 1431 2675 
L 1469 2666 
Q 1663 2838 1809 2936 
Q 1956 3034 2117 3092 
Q 2278 3150 2456 3150 
Q 2713 3150 2881 3076 
Q 3050 3003 3154 2862 
Q 3259 2722 3304 2519 
Q 3350 2316 3350 2047 
L 3350 903 
Q 3350 766 3354 645 
Q 3359 525 3378 453 
Q 3397 381 3430 336 
Q 3463 291 3522 259 
Q 3581 228 3666 206 
L 3666 0 
z
" transform="scale(0.015625)"/>
      <path id="Cambria-Bold-66" d="M 263 206 
Q 409 250 467 303 
Q 525 356 550 451 
Q 575 547 575 784 
L 575 2709 
L 194 2709 
L 194 2925 
Q 341 2947 398 2973 
Q 456 3000 493 3045 
Q 531 3091 553 3162 
Q 575 3234 584 3347 
Q 634 3909 1001 4198 
Q 1369 4488 2041 4488 
Q 2309 4488 2519 4444 
L 2519 3806 
L 2094 3806 
Q 2041 3978 1977 4059 
Q 1913 4141 1809 4141 
Q 1675 4141 1603 4052 
Q 1531 3963 1504 3798 
Q 1478 3634 1478 3338 
L 1478 3100 
L 2081 3100 
L 2081 2709 
L 1478 2709 
L 1478 784 
Q 1478 550 1503 453 
Q 1528 356 1592 300 
Q 1656 244 1819 206 
L 1819 0 
L 263 0 
L 263 206 
z
" transform="scale(0.015625)"/>
      <path id="Cambria-Bold-72" d="M 1434 2653 
L 1475 2644 
Q 1703 2913 1943 3031 
Q 2184 3150 2466 3150 
Q 2656 3150 2866 3109 
L 2866 2247 
L 2300 2247 
Q 2247 2428 2161 2525 
Q 2075 2622 1931 2622 
Q 1863 2622 1780 2580 
Q 1697 2538 1626 2461 
Q 1556 2384 1526 2304 
Q 1497 2225 1487 2144 
Q 1478 2063 1478 1900 
L 1478 903 
Q 1478 606 1500 487 
Q 1522 369 1587 301 
Q 1653 234 1809 206 
L 1809 0 
L 269 0 
L 269 206 
Q 419 247 476 312 
Q 534 378 554 490 
Q 575 603 575 900 
L 575 2184 
Q 575 2416 567 2527 
Q 559 2638 529 2705 
Q 500 2772 439 2814 
Q 378 2856 228 2888 
L 228 3100 
L 1084 3125 
L 1478 3125 
L 1434 2653 
z
" transform="scale(0.015625)"/>
      <path id="Cambria-Bold-61" d="M 2116 409 
L 2069 425 
Q 1813 175 1570 62 
Q 1328 -50 1056 -50 
Q 788 -50 589 48 
Q 391 147 289 322 
Q 188 497 188 725 
Q 188 1184 639 1448 
Q 1091 1713 2009 1781 
L 2009 2078 
Q 2009 2369 1943 2526 
Q 1878 2684 1775 2748 
Q 1672 2813 1528 2813 
Q 1384 2813 1279 2763 
Q 1175 2713 1090 2573 
Q 1006 2434 966 2188 
L 375 2188 
L 375 2756 
Q 663 2884 853 2953 
Q 1044 3022 1230 3067 
Q 1416 3113 1562 3131 
Q 1709 3150 1856 3150 
Q 2234 3150 2461 3050 
Q 2688 2950 2800 2725 
Q 2913 2500 2913 2103 
L 2913 884 
Q 2913 678 2922 565 
Q 2931 453 2951 398 
Q 2972 344 3003 311 
Q 3034 278 3079 258 
Q 3125 238 3250 206 
L 3250 0 
L 2088 0 
L 2116 409 
z
M 2013 1475 
Q 1528 1463 1295 1294 
Q 1063 1125 1063 800 
Q 1063 606 1169 504 
Q 1275 403 1463 403 
Q 1606 403 1734 479 
Q 1863 556 1938 684 
Q 2013 813 2013 956 
L 2013 1475 
z
" transform="scale(0.015625)"/>
      <path id="Cambria-Bold-67" d="M 3291 2681 
L 2756 2741 
L 2744 2706 
Q 2831 2619 2889 2467 
Q 2947 2316 2947 2103 
Q 2947 1559 2617 1278 
Q 2288 997 1647 997 
Q 1338 997 1141 1053 
Q 984 913 984 750 
Q 984 656 1023 606 
Q 1063 556 1156 529 
Q 1250 503 1422 503 
L 2197 503 
Q 2719 503 2978 300 
Q 3238 97 3238 -331 
Q 3238 -666 3048 -906 
Q 2859 -1147 2506 -1273 
Q 2153 -1400 1669 -1400 
Q 1316 -1400 1028 -1369 
Q 741 -1338 537 -1255 
Q 334 -1172 223 -1028 
Q 113 -884 113 -663 
Q 113 -484 225 -334 
Q 338 -184 541 -78 
Q 409 16 350 137 
Q 291 259 291 438 
Q 291 584 352 712 
Q 413 841 514 945 
Q 616 1050 778 1175 
Q 534 1313 409 1536 
Q 284 1759 284 2059 
Q 284 2350 389 2558 
Q 494 2766 676 2897 
Q 859 3028 1107 3089 
Q 1356 3150 1644 3150 
Q 1803 3150 1925 3134 
Q 2047 3119 2163 3100 
L 3291 3100 
L 3291 2681 
z
M 1181 2097 
Q 1181 1703 1292 1511 
Q 1403 1319 1641 1319 
Q 1856 1319 1970 1497 
Q 2084 1675 2084 2041 
Q 2084 2425 1973 2626 
Q 1863 2828 1634 2828 
Q 1403 2828 1292 2648 
Q 1181 2469 1181 2097 
z
M 1069 -200 
Q 956 -288 898 -391 
Q 841 -494 841 -628 
Q 841 -853 1036 -961 
Q 1231 -1069 1653 -1069 
Q 2047 -1069 2251 -937 
Q 2456 -806 2456 -569 
Q 2456 -463 2418 -388 
Q 2381 -313 2272 -263 
Q 2163 -213 1963 -213 
L 1425 -213 
Q 1197 -213 1069 -200 
z
" transform="scale(0.015625)"/>
      <path id="Cambria-Bold-63" d="M 2650 800 
L 2891 509 
Q 2584 209 2298 79 
Q 2013 -50 1675 -50 
Q 997 -50 640 348 
Q 284 747 284 1506 
Q 284 2019 479 2392 
Q 675 2766 1040 2958 
Q 1406 3150 1878 3150 
Q 2131 3150 2382 3114 
Q 2634 3078 2841 3016 
L 2841 2263 
L 2222 2263 
Q 2175 2556 2081 2690 
Q 1988 2825 1813 2825 
Q 1697 2825 1592 2767 
Q 1488 2709 1408 2567 
Q 1328 2425 1281 2186 
Q 1234 1947 1234 1581 
Q 1234 1216 1303 964 
Q 1372 713 1525 577 
Q 1678 441 1928 441 
Q 2109 441 2270 519 
Q 2431 597 2650 800 
z
" transform="scale(0.015625)"/>
      <path id="Cambria-Bold-75" d="M 200 3100 
L 1416 3100 
L 1416 1366 
Q 1416 1066 1434 897 
Q 1453 728 1506 629 
Q 1559 531 1636 486 
Q 1713 441 1831 441 
Q 1947 441 2075 512 
Q 2203 584 2292 714 
Q 2381 844 2381 991 
L 2381 2197 
Q 2381 2425 2372 2536 
Q 2363 2647 2336 2709 
Q 2309 2772 2253 2814 
Q 2197 2856 2069 2894 
L 2069 3100 
L 3288 3100 
L 3288 913 
Q 3288 675 3295 565 
Q 3303 456 3331 390 
Q 3359 325 3421 283 
Q 3484 241 3631 209 
L 3631 0 
L 2781 -28 
L 2403 -28 
L 2431 422 
L 2394 431 
Q 2103 163 1875 56 
Q 1647 -50 1416 -50 
Q 1084 -50 886 73 
Q 688 197 600 436 
Q 513 675 513 1053 
L 513 2197 
Q 513 2372 508 2465 
Q 503 2559 493 2611 
Q 484 2663 467 2705 
Q 450 2747 420 2781 
Q 391 2816 339 2844 
Q 288 2872 200 2894 
L 200 3100 
z
" transform="scale(0.015625)"/>
      <path id="Cambria-Bold-6c" d="M 1438 903 
Q 1438 606 1456 493 
Q 1475 381 1533 314 
Q 1591 247 1750 206 
L 1750 0 
L 219 0 
L 219 206 
Q 313 228 366 258 
Q 419 288 448 327 
Q 478 366 500 427 
Q 522 488 528 595 
Q 534 703 534 903 
L 534 3341 
Q 534 3609 529 3736 
Q 525 3863 511 3948 
Q 497 4034 464 4086 
Q 431 4138 372 4169 
Q 313 4200 181 4225 
L 181 4431 
L 1047 4475 
L 1438 4475 
L 1438 903 
z
" transform="scale(0.015625)"/>
      <path id="Cambria-Bold-74" d="M 2406 375 
Q 2131 141 1906 45 
Q 1681 -50 1431 -50 
Q 966 -50 736 201 
Q 506 453 506 963 
L 506 2709 
L 116 2709 
L 116 2925 
Q 306 2956 397 3018 
Q 488 3081 538 3186 
Q 588 3291 617 3459 
Q 647 3628 663 3881 
L 1409 3881 
L 1409 3100 
L 2300 3100 
L 2300 2709 
L 1409 2709 
L 1409 1300 
Q 1409 947 1442 778 
Q 1475 609 1553 529 
Q 1631 450 1747 450 
Q 1834 450 1903 465 
Q 1972 481 2048 522 
Q 2125 563 2209 638 
L 2406 375 
z
" transform="scale(0.015625)"/>
      <path id="Cambria-Bold-70" d="M 1438 -559 
Q 1438 -794 1463 -891 
Q 1488 -988 1552 -1044 
Q 1616 -1100 1778 -1138 
L 1778 -1344 
L 222 -1344 
L 222 -1138 
Q 369 -1094 426 -1041 
Q 484 -988 509 -892 
Q 534 -797 534 -559 
L 534 2175 
Q 534 2397 529 2490 
Q 525 2584 508 2650 
Q 491 2716 459 2758 
Q 428 2800 367 2831 
Q 306 2863 188 2888 
L 188 3100 
L 1053 3125 
L 1438 3125 
L 1391 2672 
L 1428 2663 
Q 1697 2922 1930 3036 
Q 2163 3150 2409 3150 
Q 2966 3150 3244 2758 
Q 3522 2366 3522 1584 
Q 3522 1044 3358 680 
Q 3194 316 2869 133 
Q 2544 -50 2069 -50 
Q 1747 -50 1438 31 
L 1438 -559 
z
M 1438 1025 
Q 1438 641 1570 458 
Q 1703 275 1981 275 
Q 2269 275 2420 576 
Q 2572 878 2572 1438 
Q 2572 2059 2436 2359 
Q 2300 2659 2013 2659 
Q 1872 2659 1739 2587 
Q 1606 2516 1522 2383 
Q 1438 2250 1438 2084 
L 1438 1025 
z
" transform="scale(0.015625)"/>
      <path id="Cambria-Bold-32" d="M 2356 766 
Q 2559 766 2659 795 
Q 2759 825 2817 898 
Q 2875 972 2913 1119 
L 3272 1119 
L 3200 0 
L 338 0 
L 338 206 
Q 469 506 717 859 
Q 966 1213 1322 1631 
Q 1659 2028 1836 2284 
Q 2013 2541 2100 2769 
Q 2188 2997 2188 3241 
Q 2188 3584 2034 3779 
Q 1881 3975 1616 3975 
Q 1366 3975 1202 3798 
Q 1038 3622 963 3241 
L 400 3241 
L 400 3978 
Q 781 4131 997 4192 
Q 1213 4253 1423 4284 
Q 1634 4316 1881 4316 
Q 2341 4316 2631 4192 
Q 2922 4069 3051 3858 
Q 3181 3647 3181 3366 
Q 3181 3119 3089 2906 
Q 2997 2694 2770 2422 
Q 2544 2150 2006 1644 
Q 1766 1409 1556 1170 
Q 1347 931 1247 797 
L 1247 766 
L 2356 766 
z
" transform="scale(0.015625)"/>
      <path id="Cambria-Bold-30" d="M 1856 -50 
Q 1369 -50 1039 164 
Q 709 378 531 856 
Q 353 1334 353 2094 
Q 353 2809 534 3304 
Q 716 3800 1067 4058 
Q 1419 4316 1913 4316 
Q 2681 4316 3059 3792 
Q 3438 3269 3438 2191 
Q 3438 1084 3036 517 
Q 2634 -50 1856 -50 
z
M 1303 2184 
Q 1303 1497 1364 1090 
Q 1425 684 1556 492 
Q 1688 300 1906 300 
Q 2025 300 2114 358 
Q 2203 416 2273 539 
Q 2344 663 2394 867 
Q 2444 1072 2466 1376 
Q 2488 1681 2488 2056 
Q 2488 2616 2445 2997 
Q 2403 3378 2325 3584 
Q 2247 3791 2140 3878 
Q 2034 3966 1894 3966 
Q 1728 3966 1614 3856 
Q 1500 3747 1431 3525 
Q 1363 3303 1333 2968 
Q 1303 2634 1303 2184 
z
" transform="scale(0.015625)"/>
      <path id="Cambria-Bold-31" d="M 2506 872 
Q 2506 691 2526 598 
Q 2547 506 2598 448 
Q 2650 391 2747 358 
Q 2844 325 2991 308 
Q 3138 291 3378 284 
L 3378 0 
L 681 0 
L 681 284 
Q 1028 300 1176 326 
Q 1325 353 1403 406 
Q 1481 459 1517 556 
Q 1553 653 1553 872 
L 1553 3131 
Q 1553 3259 1504 3315 
Q 1456 3372 1372 3372 
Q 1294 3372 1151 3300 
Q 1009 3228 684 3006 
L 494 3338 
L 2125 4316 
L 2525 4316 
Q 2506 4016 2506 3484 
L 2506 872 
z
" transform="scale(0.015625)"/>
      <path id="Cambria-Bold-39" d="M 1019 134 
L 1019 359 
Q 1222 363 1375 397 
Q 1556 434 1717 517 
Q 1878 600 2000 722 
Q 2150 869 2250 1058 
Q 2350 1247 2408 1472 
Q 2466 1697 2494 1941 
L 2463 1953 
Q 2222 1788 1989 1713 
Q 1756 1638 1431 1638 
Q 1063 1638 805 1795 
Q 547 1953 419 2236 
Q 291 2519 291 2897 
Q 291 3313 486 3639 
Q 681 3966 1047 4141 
Q 1413 4316 1913 4316 
Q 2416 4316 2761 4108 
Q 3106 3900 3276 3503 
Q 3447 3106 3447 2544 
Q 3447 1759 3181 1196 
Q 2916 634 2408 318 
Q 1900 3 1181 -50 
L 1019 134 
z
M 1794 2066 
Q 1909 2066 2009 2087 
Q 2109 2109 2198 2154 
Q 2288 2200 2364 2264 
Q 2441 2328 2466 2368 
Q 2491 2409 2508 2487 
Q 2525 2566 2525 2700 
Q 2525 3313 2361 3639 
Q 2197 3966 1881 3966 
Q 1697 3966 1570 3894 
Q 1444 3822 1364 3690 
Q 1284 3559 1250 3376 
Q 1216 3194 1216 2975 
Q 1216 2066 1794 2066 
z
" transform="scale(0.015625)"/>
     </defs>
     <use xlink:href="#Cambria-Bold-47"/>
     <use xlink:href="#Cambria-Bold-48" x="64.648438"/>
     <use xlink:href="#Cambria-Bold-47" x="136.816406"/>
     <use xlink:href="#Cambria-Bold-20" x="201.464844"/>
     <use xlink:href="#Cambria-Bold-65" x="223.486328"/>
     <use xlink:href="#Cambria-Bold-6d" x="276.5625"/>
     <use xlink:href="#Cambria-Bold-69" x="365.576172"/>
     <use xlink:href="#Cambria-Bold-73" x="397.021484"/>
     <use xlink:href="#Cambria-Bold-73" x="442.919922"/>
     <use xlink:href="#Cambria-Bold-69" x="488.818359"/>
     <use xlink:href="#Cambria-Bold-6f" x="520.263672"/>
     <use xlink:href="#Cambria-Bold-6e" x="577.197266"/>
     <use xlink:href="#Cambria-Bold-73" x="637.548828"/>
     <use xlink:href="#Cambria-Bold-20" x="683.447266"/>
     <use xlink:href="#Cambria-Bold-66" x="705.46875"/>
     <use xlink:href="#Cambria-Bold-72" x="738.085938"/>
     <use xlink:href="#Cambria-Bold-6f" x="784.228516"/>
     <use xlink:href="#Cambria-Bold-6d" x="841.162109"/>
     <use xlink:href="#Cambria-Bold-20" x="930.175781"/>
     <use xlink:href="#Cambria-Bold-61" x="952.197266"/>
     <use xlink:href="#Cambria-Bold-67" x="1005.712891"/>
     <use xlink:href="#Cambria-Bold-72" x="1057.714844"/>
     <use xlink:href="#Cambria-Bold-69" x="1103.857422"/>
     <use xlink:href="#Cambria-Bold-63" x="1135.302734"/>
     <use xlink:href="#Cambria-Bold-75" x="1182.177734"/>
     <use xlink:href="#Cambria-Bold-6c" x="1241.894531"/>
     <use xlink:href="#Cambria-Bold-74" x="1272.705078"/>
     <use xlink:href="#Cambria-Bold-75" x="1309.228516"/>
     <use xlink:href="#Cambria-Bold-72" x="1368.945312"/>
     <use xlink:href="#Cambria-Bold-65" x="1415.087891"/>
     <use xlink:href="#Cambria-Bold-20" x="1468.164062"/>
     <use xlink:href="#Cambria-Bold-70" x="1490.185547"/>
     <use xlink:href="#Cambria-Bold-65" x="1549.902344"/>
     <use xlink:href="#Cambria-Bold-72" x="1602.978516"/>
     <use xlink:href="#Cambria-Bold-20" x="1649.121094"/>
     <use xlink:href="#Cambria-Bold-63" x="1671.142578"/>
     <use xlink:href="#Cambria-Bold-61" x="1718.017578"/>
     <use xlink:href="#Cambria-Bold-70" x="1771.533203"/>
     <use xlink:href="#Cambria-Bold-69" x="1831.25"/>
     <use xlink:href="#Cambria-Bold-74" x="1862.695312"/>
     <use xlink:href="#Cambria-Bold-61" x="1899.21875"/>
     <use xlink:href="#Cambria-Bold-20" x="1952.734375"/>
     <use xlink:href="#Cambria-Bold-69" x="1974.755859"/>
     <use xlink:href="#Cambria-Bold-6e" x="2006.201172"/>
     <use xlink:href="#Cambria-Bold-20" x="2066.552734"/>
     <use xlink:href="#Cambria-Bold-32" x="2088.574219"/>
     <use xlink:href="#Cambria-Bold-30" x="2147.802734"/>
     <use xlink:href="#Cambria-Bold-31" x="2207.03125"/>
     <use xlink:href="#Cambria-Bold-39" x="2266.259766"/>
    </g>
    <!--  -->
    <g style="fill: #262626" transform="translate(219.2525 35.345)scale(0.16 -0.16)"/>
   </g>
  </g>
 </g>
 <defs>
  <clipPath id="pfd80ffbc01">
   <rect x="51.8525" y="41.345" width="334.8" height="217.44"/>
  </clipPath>
 </defs>
</svg>
